<?xml version="1.0" standalone="no"?>
<!DOCTYPE svg PUBLIC "-//W3C//DTD SVG 1.1//EN" "http://www.w3.org/Graphics/SVG/1.1/DTD/svg11.dtd" >
<svg xmlns="http://www.w3.org/2000/svg" xmlns:xlink="http://www.w3.org/1999/xlink" version="1.1">
<metadata>
Created by FontForge 20201107 at Sun May 15 23:24:42 2005
 By 
Copyright (c) 2004, m klein fonteria. All rights reserved.
</metadata>
<defs>
<font id="RomanSerif" horiz-adv-x="525" >
  <font-face 
    font-family="RomanSerif"
    font-weight="500"
    font-stretch="normal"
    units-per-em="1000"
    panose-1="2 0 6 3 6 0 0 2 0 4"
    ascent="800"
    descent="-200"
    x-height="476"
    cap-height="677"
    bbox="-160 -224 1000 917"
    underline-thickness="50"
    underline-position="-125"
    unicode-range="U+0005-E063"
  />
<missing-glyph horiz-adv-x="500" 
d="M74 0h369v677h-369v-677zM110 641h297v-605h-297v605z" />
    <glyph glyph-name=".notdef" horiz-adv-x="500" 
d="M74 0h369v677h-369v-677zM110 641h297v-605h-297v605z" />
    <glyph glyph-name=".null" horiz-adv-x="0" 
 />
    <glyph glyph-name="nonmarkingreturn" unicode="&#xe000;" horiz-adv-x="262" 
 />
    <glyph glyph-name="breve" horiz-adv-x="284" 
d="M143 537q26 0 49 7.5t40.5 24t28.5 43t14 63.5h-29q-11 -43 -39 -60.5t-64 -17.5q-37 0 -65 17.5t-39 60.5h-29q5 -74 42.5 -106t90.5 -32z" />
    <glyph glyph-name="dotaccent" horiz-adv-x="284" 
d="M142 648q-15 0 -23.5 -1.5t-13 -6t-5.5 -13.5t-1 -24t1 -24t5.5 -13.5t13 -6t23.5 -1.5t23.5 1.5t13 6t5.5 13.5t1 24t-1 24t-5.5 13.5t-13 6t-23.5 1.5z" />
    <glyph glyph-name="ring" horiz-adv-x="284" 
d="M142 726q-20 0 -37.5 -8t-31 -21.5t-21.5 -31t-8 -37.5t8 -37.5t21.5 -31t31 -21.5t37.5 -8t37.5 8t31 21.5t21 31t7.5 37.5t-7.5 37.5t-21 31t-31 21.5t-37.5 8zM142 692q27 0 45 -18.5t18 -45.5t-18 -45.5t-45 -18.5t-45.5 18.5t-18.5 45.5t18.5 45.5t45.5 18.5z" />
    <glyph glyph-name="hungarumlaut" unicode="&#xa;" horiz-adv-x="284" 
d="M21 531h43l137 115q10 9 10 18q0 8 -12 19q-10 8 -21 8q-17 0 -36 -16zM181 531h43l136 115q10 9 10 18q0 8 -11 19q-10 8 -21 8q-17 0 -36 -16z" />
    <glyph glyph-name="ogonek" horiz-adv-x="284" 
d="M159 5q-31 -15 -61 -46q-29 -32 -29 -64q0 -36 23 -57t56 -21q30 0 56.5 17.5t47.5 53.5l-17 12q-18 -21 -35.5 -29t-33.5 -8t-28 10.5t-12 32.5q0 26 21 55q11 14 21 25t21 19h-30z" />
    <glyph glyph-name="caron" horiz-adv-x="284" 
d="M-2 687l110 -155h68l111 155l-37 1l-108 -103l-108 103z" />
    <glyph glyph-name="dotlessi" unicode="&#xd;" horiz-adv-x="253" 
d="M161 47v435l-19 1l-98 -34v-5l20 -3l10 1q11 0 13 -7.5t2 -23.5v-361q0 -24 -6.5 -33t-24.5 -9h-13v-8h145v8h-8q-14 0 -17.5 8t-3.5 31z" />
    <glyph glyph-name="fraction" horiz-adv-x="167" 
d="M-160 -17h51l434 711h-50z" />
    <glyph glyph-name="fi" horiz-adv-x="556" 
d="M367 646q17 7 21 14.5t2.5 11.5t-2.5 5l-1 -3v6q-1 1 -11.5 9.5t-33.5 18.5t-52 10q-82 0 -130.5 -53.5t-48.5 -153.5v-35h-85v-41h85v-385q0 -24 -5.5 -33t-21.5 -9h-11v-8h165v8h-37q-12 0 -15 8t-3 31v388h82v41h-82v83q0 57 24.5 89.5t67.5 32.5q22 0 36.5 -7.5
t25.5 -21.5l1 2q7 -10 19 -10q4 0 10 2zM458 47v435l-17 -1q-23 -2 -40 -3.5t-28 -2.5h-28t-40 1v-9q0 -3 9 -4t27 -4l31 -1q12 -1 13 -12t1 -36v-360q0 -24 -6 -33t-22 -9h-12v-8h155v8h-27q-10 0 -13 8t-3 31z" />
    <glyph glyph-name="fl" horiz-adv-x="556" 
d="M354 687q-2 11 -29 20q-31 11 -51 11q-83 0 -123 -54.5t-40 -146.5v-41h-84v-41h84v-385q0 -24 -5.5 -33t-21.5 -9h-11v-8h136v8h-8q-12 0 -15 8t-3 31v388h161v41h-161v82q0 57 17 89t53 32q20 0 31.5 -8t23.5 -17q6 -8 17 -8q3 0 11 2q21 6 21 30v2l11 -1l7 1
q0 -1 5 -8q7 -7 7 -24v-598q0 -24 -5.5 -33t-20.5 -9h-11v-8h131v8h-6q-11 0 -13.5 8t-2.5 31v665h-19z" />
    <glyph glyph-name="Lslash" horiz-adv-x="535" 
d="M340 475l-165 -104v247q0 28 7 38.5t29 10.5h15v10h-186v-10h16q21 0 27.5 -10.5t6.5 -38.5v-301l-79 -50v-57l79 50v-201q0 -28 -6.5 -38.5t-27.5 -10.5h-14v-10h454l28 121l-13 3q-22 -51 -52 -64q-29 -12 -87 -12h-148q-28 0 -38.5 2.5t-10.5 16.5v247l165 104v57z
" />
    <glyph glyph-name="lslash" horiz-adv-x="253" 
d="M19 332v-56l72 52v-278q0 -24 -6.5 -33t-24.5 -9h-13v-8h145v8h-8q-14 0 -17.5 8t-3.5 31v334l72 52v56l-72 -52v275l-19 1l-98 -27v-5l20 -3l10 1q11 0 13 -7.5t2 -23.5v-264z" />
    <glyph glyph-name="Zcaron" horiz-adv-x="559" 
d="M438 48h-319l404 593v36h-483l-11 -121h14q7 48 31 61q24 12 58 12h289l-408 -594v-35h512l13 122h-12q-11 -42 -31.5 -58t-56.5 -16zM133 877l111 -155h68l111 155l-37 1l-108 -103l-108 103z" />
    <glyph glyph-name="zcaron" horiz-adv-x="444" 
d="M52 476l-2 -89h10q3 34 14.5 41t28.5 7h212l-285 -403v-32h377l8 98l-10 2q-8 -44 -22 -51q-16 -8 -45 -8h-219l286 402v33h-353zM77 687l111 -155h68l111 155l-37 1l-108 -103l-108 103z" />
    <glyph glyph-name="space" unicode=" " horiz-adv-x="262" 
 />
    <glyph glyph-name="exclam" unicode="!" horiz-adv-x="358" 
d="M187 85q-15 0 -24.5 -1.5t-14 -6t-6 -14t-1.5 -24.5t1.5 -24t6 -13.5t14 -6t25.5 -1.5q15 0 24.5 1.5t14 6t6 13.5t1.5 24t-1.5 24.5t-6 14t-14 6t-25.5 1.5zM236 641q0 18 -11 31.5t-34 13.5q-24 0 -33 -13.5t-15 -31.5q1 -62 12 -163l10 -100t6 -102l2 -106h33l1 107
q1 51 6 101l10 100q6 51 9 91t4 72z" />
    <glyph glyph-name="quotedbl" unicode="&#x22;" horiz-adv-x="466" 
d="M345 663q-2 9 -12 15.5t-25 6.5t-25 -6.5t-12 -15.5l17 -209h40l11 118zM194 663q-2 9 -12 15.5t-25 6.5t-25 -6.5t-12 -15.5l17 -209h40l11 118z" />
    <glyph glyph-name="numbersign" unicode="#" 
d="M18 271v-53h107l-33 -218h58l33 218h135l-33 -218h58l33 218h107v53h-100l22 142h105v53h-98l33 218h-58l-33 -218h-135l33 218h-58l-33 -218h-116v-53h109l-22 -142h-114zM190 271l22 142h135l-22 -142h-135z" />
    <glyph glyph-name="dollar" unicode="$" 
d="M283 745h-41v-63q-65 -7 -115 -46q-58 -46 -58 -113q0 -75 50 -119q25 -23 55.5 -42.5t67.5 -38.5v-287q-33 1 -60.5 7t-49.5 20q-44 26 -61 84l3 -6l-10 -33l-1 -71q-4 0 -4 3q1 0 5 -4q17 -10 37.5 -18t44.5 -13q23 -5 47 -7t49 -3v-82h41v84q70 9 118 48q63 51 63 124
q0 36 -11 65.5t-33 54t-53.5 46.5t-71.5 43l7 -3q-5 3 -10 5.5l-9 4.5v257q57 -5 87 -26q38 -26 53 -67l-2 7l12 26l-1 68v-8q3 0 5 -3q-1 0 -4 3q-13 8 -29.5 15.5t-38.5 13.5q-36 11 -82 12v62zM242 410q-32 19 -54 39q-48 40 -48 86t36 76q25 21 66 29v-230zM283 300
q39 -23 66 -47q41 -35 41 -94q0 -52 -42 -88q-25 -22 -65 -31v260z" />
    <glyph glyph-name="percent" unicode="%" horiz-adv-x="898" 
d="M270 681q-77 0 -136 -65q-57 -65 -57 -151q0 -76 35.5 -116t102.5 -40q75 0 129 66q54 67 54 161q0 41 -13 72t-38 49q18 -3 38 -5.5t37.5 -4t31.5 -3t21 -1.5l16 -1q9 -1 25.5 0t34 3.5t32.5 6.5t22 9l-379 -677h52l397 711h-47q-9 -9 -26 -16t-36.5 -12t-37.5 -7.5
t-29 -2.5h-9q-9 0 -34.5 1.5t-53.5 4t-52 6.5t-30 10l-15 -2q-15 4 -35 4zM276 639q36 0 57.5 -29.5t21.5 -78.5q0 -71 -41 -127q-40 -55 -91 -55q-80 0 -80 97q0 75 41 134q42 59 92 59zM696 370q-77 0 -136 -65q-57 -65 -57 -151q0 -76 35.5 -115.5t102.5 -39.5
q75 0 129 66t54 160q0 67 -34 106t-94 39zM702 328q36 0 57.5 -29.5t21.5 -78.5q0 -71 -41 -127q-40 -55 -90 -55q-81 0 -81 97q0 75 41 134q42 59 92 59z" />
    <glyph glyph-name="ampersand" unicode="&#x26;" horiz-adv-x="726" 
d="M606 358q10 19 22 27t33 10v12h-146v-12q17 0 31 -9q6 -5 6 -15q0 -13 -11 -41q-8 -34 -29 -78q-18 -38 -41 -79q-38 44 -77 94.5t-79 110.5q57 23 105 61q59 47 59 121q0 61 -44 96q-43 34 -104 34q-66 0 -115 -46q-48 -45 -48 -111q0 -43 20 -88q17 -36 35 -65
q-86 -41 -131 -92q-48 -56 -48 -136q0 -65 48 -114q48 -50 137 -50q45 0 82.5 8.5t69.5 27.5q37 22 72 57q7 -8 13.5 -15t11.5 -13q22 -25 50 -42.5t57 -17.5q37 0 70 21t50 41l-9 7q-13 -19 -25.5 -24.5t-28.5 -6.5q-68 37 -139 108q17 25 32.5 51t29.5 55t24 57.5t17 55.5
zM293 412q-26 43 -39 73q-14 36 -14 70q0 46 27.5 70t64.5 24q39 0 64.5 -22t25.5 -67q0 -57 -44 -95q-32 -27 -85 -53zM247 344q29 -43 57.5 -81t54.5 -70q17 -22 33 -41t31 -36q-26 -27 -57 -46q-53 -32 -106 -32t-95 39q-42 40 -42 102q0 57 40 101q32 37 84 64z" />
    <glyph glyph-name="quotesingle" unicode="'" horiz-adv-x="218" 
d="M147 663q-2 9 -12 15.5t-25 6.5t-25 -6.5t-12 -15.5l17 -209h40l11 118z" />
    <glyph glyph-name="parenleft" unicode="(" horiz-adv-x="309" 
d="M119 274q0 147 50 258q49 111 114 171l-24 10q-86 -69 -150 -183q-64 -112 -64 -256q0 -143 64 -255q65 -113 150 -182l24 10q-64 60 -114 170q-50 111 -50 257z" />
    <glyph glyph-name="parenright" unicode=")" horiz-adv-x="309" 
d="M189 274q0 -146 -50 -257q-25 -55 -53 -97.5t-60 -72.5l24 -10q86 69 149 182q64 112 64 255q0 142 -64 256q-65 115 -149 183l-24 -10q63 -58 113 -171q50 -111 50 -258z" />
    <glyph glyph-name="asterisk" unicode="*" 
d="M248 460q0 -23 -9 -81q-4 -29 -6 -45t-2 -19q0 -23 32 -23t32 23q0 5 -9 64q-4 29 -6 49.5t-2 31.5q20 -9 67 -47q23 -19 36.5 -28.5t15.5 -11.5q4 -3 10 -3q14 0 25 20q7 11 7 22t-10 18q-3 2 -61 24t-73 34q15 12 73 34t61 24q10 7 10 18t-7 22q-11 20 -25 20
q-6 0 -10 -3q-7 -4 -52 -41q-23 -19 -40 -30t-27 -16q0 11 2 31t6 49q9 58 9 65q0 23 -32 23t-32 -23q0 -3 2 -19.5t6 -45.5q9 -59 9 -80q-10 5 -27 16t-40 30q-45 37 -52 41q-5 3 -10 3q-14 0 -26 -20q-7 -11 -7 -21q0 -11 11 -19q3 -2 61 -24t73 -34q-15 -12 -73 -34
t-61 -24q-11 -8 -11 -19q0 -10 7 -21q12 -20 26 -20q5 0 10 3q2 2 15.5 11.5t36.5 28.5q47 38 67 47z" />
    <glyph glyph-name="plus" unicode="+" horiz-adv-x="579" 
d="M256 288h-219v-66h219v-221h66v221h219v66h-219v218h-66v-218z" />
    <glyph glyph-name="comma" unicode="," horiz-adv-x="250" 
d="M62 -186q28 14 58 34t53 59q13 23 18.5 46t5.5 46q0 29 -8.5 50.5t-21.5 36t-29 21.5t-30 7q-10 0 -21 -3.5t-20.5 -11t-15.5 -19t-6 -26.5q0 -24 16.5 -41t41.5 -17q8 0 15.5 2t15.5 4q2 -11 4.5 -21.5t2.5 -21.5q0 -23 -8.5 -41.5t-21 -33.5t-28 -27.5t-28.5 -22.5z
" />
    <glyph glyph-name="hyphen" unicode="-" horiz-adv-x="292" 
d="M34 224h221v52h-221v-52z" />
    <glyph glyph-name="period" unicode="." horiz-adv-x="250" 
d="M125 -5q24 0 41.5 17.5t17.5 41.5t-17.5 41.5t-41.5 17.5t-41.5 -17.5t-17.5 -41.5t17.5 -41.5t41.5 -17.5z" />
    <glyph glyph-name="slash" unicode="/" horiz-adv-x="278" 
d="M-17 -12h59l246 702h-60z" />
    <glyph glyph-name="zero" unicode="0" 
d="M488 338q0 160 -59 255t-167 95q-110 0 -169 -95q-58 -94 -58 -255q0 -160 58 -254t168 -94t168 94q59 95 59 254zM407 339q0 -72 -8.5 -129t-26.5 -97t-45.5 -61.5t-64.5 -21.5q-38 0 -65.5 21.5t-45.5 61.5t-26.5 96.5t-8.5 127.5q0 144 35 227t110 83q37 0 64.5 -21.5
t45.5 -61.5t27 -97t9 -128z" />
    <glyph glyph-name="one" unicode="1" 
d="M317 47l-1 637l-31 1l-167 -108l17 -27l78 55q12 0 20 -4t8 -21v-530q0 -24 -7 -33t-30 -9h-15v-8h181v8h-15q-26 0 -32 8t-6 31z" />
    <glyph glyph-name="two" unicode="2" 
d="M39 0h401l31 99l-6 4q-8 -14 -19 -25.5t-29 -11.5h-288l185 200q16 17 34.5 42t41.5 59q45 69 45 145q0 74 -54 125t-135 51q-74 0 -130 -41t-66 -90l16 -31q17 36 56 65q40 31 102 31q29 0 53.5 -10t42 -27.5t27.5 -42t10 -54.5q0 -60 -36 -121q-18 -31 -33.5 -55.5
t-31.5 -41.5l-217 -237v-33z" />
    <glyph glyph-name="three" unicode="3" 
d="M72 552q9 14 24 28t34.5 25t43 18t50.5 7q60 0 97 -30t37 -78q0 -70 -53 -108t-141 -51h-13l1 -34l47 1q88 2 133.5 -37t45.5 -108q0 -64 -44 -108q-44 -42 -110 -42q-43 0 -76 11.5t-48 21.5q-9 3 -16 3q-12 0 -22 -7q-15 -11 -15 -32q6 -17 42.5 -29.5t93.5 -12.5
q116 0 190 59t74 156q0 72 -35.5 118t-102.5 59q54 24 87 63t33 91q0 34 -13 62.5t-37 48t-57.5 30.5t-75.5 11q-36 0 -66 -8.5t-53.5 -23t-40 -33.5t-25.5 -40z" />
    <glyph glyph-name="four" unicode="4" 
d="M330 685l-314 -455v-65h306v-165h70v165h105v60h-105v460h-62zM322 601v-376h-256z" />
    <glyph glyph-name="five" unicode="5" 
d="M410 677h-268l-65 -283l5 -7q31 11 67 10q112 -5 173.5 -52t61.5 -137q0 -76 -45 -125q-45 -48 -117 -48q-39 0 -70 15q-16 8 -26 13.5t-15 9.5q-4 1 -7 1.5t-6 0.5q-14 0 -25 -7q-17 -11 -17 -37q4 -17 41 -29t95 -12q116 0 189 64t73 170q0 220 -256 245l-48 -7l27 147
h237l10 4l21 76l-5 4q-4 -7 -10.5 -11.5t-19.5 -4.5z" />
    <glyph glyph-name="six" unicode="6" 
d="M484 217q0 103 -53.5 160t-147.5 57q-50 0 -93 -22q-40 -21 -61 -51q16 107 65 180q69 101 213 118q20 0 34 -3.5t18 -5.5l1 37l-52 7q-158 -2 -261 -108q-104 -107 -104 -285q0 -80 16.5 -138.5t45.5 -96.5t70 -57t91 -19q98 0 158 62q60 63 60 165zM126 336l-1 -62
q14 63 53 85q41 23 86 23q69 0 106 -48t37 -133q0 -78 -34.5 -124t-94.5 -46q-74 0 -115 60.5t-40 192.5q0 16 1 28.5t2 23.5z" />
    <glyph glyph-name="seven" unicode="7" 
d="M462 677h-391l-33 -104l9 -5q13 22 26 33.5t39 11.5h279l-231 -617l68 1l234 642v38z" />
    <glyph glyph-name="eight" unicode="8" 
d="M242 323q29 -15 56 -33t53 -38q53 -41 53 -108q0 -51 -38 -82t-98 -31q-31 0 -57.5 10t-46 27.5t-30.5 42t-11 54.5q0 62 36 100q35 36 83 58zM260 646q54 0 89.5 -30t35.5 -78q0 -61 -43 -100q-44 -38 -74 -51q-35 15 -85 57q-48 42 -48 96q0 48 35 77t90 29zM198 345
q-65 -32 -105 -74.5t-40 -110.5q0 -76 59 -123q61 -47 152 -47q96 0 152.5 45.5t56.5 126.5q0 69 -42.5 117.5t-117.5 85.5q29 15 54.5 33t44 39.5t29.5 46t11 51.5q0 68 -52 110q-52 43 -134 43q-85 0 -143 -46q-57 -45 -57 -114q0 -25 6.5 -47.5t22 -44.5t41 -44.5
t62.5 -46.5z" />
    <glyph glyph-name="nine" unicode="9" 
d="M38 454q0 -97 53 -152.5t147 -55.5q51 0 92 22q42 21 63 52q-11 -104 -62 -179q-72 -105 -212 -120q-20 0 -34 3.5t-18 6.5l-1 -39l53 -7q156 4 257 111q100 106 100 295q0 147 -63 222t-158 75q-98 0 -158 -65q-59 -65 -59 -169zM394 394q-11 -49 -48 -71
q-45 -27 -91 -27q-66 0 -102 48.5t-36 133.5q0 78 35.5 123t95.5 45q71 0 108.5 -59.5t37.5 -192.5z" />
    <glyph glyph-name="colon" unicode=":" horiz-adv-x="292" 
d="M151 332q24 0 41.5 17.5t17.5 41.5t-17.5 41.5t-41.5 17.5t-41.5 -17.5t-17.5 -41.5t17.5 -41.5t41.5 -17.5zM151 -5q24 0 41.5 17.5t17.5 41.5t-17.5 41.5t-41.5 17.5t-41.5 -17.5t-17.5 -41.5t17.5 -41.5t41.5 -17.5z" />
    <glyph glyph-name="semicolon" unicode=";" horiz-adv-x="292" 
d="M108 -186q28 14 58 33.5t53 58.5q13 23 18.5 46.5t5.5 45.5q0 29 -8.5 51t-21.5 36.5t-29 21.5t-30 7q-10 0 -21 -3.5t-20.5 -11t-15.5 -19t-6 -26.5q0 -24 16.5 -41t41.5 -17q8 0 15.5 2t15.5 4q2 -11 4.5 -21.5t2.5 -21.5q0 -23 -8.5 -41.5t-21 -33.5t-28 -27.5
t-28.5 -22.5zM144 332q24 0 41.5 17.5t17.5 41.5t-17.5 41.5t-41.5 17.5t-41.5 -17.5t-17.5 -41.5t17.5 -41.5t41.5 -17.5z" />
    <glyph glyph-name="less" unicode="&#x3c;" horiz-adv-x="579" 
d="M115 253l430 195l1 66l-510 -231v-60l510 -230l-1 65z" />
    <glyph glyph-name="equal" unicode="=" horiz-adv-x="579" 
d="M37 320h504v66h-504v-66zM37 120h504v66h-504v-66z" />
    <glyph glyph-name="greater" unicode="&#x3e;" horiz-adv-x="579" 
d="M36 58l-1 -65l510 230v60l-510 231l1 -66l430 -195z" />
    <glyph glyph-name="question" unicode="?" horiz-adv-x="466" 
d="M227 690q-61 0 -101 -31q-39 -29 -50 -57q0 -12 4 -25t24 -13q8 0 14 -8q3 -4 5 -4t2 6q0 10 -10.5 21t-10.5 19q4 9 15.5 18t27 16t33.5 11t36 4q57 0 89.5 -35t32.5 -89q0 -20 -5 -42.5t-13 -45.5t-19 -45.5t-24 -41.5q-17 -25 -29.5 -47t-21 -43t-13 -42t-4.5 -45v-9
h37v9q0 44 18.5 82t59.5 85q30 33 60 79q31 47 31 108q0 66 -48 116q-46 49 -140 49zM229 87q-15 0 -24.5 -1.5t-14 -6t-6 -14t-1.5 -24.5t1.5 -24t6.5 -13.5t14.5 -6t24.5 -1.5t24.5 1.5t14 6t6 13.5t1.5 24t-1.5 24.5t-6 14t-14 6t-25.5 1.5z" />
    <glyph glyph-name="at" unicode="@" horiz-adv-x="867" 
d="M449 543q-155 0 -261 -106q-106 -105 -106 -242q0 -142 105 -248q105 -105 270 -105q88 0 157 34q70 34 95 70l-35 16q-26 -29 -87 -53q-62 -24 -138 -24q-110 0 -201 86q-90 85 -90 219q0 130 86 219q87 90 207 90q119 0 200 -72q80 -72 80 -166q0 -92 -45 -159t-86 -67
q-17 0 -29 12q-7 7 -7 23q0 10 3 22l80 268h-72l-13 -46q-10 35 -35.5 50.5t-49.5 15.5q-94 0 -154 -83t-60 -170q0 -33 9 -57.5t23.5 -41.5t34 -25.5t40.5 -8.5t40 6t35.5 15t29 20t20.5 22q11 -38 35.5 -51.5t49.5 -13.5q74 0 138 79q65 80 65 187q0 114 -94 199
q-95 86 -240 86zM490 334q22 0 35.5 -23.5t13.5 -58.5q0 -52 -41 -132q-41 -78 -98 -78q-23 0 -43 21t-20 66q0 69 45 137q47 68 108 68z" />
    <glyph glyph-name="A" unicode="A" horiz-adv-x="698" 
d="M464 253h-264l132 326zM679 10q-12 2 -21.5 7t-21.5 26l-266 641h-45l-256 -615q-11 -25 -27 -41t-38 -18v-10h150v10q-24 0 -34 10q-4 4 -4 13q0 10 8 31l56 140h301l62 -152q6 -13 4 -22q0 -8 -4 -12q-10 -8 -34 -8v-10h170v10z" />
    <glyph glyph-name="B" unicode="B" horiz-adv-x="618" 
d="M184 328h51q109 0 164.5 -33.5t55.5 -109.5q0 -69 -49 -103.5t-140 -34.5q-42 0 -58 4t-24 19v258zM300 0q114 0 180.5 49t66.5 138q0 63 -41.5 108t-120.5 60q72 16 102.5 53t30.5 95q0 88 -62 131t-177 43h-235v-10h16q24 0 31.5 -10.5t7.5 -38.5v-559q0 -28 -7 -38.5
t-31 -10.5h-16v-10h255zM185 378v238q10 12 28 13t55 1q78 0 122 -31.5t44 -94.5t-40 -94.5t-113 -31.5h-96z" />
    <glyph glyph-name="C" unicode="C" horiz-adv-x="664" 
d="M132 339q0 137 69 220q70 82 190 82q28 0 55.5 -7t53.5 -20q27 -14 48 -36t37 -57l11 3l-1 29l-6 136h-11q-2 -9 -9 -18.5t-15 -9.5q-10 3 -27 7.5t-42 9.5q-50 12 -106 12q-148 0 -244 -99q-95 -100 -95 -253q0 -160 92 -255t247 -95q66 0 122 19t104 61l-14 37
q-37 -33 -89 -50t-106 -17q-124 0 -194 81q-70 80 -70 220z" />
    <glyph glyph-name="D" unicode="D" horiz-adv-x="698" 
d="M562 340q0 -147 -82 -220t-241 -73q-26 0 -40 4.5t-19 20.5v540q11 9 27 13.5t44 4.5q151 0 231 -74t80 -216zM95 618v-559q0 -28 -6.5 -38.5t-28.5 -10.5h-14v-10h224q176 0 277 88q103 88 103 249q0 163 -96 251.5t-276 88.5h-232v-10h14q22 0 28.5 -10.5t6.5 -38.5z
" />
    <glyph glyph-name="E" unicode="E" horiz-adv-x="559" 
d="M502 0l25 119h-16q-10 -23 -21 -36.5t-25 -21.5t-31.5 -10.5t-41.5 -2.5h-165q-29 0 -39 2.5t-10 16.5v261h203q19 0 31.5 -2.5t19 -8.5t9.5 -16t5 -25h13v151h-13q-3 -30 -14.5 -40t-50.5 -10h-203v229q0 15 2 19t20 4h202q33 0 51 -7q20 -8 26 -48h14l-1 103h-446v-10
h14q20 0 26.5 -10.5t6.5 -38.5v-559q0 -28 -6.5 -38.5t-26.5 -10.5h-14v-10h456z" />
    <glyph glyph-name="F" unicode="F" horiz-adv-x="504" 
d="M174 59l-1 269h192q39 0 51 -10.5t15 -41.5h13v151h-13q-3 -30 -15 -40t-51 -10h-191v229q0 15 2 19t20 4h196q33 0 51 -7q20 -8 26 -48h14l-1 103h-441v-10h14q22 0 27.5 -10.5t5.5 -38.5v-559q0 -28 -6 -38.5t-28 -10.5h-14v-10h183v10h-14q-23 0 -29 10.5t-6 38.5z
" />
    <glyph glyph-name="G" unicode="G" horiz-adv-x="719" 
d="M137 331q0 142 72 226t197 84q27 0 54.5 -6t54 -19.5t49.5 -35.5t41 -55l11 3l1 31l-5 137h-12q0 -3 -2 -9t-5 -12.5t-7 -11.5t-8 -5q-26 6 -75 19t-114 13q-150 0 -247 -99q-96 -98 -96 -250q0 -165 96 -259q97 -94 264 -94q66 0 140 20q73 21 90 42v270q0 38 37 38v10
l-189 -1v-11l20 -2q29 -3 39 -6.5t10 -26.5v-243q-5 -9 -18 -16.5t-32 -13.5t-43 -9t-49 -3q-127 0 -200 81q-74 82 -74 214z" />
    <glyph glyph-name="H" unicode="H" horiz-adv-x="695" 
d="M99 618v-559q0 -28 -6.5 -38.5t-29.5 -10.5h-14v-10h183v10h-14q-21 0 -27.5 10.5t-6.5 38.5v262h327v-262q0 -28 -6.5 -38.5t-29.5 -10.5h-14v-10h184v10h-14q-22 0 -28.5 10.5t-6.5 38.5v559q0 28 6.5 38.5t28.5 10.5h14v10h-184v-10h14q23 0 29.5 -10.5t6.5 -38.5
v-246h-327v246q0 28 6.5 38.5t27.5 10.5h14v10h-183v-10h14q23 0 29.5 -10.5t6.5 -38.5z" />
    <glyph glyph-name="I" unicode="I" horiz-adv-x="281" 
d="M183 59v559q0 28 6.5 38.5t31.5 10.5h16v10h-194v-10h16q25 0 31.5 -10.5t6.5 -38.5v-559q0 -28 -6.5 -38.5t-31.5 -10.5h-16v-10h194v10h-16q-25 0 -31.5 10.5t-6.5 38.5z" />
    <glyph glyph-name="J" unicode="J" horiz-adv-x="359" 
d="M174 618v-484q0 -53 -17.5 -73.5t-43.5 -20.5q-19 0 -29.5 7t-18.5 21q-6 10 -17 10q-7 0 -14 -3q-21 -8 -21 -41q0 -9 7.5 -16.5t19 -13.5t26.5 -9t31 -3q78 0 120 51t42 148v427q0 28 7 38.5t29 10.5h15v10h-187v-10h15q22 0 29 -10.5t7 -38.5z" />
    <glyph glyph-name="K" unicode="K" horiz-adv-x="670" 
d="M196 59v282l14 -11l225 -225q28 -28 42 -47.5t16 -29.5l1 -4q0 -14 -40 -14v-10h210v10q-19 1 -34 9.5t-32 25.5l-315 325l271 267q18 18 31 23t38 7v10h-185v-10h7q32 0 32 -17q-1 -9 -8.5 -19.5t-21.5 -24.5l-251 -242v254q0 28 6.5 38.5t29.5 10.5h14v10h-185v-10h14
q23 0 29.5 -10.5t6.5 -38.5v-559q0 -28 -6.5 -38.5t-29.5 -10.5h-14v-10h185v10h-14q-23 0 -29.5 10.5t-6.5 38.5z" />
    <glyph glyph-name="L" unicode="L" horiz-adv-x="535" 
d="M176 618q0 28 7 38.5t29 10.5h15v10h-184v-10h14q21 0 27.5 -10.5t6.5 -38.5v-559q0 -28 -6.5 -38.5t-27.5 -10.5h-14v-10h451l28 121l-13 3q-22 -51 -52 -64q-29 -12 -86 -12h-146q-29 0 -39 2.5t-10 16.5v551z" />
    <glyph glyph-name="M" unicode="M" horiz-adv-x="886" 
d="M680 677l-236 -554l-243 554h-156v-10h16q24 0 31 -10.5t7 -38.5v-533q0 -42 -7 -58.5t-31 -16.5h-16v-10h161v10h-16q-22 0 -29 16.5t-7 58.5v501l256 -586h34l256 599v-540q0 -28 -7 -38.5t-29 -10.5h-15v-10h184v10h-14q-21 0 -27.5 10.5t-6.5 38.5v559q0 28 6.5 38.5
t27.5 10.5h14v10h-153z" />
    <glyph glyph-name="N" unicode="N" horiz-adv-x="698" 
d="M547 131q-94 141 -187 273t-187 273h-132v-10h12q9 0 14.5 -1.5t10.5 -9.5l17 -31v-543q0 -40 -7 -56t-31 -16h-16v-10h161v10h-15q-23 0 -30 16t-7 56v487l401 -574h51v598q0 42 7 58t30 16h16v10h-162v-10h17q24 0 30.5 -16t6.5 -58v-462z" />
    <glyph glyph-name="O" unicode="O" horiz-adv-x="719" 
d="M587 338q0 -134 -62 -220q-62 -84 -165 -84q-105 0 -166 84q-61 85 -61 220q0 137 61 220q61 85 166 85q104 0 165 -85q62 -85 62 -220zM677 338q0 157 -88 254q-87 98 -229 98q-143 0 -230 -98t-87 -254t87 -253t230 -97q142 0 229 97q88 97 88 253z" />
    <glyph glyph-name="P" unicode="P" horiz-adv-x="529" 
d="M179 345v272q12 8 29.5 10.5t44.5 2.5q79 0 123.5 -36.5t44.5 -103.5q0 -75 -43 -112t-128 -35zM179 295l82 -2q115 -3 181 49t66 146q0 45 -16.5 80t-47 59t-74 37t-97.5 13h-226v-10h14q20 0 26.5 -10.5t6.5 -38.5v-559q0 -28 -6.5 -38.5t-26.5 -10.5h-14v-10h184v10
h-15q-23 0 -30 10.5t-7 38.5v236z" />
    <glyph glyph-name="Q" unicode="Q" horiz-adv-x="719" 
d="M587 338q0 -134 -62 -220q-62 -84 -165 -84q-105 0 -166 84q-61 85 -61 220q0 137 61 220q61 85 166 85q104 0 165 -85q62 -85 62 -220zM673 -147l-14 4t-35 12t-45 20t-43 29q-36 30 -57 50.5t-28 30.5q84 25 138 85q88 97 88 254t-88 254q-87 98 -229 98
q-143 0 -230 -98t-87 -254q0 -157 87 -254q78 -86 207 -95q35 -44 107 -91q42 -27 81.5 -38t75.5 -16l28 -4q0 1 11 1t20.5 -0.5t11.5 -0.5z" />
    <glyph glyph-name="R" unicode="R" horiz-adv-x="615" 
d="M180 316l62 1q67 -50 96 -85q15 -18 42 -52t51 -72q9 -15 19.5 -34t18.5 -35.5t13.5 -27.5l5.5 -11h122v10q-20 0 -34.5 15.5t-26.5 38t-24.5 49t-29.5 48.5q-20 26 -37 48t-31 39t-36.5 39t-51.5 48q87 12 129.5 56t42.5 107q0 88 -59 133.5t-165 45.5h-239v-10h14
q20 0 26.5 -10.5t6.5 -38.5v-559q0 -28 -6.5 -38.5t-26.5 -10.5h-14v-10h182v10h-14q-23 0 -29.5 10.5t-6.5 38.5v257zM180 364v249q10 12 27.5 14.5t49.5 2.5q82 0 124 -29.5t42 -92.5q0 -72 -52 -108t-143 -36h-48z" />
    <glyph glyph-name="S" unicode="S" horiz-adv-x="531" 
d="M470 168q0 36 -11 65.5t-33 55t-53.5 47.5t-72.5 43l7 -3q-66 36 -114 73q-49 40 -49 85q0 46 32.5 76t83.5 30q70 0 111.5 -32.5t57.5 -80.5l15 1l-13 151h-11q-1 -5 -4.5 -11.5t-14.5 -7.5q-10 2 -25 6.5l-35 10.5q-39 13 -82 13q-81 0 -136 -49q-56 -50 -56 -118
q0 -76 50 -123q25 -23 55.5 -43.5t67.5 -40.5q32 -17 57.5 -34.5t45.5 -34.5q41 -35 41 -92q0 -26 -10.5 -48t-28.5 -38.5t-42.5 -25.5t-53.5 -9q-35 0 -64 10t-53 27t-41.5 39.5t-28.5 47.5l-10 -6l17 -151h12q0 4 3.5 10.5t13.5 7.5q11 -3 27 -7.5t39 -11.5q45 -12 92 -12
q90 0 151 52q63 52 63 128z" />
    <glyph glyph-name="T" unicode="T" horiz-adv-x="559" 
d="M323 59v567h130q32 0 50 -9q19 -8 30 -60h13l-3 120h-526l-4 -120h14q10 52 30 60q19 9 49 9h132v-567q0 -28 -7 -38.5t-31 -10.5h-16v-10h193v10h-16q-24 0 -31 10.5t-7 38.5z" />
    <glyph glyph-name="U" unicode="U" horiz-adv-x="698" 
d="M545 225q0 -88 -49 -137.5t-136 -49.5q-181 0 -181 199v381q0 28 6.5 38.5t29.5 10.5h14v10h-186v-10h15q22 0 29 -10.5t7 -38.5v-379q0 -121 66 -186t187 -65t187 64.5t66 184.5v350q0 45 7 62.5t30 17.5h15v10h-159v-10h15q23 0 30 -17.5t7 -62.5v-362z" />
    <glyph glyph-name="V" unicode="V" horiz-adv-x="673" 
d="M510 667q34 -1 39 -17l1 -9q0 -13 -7 -30l-188 -492l-204 514q-2 5 -3 8.5t-1 6.5q0 5 3 10q7 9 39 9v10h-177v-10q20 -1 32 -12t20 -31l258 -631h41l245 633q8 22 18 31.5t28 9.5v10h-144v-10z" />
    <glyph glyph-name="W" unicode="W" horiz-adv-x="941" 
d="M823 611l-155 -479l-164 500q-3 7 -3 14q0 9 8 14q13 7 35 7v10h-184v-10q20 0 29.5 -5.5t16.5 -20.5l32 -72l-139 -433l-160 497q-3 10 -3 17q0 9 6 12q12 5 30 5v10h-166v-10q19 -1 31.5 -12t21.5 -40l201 -622h44l164 510l166 -510h44q48 159 99.5 318t105.5 319
q7 21 17.5 28t27.5 9v10h-139v-10q32 -1 37 -17q2 -6 2 -12q0 -10 -5 -27z" />
    <glyph glyph-name="X" unicode="X" horiz-adv-x="673" 
d="M479 667q32 0 37 -11q2 -4 2 -7q0 -10 -12 -25l-161 -216l-149 215q-10 16 -10 27l1 5q3 12 42 12v10h-203v-10q23 -1 38 -9.5t33 -34.5l196 -277l-222 -294q-17 -23 -29 -31.5t-34 -10.5v-10h164v10q-23 0 -37 8q-5 5 -5 11q0 11 11 25l184 248l159 -238q16 -23 16 -36
q0 -3 -2 -7q-6 -11 -40 -11v-10h201v10q-22 3 -35 11t-31 34l-216 311l191 255q22 30 38.5 37.5t39.5 8.5v10h-167v-10z" />
    <glyph glyph-name="Y" unicode="Y" horiz-adv-x="673" 
d="M501 667q32 0 35 -12l1 -8q0 -6 -5 -16l-177 -279l-179 275q-5 8 -7 14t-2 11t3 8q10 7 37 7v10h-189v-10q9 0 15.5 -1.5t12.5 -5.5t13.5 -12.5t17.5 -23.5l221 -327v-238q0 -28 -7.5 -38.5t-33.5 -10.5h-16v-10h200v10h-17q-26 0 -33.5 10.5t-7.5 38.5v241l212 327
q14 21 28.5 29.5t33.5 10.5v10h-156v-10z" />
    <glyph glyph-name="Z" unicode="Z" horiz-adv-x="559" 
d="M438 48h-319l404 593v36h-483l-11 -121h14q7 48 31 61q24 12 58 12h289l-408 -594v-35h512l13 122h-12q-11 -42 -31.5 -58t-56.5 -16z" />
    <glyph glyph-name="bracketleft" unicode="[" horiz-adv-x="309" 
d="M150 657q0 9 10 14t25 5h85v37h-189v-876h189v37h-85q-15 0 -25 5t-10 14v764z" />
    <glyph glyph-name="backslash" unicode="\" horiz-adv-x="278" 
d="M228 -12h66l-246 702h-65z" />
    <glyph glyph-name="bracketright" unicode="]" horiz-adv-x="309" 
d="M159 657v-764q0 -9 -10 -14t-25 -5h-84v-37h188v876h-188v-37h84q15 0 25 -5t10 -14z" />
    <glyph glyph-name="asciicircum" unicode="^" horiz-adv-x="521" 
d="M101 282l159 323l159 -323h69l-198 395h-60l-198 -395h69z" />
    <glyph glyph-name="underscore" unicode="_" horiz-adv-x="500" 
d="M500 -224v50h-500v-50h500z" />
    <glyph glyph-name="grave" unicode="`" horiz-adv-x="284" 
d="M210 532q-8 8 -23 25.5t-36 43.5t-37 45t-27 30q-18 15 -35 15q-12 0 -23 -8q-14 -9 -14 -19q0 -9 13 -18q21 -12 63 -50q21 -19 40 -35t36 -30z" />
    <glyph glyph-name="a" unicode="a" horiz-adv-x="466" 
d="M322 150q0 -21 -9.5 -40.5t-26 -33.5t-38.5 -22.5t-48 -8.5q-43 0 -64.5 24t-21.5 62q0 24 10 42.5t29 32t46 23.5t61 19l62 16v-114zM325 72q1 -34 9.5 -55.5t25.5 -21.5q23 0 42 8.5t35 18.5l1 15q-2 -3 -11 -7t-15 -4q-10 0 -15 17.5t-5 45.5v245q0 153 -155 153
q-67 0 -111 -25q-45 -24 -51 -53q0 -30 22 -37q8 -2 11 -2q12 0 14 12l-2 21q13 21 43.5 34t64.5 13q45 0 69.5 -23.5t24.5 -75.5v-49q-27 -9 -58.5 -15t-63 -13.5t-61 -17.5t-52 -28t-36 -45.5t-13.5 -68.5q0 -27 9.5 -49.5t26.5 -39.5t42 -26.5t55 -9.5q38 0 78.5 19
t75.5 64z" />
    <glyph glyph-name="b" unicode="b" horiz-adv-x="522" 
d="M142 398v314l-19 1l-90 -27v-5l16 -3l9 1q9 0 10.5 -7.5t1.5 -23.5v-648h27l13 48q33 -33 68 -45.5t77 -12.5q98 0 162 73q65 74 65 182q0 109 -51 175q-51 67 -138 67q-41 0 -81.5 -19.5t-69.5 -69.5zM142 294q0 63 36 98.5t91 35.5q64 0 99.5 -56t35.5 -149
q0 -91 -36.5 -142t-105.5 -51q-50 0 -85 34q-35 35 -35 85v145z" />
    <glyph glyph-name="c" unicode="c" horiz-adv-x="444" 
d="M400 119q-8 -15 -45 -41q-35 -25 -85 -25q-74 0 -122 57q-47 58 -47 143q0 43 11.5 79t33 61.5t51.5 39.5t67 14q27 0 49.5 -9.5t31.5 -25.5q7 -28 24 -28l7 1q24 7 27 36q-10 27 -49 46q-42 20 -89 20q-102 0 -168 -72t-66 -183q0 -108 58 -175t155 -67q60 0 100.5 26.5
t65.5 71.5z" />
    <glyph glyph-name="d" unicode="d" horiz-adv-x="522" 
d="M377 68v-73l110 30v8q-23 0 -30.5 3.5t-7.5 21.5v654l-19 1l-100 -28v-5l26 -2l9 1q9 0 10.5 -7.5t1.5 -23.5v-230q-28 42 -62 55.5t-69 13.5q-93 0 -151 -72q-58 -71 -58 -184q0 -112 52.5 -176.5t148.5 -64.5q39 0 74.5 16.5t64.5 61.5zM376 172q0 -27 -9 -51
t-24.5 -42t-37 -28t-45.5 -10q-70 0 -109 57t-39 156q0 90 35.5 142.5t101.5 52.5q28 0 51.5 -12t40 -33t26 -50.5t9.5 -63.5v-118z" />
    <glyph glyph-name="e" unicode="e" horiz-adv-x="469" 
d="M428 116l-15 13q-13 -21 -55 -50q-40 -28 -95 -28q-78 0 -123 60q-41 56 -44 150h332l-1 10q-10 99 -53.5 157.5t-131.5 58.5q-94 0 -152 -73q-58 -71 -58 -186q0 -112 52.5 -175t148.5 -63q31 0 60.5 10.5t55 28t46 40.5t33.5 47zM98 302q8 59 34 93q37 48 99 48
q51 0 78 -37.5t32 -103.5h-243z" />
    <glyph glyph-name="f" unicode="f" horiz-adv-x="333" 
d="M185 47v388h120v41h-120v107q0 46 15.5 71t50.5 25q14 0 24 -5.5t17.5 -11.5t14.5 -11.5t16 -5.5q4 0 10 2q19 7 21 33q-2 14 -23.5 26t-57.5 12q-75 0 -117.5 -48t-42.5 -142v-52h-93v-41h93v-385q0 -24 -7 -33t-27 -9h-14v-8h157v8h-11q-17 0 -21.5 8t-4.5 31z" />
    <glyph glyph-name="g" unicode="g" 
d="M245 450q48 0 81 -45q16 -22 24.5 -50t8.5 -62q0 -51 -25.5 -80.5t-70.5 -29.5q-55 0 -86.5 42.5t-31.5 114.5q0 51 27 80.5t73 29.5zM72 311q0 -72 53 -120q6 -5 13.5 -11t17.5 -11q-14 -11 -27 -23t-24 -23q-25 -26 -25 -50q0 -34 51 -59q-20 -12 -37 -24.5t-31 -25.5
q-31 -28 -31 -69q0 -51 54.5 -81t147.5 -30q100 0 173 43q74 44 74 113q0 58 -52 86q-26 14 -56.5 21t-67.5 9q-36 1 -66.5 3.5t-52.5 6.5t-34.5 10.5t-12.5 17.5q0 19 24 39q18 15 33 19q27 -8 62 -8q72 0 121 49q50 50 50 122q0 19 -6.5 43t-12.5 38t-7 16l3.5 1.5t22.5 3
t59 1.5v49l-3 0.5t-6 0.5q-16 0 -32.5 -1.5t-33.5 -3.5q-14 -2 -28 -3t-29 -2q-41 29 -105 29q-78 0 -128 -49q-51 -50 -51 -127zM175 4q32 -5 59 -7.5t50 -3.5q75 -2 114.5 -17t39.5 -45q0 -46 -56 -69q-57 -23 -125 -23q-82 0 -120 22t-38 54q0 25 21 48t55 41z" />
    <glyph glyph-name="h" unicode="h" horiz-adv-x="522" 
d="M447 47v273q0 78 -38 122.5t-105 44.5q-51 0 -88 -23.5t-68 -69.5v318l-19 1l-87 -27v-5l15 -3l8 1q8 0 9.5 -7.5t1.5 -23.5v-598q0 -24 -5 -33t-20 -9h-10v-8h145v8h-11q-18 0 -22.5 8t-4.5 31v272q10 49 43.5 82t85.5 33q48 0 73 -31t25 -85v-268q0 -24 -5.5 -33
t-22.5 -9h-11v-8h145v8h-10q-16 0 -20 8t-4 31z" />
    <glyph glyph-name="i" unicode="i" horiz-adv-x="253" 
d="M88 657q0 -18 12 -32t30 -14t30 14t12 32t-12 32t-30 14t-30 -14t-12 -32zM161 47v435l-19 1l-98 -34v-5l20 -3l10 1q11 0 13 -7.5t2 -23.5v-361q0 -24 -6.5 -33t-24.5 -9h-13v-8h145v8h-8q-14 0 -17.5 8t-3.5 31z" />
    <glyph glyph-name="j" unicode="j" horiz-adv-x="251" 
d="M84 657q0 -18 12 -32t30 -14t30 14t12 32t-12 32t-30 14t-30 -14t-12 -32zM95 411v-470q0 -63 -10.5 -88.5t-43.5 -26.5q-17 0 -27.5 6t-19.5 14q-7 4 -14 4t-14 -4q-14 -8 -18 -31q4 -11 21.5 -21t54.5 -10q73 0 108 49.5t35 143.5v505l-19 -5l-97 -28v-5l20 -3l9 1
q11 0 13 -7.5t2 -23.5z" />
    <glyph glyph-name="k" unicode="k" horiz-adv-x="497" 
d="M36 681l20 -3l10 1q11 0 13 -7.5t2 -23.5v-598q0 -24 -6.5 -33t-24.5 -9h-13v-8h145v8h-8q-14 0 -17.5 8t-3.5 31v211l197 -232q6 -8 6 -14q0 -4 -10 -4v-8h145v8q-15 1 -31.5 10t-37.5 32l-206 232l163 146q15 13 26.5 21t21 12.5t19 5.5t20.5 1v8h-149v-7q25 0 26 -10
q0 -10 -19 -26l-171 -152v431l-19 1l-98 -27v-5z" />
    <glyph glyph-name="l" unicode="l" horiz-adv-x="253" 
d="M48 681l20 -3l10 1q11 0 13 -7.5t2 -23.5v-598q0 -24 -6.5 -33t-24.5 -9h-13v-8h145v8h-8q-14 0 -17.5 8t-3.5 31v665l-19 1l-98 -27v-5z" />
    <glyph glyph-name="m" unicode="m" horiz-adv-x="799" 
d="M728 47v273q0 78 -35 122.5t-101 44.5q-30 0 -56 -8t-47 -21.5t-36.5 -31t-24.5 -36.5q-8 43 -41 70t-76 27q-51 0 -89 -23.5t-70 -69.5v88l-19 -4l-86 -25v-5l16 -3l8 1q8 0 10 -8t2 -23v-365q0 -24 -6 -33t-22 -9h-12v-8h151v8h-11q-18 0 -23 8t-5 31v272q10 51 43 83
t87 32h-4q45 0 67 -30.5t22 -85.5v-268q0 -24 -5.5 -33t-22.5 -9h-11v-8h152v8h-12q-19 0 -24 8t-5 31v272q7 51 40 83t84 32h-4q46 0 70 -30.5t24 -85.5v-268q0 -24 -5.5 -33t-22.5 -9h-11v-8h149v8h-11q-18 0 -22.5 8t-4.5 31z" />
    <glyph glyph-name="n" unicode="n" horiz-adv-x="522" 
d="M443 47v273q0 78 -36.5 122.5t-102.5 44.5q-51 0 -87.5 -23.5t-68.5 -69.5v88l-19 -5l-86 -24v-5l16 -3l8 1q8 0 10 -8t2 -23v-365q0 -24 -5 -33t-19 -9h-10v-8h128v8h-6q-11 0 -13.5 8t-2.5 31v272q10 49 42.5 82t83.5 33q45 0 69.5 -31t24.5 -85v-268q0 -24 -5 -33
t-21 -9h-10v-8h127v8h-5q-9 0 -11.5 8t-2.5 31z" />
    <glyph glyph-name="o" unicode="o" 
d="M489 238q0 111 -63 180q-62 69 -165 69q-102 0 -165 -69q-62 -70 -62 -180t62 -180q62 -68 165 -68q102 0 165 68q63 69 63 180zM412 238q1 -91 -37 -151q-38 -59 -105 -59t-112 59q-22 29 -34 67t-13 84q-1 90 36 151q38 59 105 59q68 0 112 -59q22 -29 34 -67t14 -84z
" />
    <glyph glyph-name="p" unicode="p" horiz-adv-x="522" 
d="M146 56q20 -36 54 -51t69 -15q94 0 154 73t60 185q0 54 -12.5 98.5t-36.5 75.5t-58.5 48t-77.5 17q-42 0 -81.5 -19.5t-73.5 -70.5v85l-19 -4l-87 -25v-5l16 -3l9 1q8 0 10 -8t2 -23v-578q0 -24 -6 -33t-22 -9h-12v-8h162v8h-14q-22 0 -29 9t-7 33v219zM146 162v131
q0 30 9.5 55t26.5 43.5t39 28.5t48 10q66 0 102.5 -56t36.5 -150q0 -90 -36 -142.5t-102 -52.5q-55 0 -89 39q-35 39 -35 94z" />
    <glyph glyph-name="q" unicode="q" horiz-adv-x="522" 
d="M378 80v-243q0 -24 -7 -33t-29 -9h-14v-8h157v8h-10q-15 0 -20 9t-5 33l-1 642l-9 2l-54 -56q-29 35 -62.5 48.5t-69.5 13.5q-100 0 -160 -71q-59 -71 -59 -186q0 -111 48 -175.5t136 -64.5q42 0 86.5 20.5t72.5 69.5zM378 177q0 -56 -38 -94q-38 -36 -88 -36
q-33 0 -59.5 14t-44.5 40t-28 62.5t-10 81.5q0 94 38 148.5t110 54.5q54 0 87 -39.5t33 -106.5v-125z" />
    <glyph glyph-name="r" unicode="r" horiz-adv-x="327" 
d="M150 47v242q0 26 7.5 50t21.5 44q27 41 63 41q13 0 21.5 -2.5t18.5 -9.5l6 -1q8 0 19 8q15 10 15 35q-4 15 -15.5 24t-31.5 9q-38 0 -70 -25.5t-58 -80.5v101l-19 1l-89 -30v-5l17 -3l9 1q9 0 11 -8t2 -23v-365q0 -24 -6 -33t-22 -9h-12v-8h160v8h-14q-22 0 -28 8t-6 31z
" />
    <glyph glyph-name="s" unicode="s" horiz-adv-x="389" 
d="M349 125q0 27 -9 48.5t-26 39t-42 33t-57 31.5q-54 27 -80.5 48t-26.5 54q0 31 22.5 51.5t67.5 20.5q38 0 67.5 -22.5t44.5 -57.5l10 -1l-3 122h-5l-8 -26q-5 1 -16 3.5t-28 7.5q-33 10 -64 10q-32 0 -59 -9t-46.5 -25.5t-31 -40.5t-11.5 -54q0 -59 44 -94q43 -33 81 -51
q22 -11 42 -21.5t34.5 -23.5t23 -28t8.5 -35q0 -36 -28 -58.5t-68 -22.5q-48 0 -83 25.5t-45 68.5l-11 -5v-110h7q4 6 12 6q17 -4 52.5 -12t71.5 -8q69 0 115 38q45 39 45 98z" />
    <glyph glyph-name="t" unicode="t" horiz-adv-x="299" 
d="M163 125v310h109v41h-109v127q0 6 -0.5 6.5t-2.5 0.5l-28 -10q-8 -18 -15.5 -39.5t-13.5 -40t-10 -30.5l-4 -12l-73 -13v-30h75v-310q0 -70 23.5 -102.5t77.5 -32.5q34 0 61.5 15.5t36.5 30.5l-8 29q-9 -6 -23.5 -15t-36.5 -9q-59 0 -59 84z" />
    <glyph glyph-name="u" unicode="u" horiz-adv-x="522" 
d="M443 476h-116v-8h12q17 0 23.5 -9t6.5 -26v-266q0 -27 -9.5 -49t-26 -38.5t-40 -25.5t-50.5 -9q-45 0 -70.5 30.5t-25.5 82.5l2 318h-109v-8h10q14 0 19.5 -9t5.5 -26v-285q0 -75 37.5 -116.5t106.5 -41.5q52 0 88 23.5t67 71.5l1 -87l9 -2l89 25v8h-9q-23 0 -23 28z" />
    <glyph glyph-name="v" unicode="v" horiz-adv-x="475" 
d="M423 425q10 28 17 34.5t19 8.5v8h-107v-8q11 0 21 -7q5 -3 5 -11q0 -9 -6 -25l-119 -334l-123 344q-4 9 -4 18l1 5q5 9 25 10v8h-137v-8q10 0 19 -5.5t17 -25.5l166 -436q13 -7 23 -7q11 0 24 7z" />
    <glyph glyph-name="w" unicode="w" horiz-adv-x="747" 
d="M415 437l-1 9q0 9 4 13q6 7 29 9v8h-146v-8q16 -3 22 -8t14 -21l15 -43l-116 -308l-116 342q-4 11 -4 19q0 6 3 11q8 8 24 8v8h-128v-8q8 0 14 -6.5t12 -23.5l158 -437q11 -7 24 -7t24 7l131 341l120 -341q11 -7 24 -7t24 7l162 443q5 13 9.5 17.5t11.5 6.5v8h-97v-8
q15 -1 22 -10q3 -3 3 -9q0 -7 -5 -22l-121 -336z" />
    <glyph glyph-name="x" unicode="x" horiz-adv-x="475" 
d="M378 442q16 24 47 26v8h-120v-8q15 0 19 -7q3 -3 3 -7t-5 -12l-86 -131l-82 129q-5 10 -4 16v4q2 8 22 8v8h-148v-8q21 0 29.5 -8.5t15.5 -18.5l128 -191l-149 -219q-7 -10 -15.5 -16.5t-20.5 -6.5v-8h113v8q-19 0 -21 5l-1 4l2 6t3 7l115 178l109 -172q6 -9 6 -15
q0 -4 -3 -7q-6 -6 -20 -6v-8h145v8q-25 0 -45 31l-151 231z" />
    <glyph glyph-name="y" unicode="y" horiz-adv-x="475" 
d="M354 468q12 0 20 -4q6 -3 6 -11l-123 -354l-133 342q-2 8 -2 11q0 8 6 11q12 5 27 5v8h-143v-8q10 -1 17.5 -4t11.5 -13l179 -440l-15 -48q-34 -107 -84 -107l-21 6l-40 4q-10 -3 -19.5 -17.5t-9.5 -29.5q4 -13 23 -24t48 -11q52 0 88 48q35 45 58 110l186 505
q5 13 11 16.5t14 4.5v8h-105v-8z" />
    <glyph glyph-name="z" unicode="z" horiz-adv-x="444" 
d="M52 476l-2 -89h10q3 34 14.5 41t28.5 7h212l-285 -403v-32h377l8 98l-10 2q-8 -44 -22 -51q-16 -8 -45 -8h-219l286 402v33h-353z" />
    <glyph glyph-name="braceleft" unicode="{" horiz-adv-x="396" 
d="M76 263q81 -14 81 -114v-184q0 -56 27 -92q28 -36 108 -36h25v28h-24q-25 2 -46.5 25.5t-21.5 72.5v171q0 34 -5.5 57.5t-17 39t-29 25.5t-41.5 18q49 17 70 44q23 29 23 97v172q0 49 22 72.5t46 25.5h24v28h-25q-80 0 -108 -36q-27 -36 -27 -92v-185q0 -100 -81 -114
v-23z" />
    <glyph glyph-name="bar" unicode="|" horiz-adv-x="209" 
d="M72 -20h66v735h-66v-735z" />
    <glyph glyph-name="braceright" unicode="}" horiz-adv-x="396" 
d="M319 286q-81 14 -81 114v185q0 57 -28 92q-27 36 -106 36h-25v-28h24q24 -2 45.5 -25.5t21.5 -72.5v-172q0 -68 23 -97q21 -27 70 -44q-24 -8 -41.5 -18t-29 -25.5t-17 -39t-5.5 -57.5v-171q0 -49 -21.5 -72.5t-45.5 -25.5h-24v-28h25q79 0 106 36q28 35 28 92v184
q0 100 81 114v23z" />
    <glyph glyph-name="asciitilde" unicode="~" horiz-adv-x="568" 
d="M177 255q32 0 102 -35t113 -35q45 0 75 26t49 63l-38 48q-17 -30 -38.5 -50.5t-48.5 -20.5q-32 0 -102 35t-112 35q-45 0 -75.5 -26t-48.5 -63l37 -48q15 30 37.5 50.5t49.5 20.5z" />
    <glyph glyph-name="exclamdown" unicode="&#xa1;" horiz-adv-x="358" 
d="M171 393q15 0 24.5 1.5t14 6t6 14t1.5 24.5t-1.5 24.5t-6 14t-14 6t-25.5 1.5q-15 0 -24.5 -1.5t-14 -6t-6 -14t-1.5 -24.5t1.5 -24.5t6 -14t14 -6t25.5 -1.5zM122 -162q0 -18 11 -31.5t34 -13.5q24 0 33 13.5t15 31.5q-2 63 -12 162l-10 100t-6 102l-2 106h-33l-1 -107
q-1 -51 -6 -101t-11 -100q-11 -99 -12 -162z" />
    <glyph glyph-name="cent" unicode="&#xa2;" 
d="M185 -116l39 115q24 -9 64 -9q60 0 102 26.5t67 71.5l-10 31q-10 -16 -47 -41q-35 -25 -85 -25q-40 0 -68 14l124 364q15 -9 21 -19q7 -28 24 -28l7 1q24 7 27 36q-9 26 -50 46q-4 2 -14 6l37 110h-40l-34 -99q-17 3 -40 3q-103 0 -170 -72q-66 -72 -66 -183
q0 -108 59 -176q22 -24 57 -45l-44 -127h40zM214 87q-14 12 -23 23q-48 57 -48 143q0 43 11.5 79t33.5 61.5t52 39.5t68 14q14 0 28 -3z" />
    <glyph glyph-name="sterling" unicode="&#xa3;" 
d="M36 30q0 -15 25 -24t71 -9t82 33q21 -11 49.5 -21.5t57.5 -10.5q75 0 122 30q47 32 47 46l-4 3l1 26l-10 -6q-13 -12 -59 -20.5t-115 -8.5q-25 0 -49 6t-41 14q2 17 5 36.5t5 41.5q2 23 3.5 41.5t1.5 32.5l-2 97h143v48h-143l-6 94q-5 87 29 127.5t91 40.5q28 0 48.5 -9
t29.5 -30v-8q0 -26 23 -28q21 0 26 27l4 27q-9 29 -42.5 45.5t-79.5 16.5q-103 0 -154 -68q-25 -34 -39.5 -77t-10.5 -97l4 -61h-102v-48h101l10 -101l-1 -141l-70 3q-24 1 -37.5 -11t-13.5 -30v-27zM166 58q-8 -32 -34 -32q-23 0 -23 19q0 12 7.5 16.5t18.5 4.5
q5 0 13.5 -1.5t17.5 -6.5z" />
    <glyph glyph-name="currency" unicode="&#xa4;" horiz-adv-x="664" 
d="M16 242h94q19 -93 82 -159q92 -95 247 -95q66 0 122 19t104 61l-14 37q-37 -33 -89 -50t-106 -17q-124 0 -194 81q-44 52 -60 123h286l9 53h-303q-1 11 -1.5 22t-0.5 22q0 17 1 33t3 31h317l9 54h-315q18 58 54 102q70 82 190 82q28 0 55.5 -7t53.5 -20q27 -14 48 -36
t37 -57l11 3l-1 29l-6 136h-11q-2 -9 -9 -18.5t-15 -9.5q-10 3 -27 7.5t-42 9.5q-50 12 -106 12q-148 0 -244 -99q-55 -56 -79 -134h-67l-8 -54h64q-2 -15 -3.5 -31.5t-1.5 -33.5q0 -11 0.5 -21.5t1.5 -21.5h-78z" />
    <glyph glyph-name="currency" unicode="&#x20ac;" horiz-adv-x="664" 
d="M16 242h94q19 -93 82 -159q92 -95 247 -95q66 0 122 19t104 61l-14 37q-37 -33 -89 -50t-106 -17q-124 0 -194 81q-44 52 -60 123h286l9 53h-303q-1 11 -1.5 22t-0.5 22q0 17 1 33t3 31h317l9 54h-315q18 58 54 102q70 82 190 82q28 0 55.5 -7t53.5 -20q27 -14 48 -36
t37 -57l11 3l-1 29l-6 136h-11q-2 -9 -9 -18.5t-15 -9.5q-10 3 -27 7.5t-42 9.5q-50 12 -106 12q-148 0 -244 -99q-55 -56 -79 -134h-67l-8 -54h64q-2 -15 -3.5 -31.5t-1.5 -33.5q0 -11 0.5 -21.5t1.5 -21.5h-78z" />
    <glyph glyph-name="yen" unicode="&#xa5;" 
d="M51 223v-42h164v-122q0 -28 -5.5 -38.5t-25.5 -10.5h-12v-10h161v10h-12q-20 0 -25.5 10.5t-5.5 38.5v122h161v42h-161v79l5 9h156v42h-134l142 263q14 24 28 36t34 16v10h-133v-10q31 0 32 -13q0 -5 -3 -11.5t-8 -15.5l-145 -274l-144 269q-13 19 -13 29q0 4 2 6
q7 8 31 10v10h-159v-10q7 0 12.5 -2t11 -6.5t12 -12.5t16.5 -22l151 -272h-133v-42h157l7 -13v-75h-164z" />
    <glyph glyph-name="brokenbar" unicode="&#xa6;" horiz-adv-x="209" 
d="M72 -20h66v279h-66v-279zM72 435h66v280h-66v-280z" />
    <glyph glyph-name="section" unicode="&#xa7;" 
d="M208 400q22 -4 50.5 -20t50.5 -30q75 -51 75 -109q0 -26 -19.5 -51t-52.5 -35q-21 5 -50.5 20t-50.5 30q-75 51 -75 110q0 26 20 51t52 34zM324 133q51 13 84 48.5t33 84.5q0 51 -30.5 90t-96.5 81l-46 18q-31 22 -51 39t-31 28q-21 24 -21 56q0 38 32 58q32 19 70 19
q12 0 26 -2t26.5 -6t22.5 -10t16 -13q-1 -4 -10 -11t-9 -18q0 -24 27 -24q27 1 27 28l3 26q-11 29 -47 47t-87 18q-66 0 -112 -36t-46 -97q0 -42 25 -75.5t67 -59.5q-51 -13 -84 -48.5t-33 -84.5q0 -51 31 -90t97 -81l45 -18q31 -22 51 -39t31 -29q21 -24 21 -54
q0 -39 -36 -58q-35 -19 -77 -19q-15 0 -30.5 2t-29.5 6t-25.5 9.5t-17.5 13.5q1 4 10 11t9 18q0 24 -27 24q-27 -2 -27 -28l-3 -26q12 -29 51 -47t93 -18q71 0 121 36t50 97q0 42 -25 75t-67 59z" />
    <glyph glyph-name="dieresis" unicode="&#xa8;" horiz-adv-x="698" 
d="M256 735q-18 0 -30.5 -13.5t-12.5 -31.5t12.5 -31.5t30.5 -13.5t30 13.5t13 31.5q1 23 -12 34t-31 11zM443 735q-18 0 -30.5 -13.5t-12.5 -31.5t12.5 -31.5t30.5 -13.5t30.5 13.5t12.5 31.5q0 20 -12.5 32.5t-30.5 12.5z" />
    <glyph glyph-name="copyright" unicode="&#xa9;" horiz-adv-x="778" 
d="M388 687q-144 0 -247 -103q-102 -102 -102 -247q0 -144 102 -246q103 -102 248 -102q144 0 246 102q103 102 103 247q0 143 -103 246t-247 103zM389 643q118 0 204 -90q85 -88 85 -216q0 -127 -85 -216q-86 -89 -205 -89q-118 0 -204 89q-85 89 -85 217q0 127 85 215
q85 90 205 90zM556 423v40q-5 42 -48 64q-44 23 -98 23q-99 0 -158 -59q-58 -58 -58 -150q0 -48 15.5 -86.5t43 -65.5t67 -41.5t87.5 -14.5q23 0 46 6t43 17t35.5 26t23.5 33l12 46h-36q-9 -37 -39.5 -65t-78.5 -28q-36 0 -63.5 13t-46 36t-28 54.5t-9.5 68.5q0 38 9 70
t26 55t43 36t61 13q52 0 81.5 -27.5t35.5 -63.5h34z" />
    <glyph glyph-name="ordfeminine" unicode="&#xaa;" horiz-adv-x="296" 
d="M202 488q0 -26 -23.5 -44.5t-58.5 -18.5q-29 0 -43.5 14.5t-14.5 37.5q0 29 26.5 44.5t71.5 25.5l42 9v-68zM204 441q0 -20 6 -33.5t17 -13.5q16 0 28.5 5.5t23.5 11.5v9l-17 -6q-7 0 -10 10.5t-3 26.5v147q0 92 -104 92q-45 0 -75 -14.5t-34 -32.5q0 -18 15 -22l7 -1
q9 0 10 7l-2 13q9 12 29.5 20t43.5 8q29 0 46 -14t17 -45v-30l-67 -20q-57 -7 -90.5 -29t-33.5 -64q0 -31 24 -53t66 -22q25 0 52 12t51 38z" />
    <glyph glyph-name="guillemotleft" unicode="&#xab;" 
d="M332 245q33 45 66.5 92t63.5 95q-5 7 -15 8l-8 1q-7 0 -14 -3q-42 -51 -84 -97t-87 -94v-4q45 -48 87 -94t84 -97q11 -5 17 -4h5q11 3 15 10q-30 48 -63.5 95t-66.5 92zM150 245q33 45 66.5 92t63.5 95q-5 7 -15 8l-8 1q-7 0 -14 -3q-42 -51 -84 -97t-87 -94v-4
q45 -48 87 -94t84 -97q11 -5 17 -4h5q11 3 15 10q-30 48 -63.5 95t-66.5 92z" />
    <glyph glyph-name="logicalnot" unicode="&#xac;" horiz-adv-x="579" 
d="M475 113h66v274h-504v-66h438v-208z" />
    <glyph glyph-name="registered" unicode="&#xae;" horiz-adv-x="778" 
d="M332 353v150h61q32 0 53.5 -17t21.5 -52q0 -36 -15.5 -58.5t-55.5 -22.5h-65zM388 687q-144 0 -247 -103q-102 -102 -102 -247q0 -144 102 -246q103 -102 248 -102q144 0 246 102q103 102 103 247q0 143 -103 246t-247 103zM389 643q118 0 204 -90q85 -88 85 -216
q0 -127 -85 -216q-86 -89 -205 -89q-118 0 -204 89q-85 89 -85 217q0 127 85 215q85 90 205 90zM359 146v14q-27 2 -27 27v131h53q32 -51 51.5 -82.5t29.5 -44.5q17 -22 41 -45h65v4l-30 31l-100 142q43 6 69 38t26 74t-30 72t-98 30h-171v-14q28 -2 28 -27v-309
q0 -25 -28 -27v-14h121z" />
    <glyph glyph-name="glyph147" unicode="&#xaf;" horiz-adv-x="656" 
d="M307 18l-86 94h154q19 0 30.5 -2t15.5 -4l2 -1q4 -6 -9 -19l3 -3l72 71l-3 4q-12 -11 -35 -11l-218 4l1 183q0 13 2.5 19t10.5 15l-3 4l-63 -64l3 -3l3 2q10 12 16 6q5 -6 5 -26l-3 -168l-87 87q-9 9 -10.5 15t6.5 14l4 4h60v4h-5q-9 0 -11.5 4t-2.5 15v131q5 24 20.5 40
t41.5 16q21 0 31.5 -15t10.5 -41v-130q0 -20 -14 -20h-5v-4h73v4h-5q-9 0 -11.5 4t-2.5 15v131q3 24 18.5 40t40.5 16q21 0 32.5 -15t11.5 -41v-130q0 -11 -2.5 -15.5t-11.5 -4.5h-5v-4h72v4h-5q-9 0 -11 4t-2 15v132q0 38 -17 59t-49 21q-29 0 -50 -14t-29 -32
q-4 20 -20 33t-37 13q-46 0 -76 -44v42l-10 -2l-41 -12v-2l8 -2l3 1q5 0 5.5 -4t0.5 -11v-177q0 -20 -13 -20h-6v-4h7l-60 -59l3 -4l5 5q8 8 14 6.5t15 -10.5l191 -191q10 -10 11.5 -15.5t-6.5 -13.5l-5 -5l3 -4l63 64l-3 3l-5 -5q-3 -3 -7.5 -2.5t-9.5 2.5t-9 4.5t-5 3.5z
M533 485q0 -7 -1.5 -18t-3.5 -28t-3.5 -25.5t-1.5 -10.5q0 -12 18 -12t18 12q0 2 -1.5 10.5t-3.5 25.5t-3 28t-1 18q5 -3 14.5 -9.5t22.5 -17.5q14 -11 21 -16t8 -6q4 -2 6 -2q8 0 14 11q4 7 4 13q0 5 -6 10l-34 13t-41 19q11 9 41 19q32 12 34 14q6 4 6 10q0 7 -4 12
q-6 11 -14 11q-4 0 -6 -1q-2 -2 -29 -23q-26 -21 -37 -26q0 6 1 17t3 28t3.5 25.5t1.5 10.5q0 13 -18 13t-18 -13q0 -2 1.5 -10.5t3.5 -25.5t3.5 -28t1.5 -17q-10 4 -38 26q-26 22 -29 23q-1 1 -5 1q-7 0 -15 -11q-4 -5 -4 -12q0 -6 6 -10q2 -1 10.5 -4.5t24.5 -9.5
q30 -10 40 -19q-5 -4 -15 -8.5t-25 -10.5q-16 -6 -24.5 -9t-10.5 -4q-6 -5 -6 -11q0 -5 4 -12q8 -11 15 -11q3 0 5 2q2 1 9 6t20 16q26 20 38 27z" />
    <glyph glyph-name="degree" unicode="&#xb0;" horiz-adv-x="400" 
d="M200 692q-62 0 -106 -44t-44 -106t44 -106t106 -44t106 44t44 106t-44 106t-106 44zM200 650q22 0 42 -8.5t34.5 -23t23 -34.5t8.5 -42q0 -23 -8.5 -42.5t-23 -34t-34.5 -23t-42 -8.5q-23 0 -42.5 8.5t-34 23t-23 34t-8.5 42.5q0 22 8.5 42t23 34.5t34 23t42.5 8.5z" />
    <glyph glyph-name="plusminus" unicode="&#xb1;" horiz-adv-x="579" 
d="M256 342h-219v-67h219v-163h66v163h219v67h-219v164h-66v-164zM37 0h504v67h-504v-67z" />
    <glyph glyph-name="twosuperior" unicode="&#xb2;" horiz-adv-x="327" 
d="M19 274h261l20 59l-4 3q-5 -9 -12 -15.5t-19 -6.5h-187l120 120q10 10 22.5 25t26.5 35q30 42 30 87q0 22 -9 41.5t-25.5 34t-39 22.5t-49.5 8q-24 0 -45.5 -6.5t-38.5 -18t-28.5 -25.5t-14.5 -29l10 -18q10 21 36.5 39t66.5 18q37 0 61.5 -22.5t24.5 -57.5
q0 -36 -24 -73q-11 -18 -21 -32.5t-21 -25.5l-141 -142v-20z" />
    <glyph glyph-name="threesuperior" unicode="&#xb3;" horiz-adv-x="327" 
d="M45 605q12 17 38 32t61 15q38 0 62.5 -18.5t24.5 -46.5q0 -42 -34.5 -64.5t-91.5 -30.5h-9l1 -21l30 1q58 2 87.5 -21.5t29.5 -65.5q0 -39 -28.5 -64.5t-71.5 -25.5q-28 0 -49.5 7t-31.5 13l-10 1q-9 0 -14 -4q-10 -6 -10 -19q3 -10 27 -18t61 -8q38 0 69.5 9.5
t54.5 26.5t35.5 41t12.5 53q0 43 -23.5 70.5t-66.5 35.5q35 15 56.5 38t21.5 55q0 42 -32.5 66.5t-86.5 24.5q-48 0 -78.5 -19.5t-41.5 -43.5z" />
    <glyph glyph-name="acute" unicode="&#xb4;" horiz-adv-x="284" 
d="M74 532l43 -1q17 14 36 30.5t40 34.5q21 19 37 31t27 19q13 9 13 18q0 10 -14 19q-11 8 -23 8q-17 0 -35 -15q-11 -11 -27 -30t-37 -45q-42 -53 -60 -69z" />
    <glyph glyph-name="mu" unicode="&#xb5;" horiz-adv-x="522" 
d="M448 476h-116v-8h12q17 0 23.5 -9t6.5 -26v-266q0 -27 -10 -49t-27.5 -38.5t-42 -25.5t-52.5 -9q-48 0 -75 30.5t-27 82.5l2 318h-109v-8h10q14 0 19.5 -9t5.5 -26v-292l-13 -314q8 -41 39 -41t39 41q0 54 -8.5 108t-12.5 108q16 -23 46.5 -38t70.5 -15q51 0 85.5 23.5
t64.5 71.5l1 -87l9 -2l89 25v8h-9q-23 0 -23 28z" />
    <glyph glyph-name="paragraph" unicode="&#xb6;" horiz-adv-x="513" 
d="M426 -74v694q0 17 4 26t10.5 13.5t15.5 5t19 0.5v12h-263q-99 0 -151.5 -47.5t-52.5 -138.5q0 -94 52 -145.5t148 -51.5v-368q0 -30 -15 -36.5t-35 -8.5v-12h113v772h92v-772h113v12q-20 2 -35 8.5t-15 36.5zM208 326q-58 0 -95.5 41t-37.5 127q0 81 35 114t98 33v-315z
" />
    <glyph glyph-name="glyph155" unicode="&#xb7;" horiz-adv-x="262" 
d="M132 322q-17 0 -26.5 -1.5t-14 -6t-6 -14.5t-1.5 -26q0 -17 1.5 -26.5t6 -14t14 -6t26.5 -1.5q16 0 26 1.5t14.5 6t6 14t1.5 26.5q0 16 -1.5 26t-6 14.5t-14.5 6t-26 1.5z" />
    <glyph glyph-name="glyph155" unicode="&#x2219;" horiz-adv-x="262" 
d="M132 322q-17 0 -26.5 -1.5t-14 -6t-6 -14.5t-1.5 -26q0 -17 1.5 -26.5t6 -14t14 -6t26.5 -1.5q16 0 26 1.5t14.5 6t6 14t1.5 26.5q0 16 -1.5 26t-6 14.5t-14.5 6t-26 1.5z" />
    <glyph glyph-name="cedilla" unicode="&#xb8;" horiz-adv-x="284" 
d="M31 -182q14 -6 39 -12.5t56 -6.5q54 0 84 20t30 58q0 30 -21.5 48.5t-55.5 18.5l-32 -4l24 65h-31l-37 -97l4 -3l35 4q45 0 45 -35q0 -20 -14 -31t-38 -11q-29 0 -50 8t-27 11z" />
    <glyph glyph-name="onesuperior" unicode="&#xb9;" horiz-adv-x="327" 
d="M199 302l-1 382l-20 1l-108 -65l11 -16l50 33q8 0 13.5 -2.5t5.5 -12.5v-318q0 -14 -4.5 -19.5t-20.5 -5.5l-10 -5l118 5h-9q-17 0 -21 4.5t-4 18.5z" />
    <glyph glyph-name="ordmasculine" unicode="&#xba;" horiz-adv-x="331" 
d="M318 541q0 33 -11 60.5t-31 47t-48.5 30.5t-62.5 11t-62 -11t-48 -30.5t-31 -47t-11 -60.5q0 -67 41.5 -108.5t110.5 -41.5q34 0 62 11t48.5 30.5t31.5 47.5t11 61zM266 541q2 -55 -24 -90.5t-71 -35.5q-23 0 -42 9.5t-33.5 26t-22.5 40t-9 50.5q-1 55 24 90.5t71 35.5
q22 0 41.5 -9.5t33.5 -26t22.5 -40t9.5 -50.5z" />
    <glyph glyph-name="guillemotright" unicode="&#xbb;" 
d="M376 245q-34 -45 -67 -92t-63 -95q3 -7 13 -10l6 -1l8 2t9 3l172 191v4l-172 191q-8 3 -15 3l-8 -1q-10 -1 -13 -8q30 -48 63 -95t67 -92zM194 245q-34 -45 -67 -92t-63 -95q3 -7 13 -10l6 -1l8 2t9 3l172 191v4l-172 191q-8 3 -15 3l-8 -1q-10 -1 -13 -8q30 -48 63 -95
t67 -92z" />
    <glyph glyph-name="onequarter" unicode="&#xbc;" horiz-adv-x="787" 
d="M183 302l-1 382l-20 1l-108 -65l11 -16l50 33q8 0 13.5 -2.5t5.5 -12.5v-318q0 -14 -4.5 -19.5t-20.5 -5.5l-10 -5l118 5h-9q-17 0 -21 4.5t-4 18.5zM142 -17h51l435 711h-50zM628 411l-205 -273v-39h199v-99l46 5v94h68v36h-68v276h-40zM622 361v-226h-166z" />
    <glyph glyph-name="onehalf" unicode="&#xbd;" horiz-adv-x="787" 
d="M175 302l-1 382l-20 1l-108 -65l11 -16l50 33q8 0 13.5 -2.5t5.5 -12.5v-318q0 -14 -4.5 -19.5t-20.5 -5.5l-10 -5l118 5h-9q-17 0 -21 4.5t-4 18.5zM112 -17h51l435 711h-50zM476 0h261l20 59l-4 3q-5 -9 -12 -15.5t-19 -6.5h-187l120 120q10 10 22.5 25t26.5 35
q30 42 30 87q0 22 -9 41.5t-25.5 34t-39 22.5t-49.5 8q-24 0 -45.5 -6.5t-38.5 -18t-28.5 -25.5t-14.5 -29l10 -18q10 21 36.5 39t66.5 18q37 0 61.5 -22.5t24.5 -57.5q0 -36 -24 -73q-11 -18 -21 -32.5t-21 -25.5l-141 -142v-20z" />
    <glyph glyph-name="threequarters" unicode="&#xbe;" horiz-adv-x="787" 
d="M56 605q12 17 38 32t61 15q38 0 62.5 -18.5t24.5 -46.5q0 -42 -34.5 -64.5t-91.5 -30.5h-9l1 -21l30 1q58 2 87.5 -21.5t29.5 -65.5q0 -39 -28.5 -64.5t-71.5 -25.5q-28 0 -49.5 7t-31.5 13l-10 1q-9 0 -14 -4q-10 -6 -10 -19q3 -10 27 -18t61 -8q38 0 69.5 9.5
t54.5 26.5t35.5 41t12.5 53q0 43 -23.5 70.5t-66.5 35.5q35 15 56.5 38t21.5 55q0 42 -32.5 66.5t-86.5 24.5q-48 0 -78.5 -19.5t-41.5 -43.5zM173 -17h51l435 711h-50zM642 411l-205 -273v-39h199v-99l46 5v94h68v36h-68v276h-40zM636 361v-226h-166z" />
    <glyph glyph-name="questiondown" unicode="&#xbf;" horiz-adv-x="466" 
d="M238 -210q59 0 101 31q42 32 52 57q0 12 -4.5 25t-23.5 13q-8 0 -15 7q-3 4 -4 4q-2 0 -2 -5q0 -10 10.5 -21t10.5 -19q-5 -9 -16.5 -18t-27 -16t-34 -11t-36.5 -4q-57 0 -90 35t-33 89q0 19 5 41.5t13 45.5t19.5 45.5t24.5 41.5q34 49 51 89.5t17 87.5v8h-37v-8
q0 -44 -18.5 -82t-59.5 -85q-14 -16 -29.5 -35.5t-31.5 -43.5q-31 -47 -31 -107q0 -67 48 -116t141 -49zM236 392q15 0 24.5 1.5t14 6t6 14t1.5 24.5t-1.5 24.5t-6.5 14t-14.5 6t-24.5 1.5t-24.5 -1.5t-14 -6t-6 -14t-1.5 -24.5t1.5 -24.5t6 -14t14 -6t25.5 -1.5z" />
    <glyph glyph-name="Agrave" unicode="&#xc0;" horiz-adv-x="698" 
d="M465 253h-264l132 326zM680 10q-12 2 -21.5 7t-21.5 26l-266 641h-45l-256 -615q-11 -25 -22 -41t-33 -18v-10h140v10q-24 0 -34 10q-4 4 -4 13q0 10 8 31l56 140h301l62 -152q6 -13 4 -22q0 -8 -4 -12q-10 -8 -34 -8v-10h170v10zM418 722q-8 8 -23 25.5t-36 43.5t-37 45
t-27 30q-18 15 -35 15q-12 0 -23 -8q-14 -9 -14 -19q0 -9 13 -18q21 -12 63 -50q21 -19 40 -35t36 -30z" />
    <glyph glyph-name="Aacute" unicode="&#xc1;" horiz-adv-x="698" 
d="M465 253h-264l132 326zM680 10q-12 2 -21.5 7t-21.5 26l-266 641h-45l-256 -615q-11 -25 -22 -41t-33 -18v-10h140v10q-24 0 -34 10q-4 4 -4 13q0 10 8 31l56 140h301l62 -152q6 -13 4 -22q0 -8 -4 -12q-10 -8 -34 -8v-10h170v10zM282 722l43 -1q17 14 36 30.5t40 34.5
q21 19 37 31t27 19q13 9 13 18q0 10 -14 19q-11 8 -23 8q-17 0 -35 -15q-11 -11 -27 -30t-37 -45q-42 -53 -60 -69z" />
    <glyph glyph-name="Acircumflex" unicode="&#xc2;" horiz-adv-x="698" 
d="M465 253h-264l132 326zM680 10q-12 2 -21.5 7t-21.5 26l-266 641h-45l-256 -615q-11 -25 -22 -41t-33 -18v-10h140v10q-24 0 -34 10q-4 4 -4 13q0 10 8 31l56 140h301l62 -152q6 -13 4 -22q0 -8 -4 -12q-10 -8 -34 -8v-10h170v10zM205 722l37 -1l108 103l108 -103l37 1
l-111 155h-68z" />
    <glyph glyph-name="Atilde" unicode="&#xc3;" horiz-adv-x="698" 
d="M465 253h-264l132 326zM680 10q-12 2 -21.5 7t-21.5 26l-266 641h-45l-256 -615q-11 -25 -22 -41t-33 -18v-10h140v10q-24 0 -34 10q-4 4 -4 13q0 10 8 31l56 140h301l62 -152q6 -13 4 -22q0 -8 -4 -12q-10 -8 -34 -8v-10h170v10zM500 844h-31q-17 -41 -46 -41
q-13 0 -28 4t-34 14q-38 19 -70 19q-35 0 -60 -26t-33 -68h32q17 41 46 41q23 0 61 -19q19 -10 36 -14t34 -4q36 0 60.5 26t32.5 68z" />
    <glyph glyph-name="Adieresis" unicode="&#xc4;" horiz-adv-x="698" 
d="M465 253h-264l132 326zM680 10q-12 2 -21.5 7t-21.5 26l-266 641h-45l-256 -615q-11 -25 -22 -41t-33 -18v-10h140v10q-24 0 -34 10q-4 4 -4 13q0 10 8 31l56 140h301l62 -152q6 -13 4 -22q0 -8 -4 -12q-10 -8 -34 -8v-10h170v10zM256 835q-18 0 -30.5 -13.5t-12.5 -31.5
t12.5 -31.5t30.5 -13.5t30 13.5t13 31.5q1 23 -12 34t-31 11zM443 835q-18 0 -30.5 -13.5t-12.5 -31.5t12.5 -31.5t30.5 -13.5t30.5 13.5t12.5 31.5q0 20 -12.5 32.5t-30.5 12.5z" />
    <glyph glyph-name="Aring" unicode="&#xc5;" horiz-adv-x="698" 
d="M465 253h-264l132 326zM680 10q-12 2 -21.5 7t-21.5 26l-266 641h-45l-256 -615q-11 -25 -22 -41t-33 -18v-10h140v10q-24 0 -34 10q-4 4 -4 13q0 10 8 31l56 140h301l62 -152q6 -13 4 -22q0 -8 -4 -12q-10 -8 -34 -8v-10h170v10zM345 905q-20 0 -37.5 -8t-31 -21.5
t-21.5 -31t-8 -37.5t8 -37.5t21.5 -31t31 -21.5t37.5 -8t37.5 8t31 21.5t21 31t7.5 37.5t-7.5 37.5t-21 31t-31 21.5t-37.5 8zM345 871q27 0 45 -18.5t18 -45.5t-18 -45.5t-45 -18.5t-45.5 18.5t-18.5 45.5t18.5 45.5t45.5 18.5z" />
    <glyph glyph-name="AE" unicode="&#xc6;" horiz-adv-x="883" 
d="M429 626v-352h-196zM429 226v-167q0 -28 -6.5 -38.5t-26.5 -10.5h-14v-10h436l25 119h-16q-10 -23 -21 -36.5t-24.5 -21.5t-31.5 -10.5t-42 -2.5h-145q-28 0 -38.5 2.5t-10.5 16.5v261h183q19 0 31.5 -2.5t19 -8.5t9.5 -16t5 -25h13v151h-13q-3 -30 -14.5 -40t-50.5 -10
h-183v229q0 15 2 19t20 4h182q34 0 52 -7q19 -7 25 -48h14l-1 103h-477v-11q33 0 44 -8q8 -5 8 -11q0 -4 -3 -8l-328 -577q-11 -20 -21.5 -34.5t-30.5 -17.5v-10h134v10q-8 1 -14.5 3t-13.5 4q-4 1 -4 8q0 11 14 37l92 164h221z" />
    <glyph glyph-name="Ccedilla" unicode="&#xc7;" horiz-adv-x="664" 
d="M132 339q0 137 69 220q70 82 190 82q28 0 55.5 -7t53.5 -20q54 -27 85 -96l-4 7l11 3l-3 151h-11q-5 -18 -24 -18q-10 3 -27 7.5t-42 9.5q-50 12 -106 12q-148 0 -244 -99q-95 -100 -95 -253q0 -160 92 -255t247 -95q66 0 122 19t104 61l-14 37q-37 -33 -89 -50t-106 -17
q-124 0 -194 81q-70 80 -70 220zM241 -182q14 -6 39 -12.5t56 -6.5q54 0 84 20t30 58q0 30 -21.5 48.5t-55.5 18.5l-32 -4l24 65h-31l-37 -97l4 -3l35 4q45 0 45 -35q0 -20 -14 -31t-38 -11q-29 0 -50 8t-27 11z" />
    <glyph glyph-name="Egrave" unicode="&#xc8;" horiz-adv-x="559" 
d="M502 0l25 119h-16q-10 -23 -21 -36.5t-25 -21.5t-31.5 -10.5t-41.5 -2.5h-165q-29 0 -39 2.5t-10 16.5v261h203q19 0 31.5 -2.5t19 -8.5t9.5 -16t5 -25h13v151h-13q-3 -30 -14.5 -40t-50.5 -10h-203v229q0 15 2 19t20 4h202q33 0 51 -7q20 -8 26 -48h14l-1 103h-446v-10
h14q20 0 26.5 -10.5t6.5 -38.5v-559q0 -28 -6.5 -38.5t-26.5 -10.5h-14v-10h456zM347 722q-8 8 -23 25.5t-36 43.5t-37 45t-27 30q-18 15 -35 15q-12 0 -23 -8q-14 -9 -14 -19q0 -9 13 -18q21 -12 63 -50q21 -19 40 -35t36 -30z" />
    <glyph glyph-name="Eacute" unicode="&#xc9;" horiz-adv-x="559" 
d="M502 0l25 119h-16q-10 -23 -21 -36.5t-25 -21.5t-31.5 -10.5t-41.5 -2.5h-165q-29 0 -39 2.5t-10 16.5v261h203q19 0 31.5 -2.5t19 -8.5t9.5 -16t5 -25h13v151h-13q-3 -30 -14.5 -40t-50.5 -10h-203v229q0 15 2 19t20 4h202q33 0 51 -7q20 -8 26 -48h14l-1 103h-446v-10
h14q20 0 26.5 -10.5t6.5 -38.5v-559q0 -28 -6.5 -38.5t-26.5 -10.5h-14v-10h456zM211 722l43 -1q17 14 36 30.5t40 34.5q21 19 37 31t27 19q13 9 13 18q0 10 -14 19q-11 8 -23 8q-17 0 -35 -15q-11 -11 -27 -30t-37 -45q-42 -53 -60 -69z" />
    <glyph glyph-name="Ecircumflex" unicode="&#xca;" horiz-adv-x="559" 
d="M502 0l25 119h-16q-10 -23 -21 -36.5t-25 -21.5t-31.5 -10.5t-41.5 -2.5h-165q-29 0 -39 2.5t-10 16.5v261h203q19 0 31.5 -2.5t19 -8.5t9.5 -16t5 -25h13v151h-13q-3 -30 -14.5 -40t-50.5 -10h-203v229q0 15 2 19t20 4h202q33 0 51 -7q20 -8 26 -48h14l-1 103h-446v-10
h14q20 0 26.5 -10.5t6.5 -38.5v-559q0 -28 -6.5 -38.5t-26.5 -10.5h-14v-10h456zM134 722l37 -1l108 103l108 -103l37 1l-111 155h-68z" />
    <glyph glyph-name="Edieresis" unicode="&#xcb;" horiz-adv-x="559" 
d="M502 0l25 119h-16q-10 -23 -21 -36.5t-25 -21.5t-31.5 -10.5t-41.5 -2.5h-165q-29 0 -39 2.5t-10 16.5v261h203q19 0 31.5 -2.5t19 -8.5t9.5 -16t5 -25h13v151h-13q-3 -30 -14.5 -40t-50.5 -10h-203v229q0 15 2 19t20 4h202q33 0 51 -7q20 -8 26 -48h14l-1 103h-446v-10
h14q20 0 26.5 -10.5t6.5 -38.5v-559q0 -28 -6.5 -38.5t-26.5 -10.5h-14v-10h456zM185 835q-15 0 -23.5 -1.5t-13 -6t-5.5 -13.5t-1 -24t1 -24t5.5 -13.5t13 -6t23.5 -1.5t23.5 1.5t13 6t5.5 13.5t1 24t-1 24t-5.5 13.5t-13 6t-23.5 1.5zM372 835q-15 0 -23.5 -1.5t-13 -6
t-5.5 -13.5t-1 -24t1 -24t5.5 -13.5t13 -6t23.5 -1.5t23.5 1.5t13 6t5.5 13.5t1 24t-1 24t-5.5 13.5t-13 6t-23.5 1.5z" />
    <glyph glyph-name="Igrave" unicode="&#xcc;" horiz-adv-x="281" 
d="M183 59v559q0 28 6.5 38.5t31.5 10.5h16v10h-194v-10h16q25 0 31.5 -10.5t6.5 -38.5v-559q0 -28 -6.5 -38.5t-31.5 -10.5h-16v-10h194v10h-16q-25 0 -31.5 10.5t-6.5 38.5zM209 722q-8 8 -23 25.5t-36 43.5t-37 45t-27 30q-18 15 -35 15q-12 0 -23 -8q-14 -9 -14 -19
q0 -9 13 -18q21 -12 63 -50q21 -19 40 -35t36 -30z" />
    <glyph glyph-name="Iacute" unicode="&#xcd;" horiz-adv-x="281" 
d="M183 59v559q0 28 6.5 38.5t31.5 10.5h16v10h-194v-10h16q25 0 31.5 -10.5t6.5 -38.5v-559q0 -28 -6.5 -38.5t-31.5 -10.5h-16v-10h194v10h-16q-25 0 -31.5 10.5t-6.5 38.5zM73 722l43 -1q17 14 36 30.5t40 34.5q21 19 37 31t27 19q13 9 13 18q0 10 -14 19q-11 8 -23 8
q-17 0 -35 -15q-11 -11 -27 -30t-37 -45q-42 -53 -60 -69z" />
    <glyph glyph-name="Icircumflex" unicode="&#xce;" horiz-adv-x="281" 
d="M183 59v559q0 28 6.5 38.5t31.5 10.5h16v10h-194v-10h16q25 0 31.5 -10.5t6.5 -38.5v-559q0 -28 -6.5 -38.5t-31.5 -10.5h-16v-10h194v10h-16q-25 0 -31.5 10.5t-6.5 38.5zM-3 722l36 -1l108 103l108 -103l37 1l-111 155h-68z" />
    <glyph glyph-name="Idieresis" unicode="&#xcf;" horiz-adv-x="281" 
d="M183 59v559q0 28 6.5 38.5t31.5 10.5h16v10h-194v-10h16q25 0 31.5 -10.5t6.5 -38.5v-559q0 -28 -6.5 -38.5t-31.5 -10.5h-16v-10h194v10h-16q-25 0 -31.5 10.5t-6.5 38.5zM47 835q-15 0 -23.5 -1.5t-13 -6t-5.5 -13.5t-1 -24t1 -24t5.5 -13.5t13 -6t23.5 -1.5t23.5 1.5
t13 6t5.5 13.5t1 24t-1 24t-5.5 13.5t-13 6t-23.5 1.5zM234 835q-15 0 -23.5 -1.5t-13 -6t-5.5 -13.5t-1 -24t1 -24t5.5 -13.5t13 -6t23.5 -1.5t23.5 1.5t13 6t5.5 13.5t1 24t-1 24t-5.5 13.5t-13 6t-23.5 1.5z" />
    <glyph glyph-name="Eth" unicode="&#xd0;" horiz-adv-x="698" 
d="M180 372v240q11 9 27 13.5t44 4.5q151 0 231 -74t80 -216q0 -147 -82 -220t-241 -73q-26 0 -40 4.5t-19 20.5v249h177v51h-177zM19 372v-51h76v-262q0 -28 -6.5 -38.5t-28.5 -10.5h-14v-10h224q176 0 277 88q103 88 103 249q0 163 -96 251.5t-276 88.5h-232v-8h14
q22 0 28.5 -10t6.5 -37v-250h-76z" />
    <glyph glyph-name="Ntilde" unicode="&#xd1;" horiz-adv-x="698" 
d="M547 131q-94 141 -187 273t-187 273h-132v-10h12q9 0 14.5 -1.5t10.5 -9.5l17 -31v-543q0 -40 -7 -56t-31 -16h-16v-10h161v10h-15q-23 0 -30 16t-7 56v487l401 -574h51v598q0 42 7 58t30 16h16v10h-162v-10h17q24 0 30.5 -16t6.5 -58v-462zM498 844h-31q-17 -41 -46 -41
q-13 0 -28 4t-34 14q-38 19 -70 19q-35 0 -60 -26t-33 -68h32q17 41 46 41q23 0 61 -19q19 -10 36 -14t34 -4q36 0 60.5 26t32.5 68z" />
    <glyph glyph-name="Ograve" unicode="&#xd2;" horiz-adv-x="719" 
d="M587 338q0 -134 -62 -220q-62 -84 -165 -84q-105 0 -166 84q-61 85 -61 220q0 137 61 220q61 85 166 85q104 0 165 -85q62 -85 62 -220zM677 338q0 157 -88 254q-87 98 -229 98q-143 0 -230 -98t-87 -254t87 -253t230 -97q142 0 229 97q88 97 88 253zM428 722
q-8 8 -23 25.5t-36 43.5t-37 45t-27 30q-18 15 -35 15q-12 0 -23 -8q-14 -9 -14 -19q0 -9 13 -18q21 -12 63 -50q21 -19 40 -35t36 -30z" />
    <glyph glyph-name="Oacute" unicode="&#xd3;" horiz-adv-x="719" 
d="M587 338q0 -134 -62 -220q-62 -84 -165 -84q-105 0 -166 84q-61 85 -61 220q0 137 61 220q61 85 166 85q104 0 165 -85q62 -85 62 -220zM677 338q0 157 -88 254q-87 98 -229 98q-143 0 -230 -98t-87 -254t87 -253t230 -97q142 0 229 97q88 97 88 253zM292 722l43 -1
q17 14 36 30.5t40 34.5q21 19 37 31t27 19q13 9 13 18q0 10 -14 19q-11 8 -23 8q-17 0 -35 -15q-11 -11 -27 -30t-37 -45q-42 -53 -60 -69z" />
    <glyph glyph-name="Ocircumflex" unicode="&#xd4;" horiz-adv-x="719" 
d="M587 338q0 -134 -62 -220q-62 -84 -165 -84q-105 0 -166 84q-61 85 -61 220q0 137 61 220q61 85 166 85q104 0 165 -85q62 -85 62 -220zM677 338q0 157 -88 254q-87 98 -229 98q-143 0 -230 -98t-87 -254t87 -253t230 -97q142 0 229 97q88 97 88 253zM215 722l37 -1
l108 103l108 -103l37 1l-111 155h-68z" />
    <glyph glyph-name="Otilde" unicode="&#xd5;" horiz-adv-x="719" 
d="M587 338q0 -134 -62 -220q-62 -84 -165 -84q-105 0 -166 84q-61 85 -61 220q0 137 61 220q61 85 166 85q104 0 165 -85q62 -85 62 -220zM677 338q0 157 -88 254q-87 98 -229 98q-143 0 -230 -98t-87 -254t87 -253t230 -97q142 0 229 97q88 97 88 253zM510 844h-31
q-17 -41 -46 -41q-13 0 -28 4t-34 14q-38 19 -70 19q-35 0 -60 -26t-33 -68h32q17 41 46 41q23 0 61 -19q19 -10 36 -14t34 -4q36 0 60.5 26t32.5 68z" />
    <glyph glyph-name="Odieresis" unicode="&#xd6;" horiz-adv-x="719" 
d="M587 338q0 -134 -62 -220q-62 -84 -165 -84q-105 0 -166 84q-61 85 -61 220q0 137 61 220q61 85 166 85q104 0 165 -85q62 -85 62 -220zM677 338q0 157 -88 254q-87 98 -229 98q-143 0 -230 -98t-87 -254t87 -253t230 -97q142 0 229 97q88 97 88 253zM276 835
q-18 0 -30.5 -13.5t-12.5 -31.5t12.5 -31.5t30.5 -13.5t30 13.5t13 31.5q1 23 -12 34t-31 11zM463 835q-18 0 -30.5 -13.5t-12.5 -31.5t12.5 -31.5t30.5 -13.5t30.5 13.5t12.5 31.5q0 20 -12.5 32.5t-30.5 12.5z" />
    <glyph glyph-name="multiply" unicode="&#xd7;" horiz-adv-x="579" 
d="M242 253l-191 -191l49 -49l191 191l191 -191l49 49l-191 191l191 191l-49 49l-191 -191l-191 191l-49 -49z" />
    <glyph glyph-name="Oslash" unicode="&#xd8;" horiz-adv-x="719" 
d="M539 538q48 -77 48 -200q0 -134 -62 -220q-62 -84 -165 -84q-96 0 -153 67zM180 139q-47 77 -47 199q0 137 61 220q61 85 166 85q94 0 151 -68zM629 731l-78 -103q-74 62 -191 62q-143 0 -230 -98t-87 -254q0 -157 87 -254q3 -3 4 -5l-90 -118l44 -16l80 104
q73 -61 192 -61q142 0 229 97q88 97 88 253q0 157 -88 254q-3 3 -5 6l89 117z" />
    <glyph glyph-name="Ugrave" unicode="&#xd9;" horiz-adv-x="698" 
d="M545 225q0 -88 -49 -137.5t-136 -49.5q-181 0 -181 199v381q0 28 6.5 38.5t29.5 10.5h14v10h-186v-10h15q22 0 29 -10.5t7 -38.5v-379q0 -121 66 -186t187 -65t187 64.5t66 184.5v350q0 45 7 62.5t30 17.5h15v10h-159v-10h15q23 0 30 -17.5t7 -62.5v-362zM417 722
q-8 8 -23 25.5t-36 43.5t-37 45t-27 30q-18 15 -35 15q-12 0 -23 -8q-14 -9 -14 -19q0 -9 13 -18q21 -12 63 -50q21 -19 40 -35t36 -30z" />
    <glyph glyph-name="Uacute" unicode="&#xda;" horiz-adv-x="698" 
d="M545 225q0 -88 -49 -137.5t-136 -49.5q-181 0 -181 199v381q0 28 6.5 38.5t29.5 10.5h14v10h-186v-10h15q22 0 29 -10.5t7 -38.5v-379q0 -121 66 -186t187 -65t187 64.5t66 184.5v350q0 45 7 62.5t30 17.5h15v10h-159v-10h15q23 0 30 -17.5t7 -62.5v-362zM281 722l43 -1
q17 14 36 30.5t40 34.5q21 19 37 31t27 19q13 9 13 18q0 10 -14 19q-11 8 -23 8q-17 0 -35 -15q-11 -11 -27 -30t-37 -45q-42 -53 -60 -69z" />
    <glyph glyph-name="Ucircumflex" unicode="&#xdb;" horiz-adv-x="698" 
d="M545 225q0 -88 -49 -137.5t-136 -49.5q-181 0 -181 199v381q0 28 6.5 38.5t29.5 10.5h14v10h-186v-10h15q22 0 29 -10.5t7 -38.5v-379q0 -121 66 -186t187 -65t187 64.5t66 184.5v350q0 45 7 62.5t30 17.5h15v10h-159v-10h15q23 0 30 -17.5t7 -62.5v-362zM204 722l37 -1
l108 103l108 -103l37 1l-111 155h-68z" />
    <glyph glyph-name="Udieresis" unicode="&#xdc;" horiz-adv-x="698" 
d="M545 225q0 -88 -49 -137.5t-136 -49.5q-181 0 -181 199v381q0 28 6.5 38.5t29.5 10.5h14v10h-186v-10h15q22 0 29 -10.5t7 -38.5v-379q0 -121 66 -186t187 -65t187 64.5t66 184.5v350q0 45 7 62.5t30 17.5h15v10h-159v-10h15q23 0 30 -17.5t7 -62.5v-362zM266 835
q-18 0 -30.5 -13.5t-12.5 -31.5t12.5 -31.5t30.5 -13.5t30 13.5t13 31.5q1 23 -12 34t-31 11zM453 835q-18 0 -30.5 -13.5t-12.5 -31.5t12.5 -31.5t30.5 -13.5t30.5 13.5t12.5 31.5q0 20 -12.5 32.5t-30.5 12.5z" />
    <glyph glyph-name="Yacute" unicode="&#xdd;" horiz-adv-x="673" 
d="M501 667q32 0 35 -12l1 -8q0 -6 -5 -16l-177 -279l-179 275q-5 8 -7 14t-2 11t3 8q10 7 37 7v10h-189v-10q9 0 15.5 -1.5t12.5 -5.5t13.5 -12.5t17.5 -23.5l221 -327v-238q0 -28 -7.5 -38.5t-33.5 -10.5h-16v-10h200v10h-17q-26 0 -33.5 10.5t-7.5 38.5v241l212 327
q14 21 28.5 29.5t33.5 10.5v10h-156v-10zM268 722l43 -1q17 14 36 30.5t40 34.5q21 19 37 31t27 19q13 9 13 18q0 10 -14 19q-11 8 -23 8q-17 0 -35 -15q-11 -11 -27 -30t-37 -45q-42 -53 -60 -69z" />
    <glyph glyph-name="Thorn" unicode="&#xde;" horiz-adv-x="529" 
d="M94 618v-559q0 -28 -6.5 -38.5t-26.5 -10.5h-14v-10h186v10h-16q-24 0 -31 10.5t-7 38.5v428q12 9 29.5 11t44.5 2q79 0 123.5 -36t44.5 -103q0 -75 -43 -112.5t-128 -35.5l-71 2v-49l82 -2q115 -3 181 49t66 146q0 90 -61.5 139t-169.5 49h-98v71q0 28 7 38.5t30 10.5
h15v10h-186v-10h15q21 0 27.5 -10.5t6.5 -38.5z" />
    <glyph glyph-name="germandbls" unicode="&#xdf;" horiz-adv-x="522" 
d="M148 0v529q0 90 33 120q34 30 77 30t73.5 -33t30.5 -101q0 -70 -33.5 -105t-88.5 -39q-6 0 -13.5 -1.5t-9.5 -7.5v-21q3 -6 10.5 -7.5t12.5 -1.5q79 -2 120 -45t41 -128q0 -34 -6 -63t-18.5 -50t-31.5 -32.5t-44 -11.5q-20 0 -34.5 7t-18.5 26q-2 30 -28 30
q-24 0 -25 -33l-1 -24q4 -22 32 -33.5t59 -11.5q92 0 143 60q52 61 52 146q0 78 -47 128t-128 61q70 25 101.5 65.5t31.5 103.5q0 36 -12.5 65.5t-36 50.5t-56 33t-72.5 12q-86 0 -136 -53t-50 -172v-448q0 -20 -7.5 -27t-26.5 -10v-8h107z" />
    <glyph glyph-name="agrave" unicode="&#xe0;" horiz-adv-x="466" 
d="M322 150q0 -21 -9.5 -40.5t-26 -33.5t-38.5 -22.5t-48 -8.5q-43 0 -64.5 24t-21.5 62q0 24 10 42.5t29 32t46 23.5t61 19l62 16v-114zM325 72q1 -34 9.5 -55.5t25.5 -21.5q23 0 42 8.5t35 18.5l1 15q-2 -3 -11 -7t-15 -4q-10 0 -15 17.5t-5 45.5v245q0 153 -155 153
q-67 0 -111 -25q-45 -24 -51 -53q0 -30 22 -37q8 -2 11 -2q12 0 14 12l-2 21q13 21 43.5 34t64.5 13q45 0 69.5 -23.5t24.5 -75.5v-49l-99 -33q-85 -12 -135 -50t-50 -105q0 -27 9.5 -49.5t26.5 -39.5t42 -26.5t55 -9.5q38 0 78.5 19t75.5 64zM302 532q-8 8 -23 25.5
t-36 43.5t-37 45t-27 30q-18 15 -35 15q-12 0 -23 -8q-14 -9 -14 -19q0 -9 13 -18q21 -12 63 -50q21 -19 40 -35t36 -30z" />
    <glyph glyph-name="aacute" unicode="&#xe1;" horiz-adv-x="466" 
d="M322 150q0 -21 -9.5 -40.5t-26 -33.5t-38.5 -22.5t-48 -8.5q-43 0 -64.5 24t-21.5 62q0 24 10 42.5t29 32t46 23.5t61 19l62 16v-114zM325 72q1 -34 9.5 -55.5t25.5 -21.5q23 0 42 8.5t35 18.5l1 15q-2 -3 -11 -7t-15 -4q-10 0 -15 17.5t-5 45.5v245q0 153 -155 153
q-67 0 -111 -25q-45 -24 -51 -53q0 -30 22 -37q8 -2 11 -2q12 0 14 12l-2 21q13 21 43.5 34t64.5 13q45 0 69.5 -23.5t24.5 -75.5v-49l-99 -33q-85 -12 -135 -50t-50 -105q0 -27 9.5 -49.5t26.5 -39.5t42 -26.5t55 -9.5q38 0 78.5 19t75.5 64zM166 532l43 -1q17 14 36 30.5
t40 34.5q21 19 37 31t27 19q13 9 13 18q0 10 -14 19q-11 8 -23 8q-17 0 -35 -15q-11 -11 -27 -30t-37 -45q-42 -53 -60 -69z" />
    <glyph glyph-name="acircumflex" unicode="&#xe2;" horiz-adv-x="466" 
d="M322 150q0 -21 -9.5 -40.5t-26 -33.5t-38.5 -22.5t-48 -8.5q-43 0 -64.5 24t-21.5 62q0 24 10 42.5t29 32t46 23.5t61 19l62 16v-114zM325 72q1 -34 9.5 -55.5t25.5 -21.5q23 0 42 8.5t35 18.5l1 15q-2 -3 -11 -7t-15 -4q-10 0 -15 17.5t-5 45.5v245q0 153 -155 153
q-67 0 -111 -25q-45 -24 -51 -53q0 -30 22 -37q8 -2 11 -2q12 0 14 12l-2 21q13 21 43.5 34t64.5 13q45 0 69.5 -23.5t24.5 -75.5v-49l-99 -33q-85 -12 -135 -50t-50 -105q0 -27 9.5 -49.5t26.5 -39.5t42 -26.5t55 -9.5q38 0 78.5 19t75.5 64zM89 532l37 -1l108 103
l108 -103l37 1l-111 155h-68z" />
    <glyph glyph-name="atilde" unicode="&#xe3;" horiz-adv-x="466" 
d="M322 150q0 -21 -9.5 -40.5t-26 -33.5t-38.5 -22.5t-48 -8.5q-43 0 -64.5 24t-21.5 62q0 24 10 42.5t29 32t46 23.5t61 19l62 16v-114zM325 72q1 -34 9.5 -55.5t25.5 -21.5q23 0 42 8.5t35 18.5l1 15q-2 -3 -11 -7t-15 -4q-10 0 -15 17.5t-5 45.5v245q0 153 -155 153
q-67 0 -111 -25q-45 -24 -51 -53q0 -30 22 -37q8 -2 11 -2q12 0 14 12l-2 21q13 21 43.5 34t64.5 13q45 0 69.5 -23.5t24.5 -75.5v-49l-99 -33q-85 -12 -135 -50t-50 -105q0 -27 9.5 -49.5t26.5 -39.5t42 -26.5t55 -9.5q38 0 78.5 19t75.5 64zM384 654h-31q-17 -41 -46 -41
q-13 0 -28 4t-34 14q-38 19 -70 19q-35 0 -60 -26t-33 -68h32q17 41 46 41q23 0 61 -19q19 -10 36 -14t34 -4q36 0 60.5 26t32.5 68z" />
    <glyph glyph-name="adieresis" unicode="&#xe4;" horiz-adv-x="466" 
d="M324 150q0 -21 -9.5 -40.5t-26 -33.5t-38.5 -22.5t-48 -8.5q-43 0 -64.5 24t-21.5 62q0 24 10 42.5t29 32t46 23.5t61 19l62 16v-114zM327 72q1 -34 9.5 -55.5t25.5 -21.5q23 0 42 8.5t35 18.5l1 15q-2 -3 -11 -7t-15 -4q-10 0 -15 17.5t-5 45.5v245q0 153 -155 153
q-67 0 -111 -25q-45 -24 -51 -53q0 -30 22 -37q8 -2 11 -2q12 0 14 12l-2 21q13 21 43.5 34t64.5 13q45 0 69.5 -23.5t24.5 -75.5v-49l-99 -33q-85 -12 -135 -50t-50 -105q0 -27 9.5 -49.5t26.5 -39.5t42 -26.5t55 -9.5q38 0 78.5 19t75.5 64zM158 635q-18 0 -30.5 -13.5
t-12.5 -31.5t12.5 -31.5t30.5 -13.5t30 13.5t13 31.5q1 23 -12 34t-31 11zM345 635q-18 0 -30.5 -13.5t-12.5 -31.5t12.5 -31.5t30.5 -13.5t30.5 13.5t12.5 31.5q0 20 -12.5 32.5t-30.5 12.5z" />
    <glyph glyph-name="aring" unicode="&#xe5;" horiz-adv-x="466" 
d="M322 150q0 -21 -9.5 -40.5t-26 -33.5t-38.5 -22.5t-48 -8.5q-43 0 -64.5 24t-21.5 62q0 24 10 42.5t29 32t46 23.5t61 19l62 16v-114zM325 72q1 -34 9.5 -55.5t25.5 -21.5q23 0 42 8.5t35 18.5l1 15q-2 -3 -11 -7t-15 -4q-10 0 -15 17.5t-5 45.5v245q0 153 -155 153
q-67 0 -111 -25q-45 -24 -51 -53q0 -30 22 -37q8 -2 11 -2q12 0 14 12l-2 21q13 21 43.5 34t64.5 13q45 0 69.5 -23.5t24.5 -75.5v-49l-99 -33q-85 -12 -135 -50t-50 -105q0 -27 9.5 -49.5t26.5 -39.5t42 -26.5t55 -9.5q38 0 78.5 19t75.5 64zM229 726q-20 0 -37.5 -8
t-31 -21.5t-21.5 -31t-8 -37.5t8 -37.5t21.5 -31t31 -21.5t37.5 -8t37.5 8t31 21.5t21 31t7.5 37.5t-7.5 37.5t-21 31t-31 21.5t-37.5 8zM229 692q27 0 45 -18.5t18 -45.5t-18 -45.5t-45 -18.5t-45.5 18.5t-18.5 45.5t18.5 45.5t45.5 18.5z" />
    <glyph glyph-name="ae" unicode="&#xe6;" horiz-adv-x="737" 
d="M315 150q0 -21 -8.5 -40.5t-24.5 -33.5t-37.5 -22.5t-46.5 -8.5q-42 0 -61 24t-19 62q0 49 37 77t104 40l56 16v-114zM370 421q-18 28 -49.5 47t-85.5 19q-64 0 -107 -25q-43 -24 -49 -53q0 -30 22 -37q8 -2 11 -2q12 0 14 12l-2 21q13 21 42 34t60 13q42 0 65.5 -23.5
t23.5 -75.5v-49l-95 -33q-82 -12 -130 -50t-48 -105q0 -27 9.5 -49.5t27 -39.5t42 -26.5t54.5 -9.5q60 0 102 28.5t61 67.5q27 -54 67.5 -74.5t91.5 -20.5q61 0 108.5 28.5t72.5 77.5l-8 33q-11 -21 -51 -50q-37 -28 -87 -28q-72 0 -112 60q-37 55 -40 150h299l5 10
q-3 100 -46 158t-124 58q-48 0 -80 -14.5t-64 -51.5zM382 302q6 58 30 93q31 48 89 48q45 0 69 -37.5t25 -103.5h-213z" />
    <glyph glyph-name="ccedilla" unicode="&#xe7;" horiz-adv-x="444" 
d="M400 119q-8 -15 -45 -41q-35 -25 -85 -25q-74 0 -122 57q-47 58 -47 143q0 43 11.5 79t33 61.5t51.5 39.5t67 14q27 0 49.5 -9.5t31.5 -25.5q7 -28 24 -28l7 1q24 7 27 36q-10 27 -49 46q-42 20 -89 20q-102 0 -168 -72t-66 -183q0 -108 58 -175t155 -67q60 0 100.5 26.5
t65.5 71.5zM131 -182q14 -6 39 -12.5t56 -6.5q54 0 84 20t30 58q0 30 -21.5 48.5t-55.5 18.5l-32 -4l24 65h-31l-37 -97l4 -3l35 4q45 0 45 -35q0 -20 -14 -31t-38 -11q-29 0 -50 8t-27 11z" />
    <glyph glyph-name="egrave" unicode="&#xe8;" horiz-adv-x="469" 
d="M421 96l-8 33q-13 -21 -55 -50q-40 -28 -95 -28q-78 0 -123 60q-41 56 -44 150h332l-1 10q-10 99 -53.5 157.5t-131.5 58.5q-94 0 -152 -73q-58 -71 -58 -186q0 -112 52.5 -175t148.5 -63q63 0 112.5 28.5t75.5 77.5zM98 302q8 59 34 93q37 48 99 48q51 0 78 -37.5
t32 -103.5h-243zM303 532q-8 8 -23 25.5t-36 43.5t-37 45t-27 30q-18 15 -35 15q-12 0 -23 -8q-14 -9 -14 -19q0 -9 13 -18q21 -12 63 -50q21 -19 40 -35t36 -30z" />
    <glyph glyph-name="eacute" unicode="&#xe9;" horiz-adv-x="469" 
d="M421 96l-8 33q-13 -21 -55 -50q-40 -28 -95 -28q-78 0 -123 60q-41 56 -44 150h332l-1 10q-10 99 -53.5 157.5t-131.5 58.5q-94 0 -152 -73q-58 -71 -58 -186q0 -112 52.5 -175t148.5 -63q63 0 112.5 28.5t75.5 77.5zM98 302q8 59 34 93q37 48 99 48q51 0 78 -37.5
t32 -103.5h-243zM167 532l43 -1q17 14 36 30.5t40 34.5q21 19 37 31t27 19q13 9 13 18q0 10 -14 19q-11 8 -23 8q-17 0 -35 -15q-11 -11 -27 -30t-37 -45q-42 -53 -60 -69z" />
    <glyph glyph-name="ecircumflex" unicode="&#xea;" horiz-adv-x="469" 
d="M421 96l-8 33q-13 -21 -55 -50q-40 -28 -95 -28q-78 0 -123 60q-41 56 -44 150h332l-1 10q-10 99 -53.5 157.5t-131.5 58.5q-94 0 -152 -73q-58 -71 -58 -186q0 -112 52.5 -175t148.5 -63q63 0 112.5 28.5t75.5 77.5zM98 302q8 59 34 93q37 48 99 48q51 0 78 -37.5
t32 -103.5h-243zM90 532l37 -1l108 103l108 -103l37 1l-111 155h-68z" />
    <glyph glyph-name="edieresis" unicode="&#xeb;" horiz-adv-x="469" 
d="M421 96l-8 33q-13 -21 -55 -50q-40 -28 -95 -28q-78 0 -123 60q-41 56 -44 150h332l-1 10q-10 99 -53.5 157.5t-131.5 58.5q-94 0 -152 -73q-58 -71 -58 -186q0 -112 52.5 -175t148.5 -63q63 0 112.5 28.5t75.5 77.5zM98 302q8 59 34 93q37 48 99 48q51 0 78 -37.5
t32 -103.5h-243zM156 635q-18 0 -30.5 -13.5t-12.5 -31.5t12.5 -31.5t30.5 -13.5t30 13.5t13 31.5q1 23 -12 34t-31 11zM343 635q-18 0 -30.5 -13.5t-12.5 -31.5t12.5 -31.5t30.5 -13.5t30.5 13.5t12.5 31.5q0 20 -12.5 32.5t-30.5 12.5z" />
    <glyph glyph-name="igrave" unicode="&#xec;" horiz-adv-x="253" 
d="M161 47v435l-19 1l-98 -34v-5l20 -3l10 1q11 0 13 -7.5t2 -23.5v-361q0 -24 -6.5 -33t-24.5 -9h-13v-8h145v8h-8q-14 0 -17.5 8t-3.5 31zM196 532q-8 8 -23 25.5t-36 43.5t-37 45t-27 30q-18 15 -35 15q-12 0 -23 -8q-14 -9 -14 -19q0 -9 13 -18q21 -12 63 -50
q21 -19 40 -35t36 -30z" />
    <glyph glyph-name="iacute" unicode="&#xed;" horiz-adv-x="253" 
d="M161 47v435l-19 1l-98 -34v-5l20 -3l10 1q11 0 13 -7.5t2 -23.5v-361q0 -24 -6.5 -33t-24.5 -9h-13v-8h145v8h-8q-14 0 -17.5 8t-3.5 31zM60 532l43 -1q17 14 36 30.5t40 34.5q21 19 37 31t27 19q13 9 13 18q0 10 -14 19q-11 8 -23 8q-17 0 -35 -15q-11 -11 -27 -30
t-37 -45q-42 -53 -60 -69z" />
    <glyph glyph-name="icircumflex" unicode="&#xee;" horiz-adv-x="253" 
d="M161 47v435l-19 1l-98 -34v-5l20 -3l10 1q11 0 13 -7.5t2 -23.5v-361q0 -24 -6.5 -33t-24.5 -9h-13v-8h145v8h-8q-14 0 -17.5 8t-3.5 31zM-16 532l36 -1l108 103l108 -103l37 1l-111 155h-68z" />
    <glyph glyph-name="idieresis" unicode="&#xef;" horiz-adv-x="253" 
d="M161 47v435l-19 1l-98 -34v-5l20 -3l10 1q11 0 13 -7.5t2 -23.5v-361q0 -24 -6.5 -33t-24.5 -9h-13v-8h145v8h-8q-14 0 -17.5 8t-3.5 31zM36 635q-18 0 -30.5 -13.5t-12.5 -31.5t12.5 -31.5t30.5 -13.5t30 13.5t13 31.5q1 23 -12 34t-31 11zM223 635q-18 0 -30.5 -13.5
t-12.5 -31.5t12.5 -31.5t30.5 -13.5t30.5 13.5t12.5 31.5q0 20 -12.5 32.5t-30.5 12.5z" />
    <glyph glyph-name="eth" unicode="&#xf0;" 
d="M492 283q0 188 -94 303q-18 23 -45 47l92 52l-29 36l-103 -58q-63 45 -164 55l-29 -34q88 -20 135 -54l-109 -61l31 -35l117 66q9 -9 16 -16.5t12 -13.5q69 -84 77 -152q-31 32 -65.5 50.5t-74.5 18.5q-98 0 -161 -72t-63 -180q0 -111 63 -178q63 -68 165 -68
q105 0 167 81q62 82 62 213zM255 449q69 0 114 -66q46 -65 46 -160q0 -83 -41 -139t-101 -56q-74 0 -117 69q-43 68 -43 178q0 74 40 123q40 51 102 51z" />
    <glyph glyph-name="ntilde" unicode="&#xf1;" horiz-adv-x="522" 
d="M443 47v273q0 78 -36.5 122.5t-102.5 44.5q-51 0 -87.5 -23.5t-68.5 -69.5v88l-19 1l-86 -30v-5l16 -3l8 1q8 0 10 -8t2 -23v-365q0 -24 -5 -33t-19 -9h-10v-8h128v8h-6q-11 0 -13.5 8t-2.5 31v272q10 49 42.5 82t83.5 33q45 0 69.5 -31t24.5 -85v-268q0 -24 -5 -33
t-21 -9h-10v-8h127v8h-5q-9 0 -11.5 8t-2.5 31zM410 654h-31q-17 -41 -46 -41q-13 0 -28 4t-34 14q-38 19 -70 19q-35 0 -60 -26t-33 -68h32q17 41 46 41q23 0 61 -19q19 -10 36 -14t34 -4q36 0 60.5 26t32.5 68z" />
    <glyph glyph-name="ograve" unicode="&#xf2;" 
d="M489 238q0 111 -63 180q-62 69 -165 69q-102 0 -165 -69q-62 -70 -62 -180t62 -180q62 -68 165 -68q102 0 165 68q63 69 63 180zM412 238q1 -91 -37 -151q-38 -59 -105 -59t-112 59q-22 29 -34 67t-13 84q-1 90 36 151q38 59 105 59q68 0 112 -59q22 -29 34 -67t14 -84z
M331 532q-8 8 -23 25.5t-36 43.5t-37 45t-27 30q-18 15 -35 15q-12 0 -23 -8q-14 -9 -14 -19q0 -9 13 -18q21 -12 63 -50q21 -19 40 -35t36 -30z" />
    <glyph glyph-name="oacute" unicode="&#xf3;" 
d="M489 238q0 111 -63 180q-62 69 -165 69q-102 0 -165 -69q-62 -70 -62 -180t62 -180q62 -68 165 -68q102 0 165 68q63 69 63 180zM412 238q1 -91 -37 -151q-38 -59 -105 -59t-112 59q-22 29 -34 67t-13 84q-1 90 36 151q38 59 105 59q68 0 112 -59q22 -29 34 -67t14 -84z
M195 532l43 -1q17 14 36 30.5t40 34.5q21 19 37 31t27 19q13 9 13 18q0 10 -14 19q-11 8 -23 8q-17 0 -35 -15q-11 -11 -27 -30t-37 -45q-42 -53 -60 -69z" />
    <glyph glyph-name="ocircumflex" unicode="&#xf4;" 
d="M489 238q0 111 -63 180q-62 69 -165 69q-102 0 -165 -69q-62 -70 -62 -180t62 -180q62 -68 165 -68q102 0 165 68q63 69 63 180zM412 238q1 -91 -37 -151q-38 -59 -105 -59t-112 59q-22 29 -34 67t-13 84q-1 90 36 151q38 59 105 59q68 0 112 -59q22 -29 34 -67t14 -84z
M118 532l37 -1l108 103l108 -103l37 1l-111 155h-68z" />
    <glyph glyph-name="otilde" unicode="&#xf5;" 
d="M489 238q0 111 -63 180q-62 69 -165 69q-102 0 -165 -69q-62 -70 -62 -180t62 -180q62 -68 165 -68q102 0 165 68q63 69 63 180zM412 238q1 -91 -37 -151q-38 -59 -105 -59t-112 59q-22 29 -34 67t-13 84q-1 90 36 151q38 59 105 59q68 0 112 -59q22 -29 34 -67t14 -84z
M413 654h-31q-17 -41 -46 -41q-13 0 -28 4t-34 14q-38 19 -70 19q-35 0 -60 -26t-33 -68h32q17 41 46 41q23 0 61 -19q19 -10 36 -14t34 -4q36 0 60.5 26t32.5 68z" />
    <glyph glyph-name="odieresis" unicode="&#xf6;" 
d="M491 238q0 111 -63 180q-62 69 -165 69q-102 0 -165 -69q-62 -70 -62 -180t62 -180q62 -68 165 -68q102 0 165 68q63 69 63 180zM414 238q1 -91 -37 -151q-38 -59 -105 -59t-112 59q-22 29 -34 67t-13 84q-1 90 36 151q38 59 105 59q68 0 112 -59q22 -29 34 -67t14 -84z
M178 635q-18 0 -30.5 -13.5t-12.5 -31.5t12.5 -31.5t30.5 -13.5t30 13.5t13 31.5q1 23 -12 34t-31 11zM365 635q-18 0 -30.5 -13.5t-12.5 -31.5t12.5 -31.5t30.5 -13.5t30.5 13.5t12.5 31.5q0 20 -12.5 32.5t-30.5 12.5z" />
    <glyph glyph-name="divide" unicode="&#xf7;" horiz-adv-x="579" 
d="M291 505q-33 0 -41 -8q-7 -7 -7 -41q0 -17 1.5 -26.5t6 -14t14 -6t26.5 -1.5q34 0 41 7q8 8 8 41t-8 41t-41 8zM37 220h504v66h-504v-66zM291 98q-33 0 -41 -8q-7 -7 -7 -41q0 -17 1.5 -26.5t6 -14t14 -6t26.5 -1.5q34 0 41 7q8 8 8 41t-8 41t-41 8z" />
    <glyph glyph-name="oslash" unicode="&#xf8;" 
d="M444 549l-62 -94q-46 32 -121 32q-102 0 -165 -69q-62 -70 -62 -180q0 -56 14.5 -101.5t47.5 -78.5l15 -15l-73 -110l37 -13l67 100q43 -30 119 -30q102 0 165 68q63 69 63 180q0 56 -15 101.5t-48 78.5l-13 13l68 104zM375 373q17 -26 26.5 -59.5t10.5 -75.5
q2 -46 -8 -84t-29 -67q-38 -59 -105 -59q-58 0 -96 41zM149 100q-17 27 -27 61.5t-11 76.5q-1 90 36 151q38 59 105 59q59 0 98 -42z" />
    <glyph glyph-name="ugrave" unicode="&#xf9;" horiz-adv-x="522" 
d="M443 476h-116v-8h12q17 0 23.5 -9t6.5 -26v-266q0 -27 -9.5 -49t-26 -38.5t-40 -25.5t-50.5 -9q-45 0 -70.5 30.5t-25.5 82.5l2 318h-109v-8h10q14 0 19.5 -9t5.5 -26v-285q0 -75 37.5 -116.5t106.5 -41.5q52 0 88 23.5t67 71.5l1 -87l9 -2l89 25v8h-9q-23 0 -23 28z
M328 532q-8 8 -23 25.5t-36 43.5t-37 45t-27 30q-18 15 -35 15q-12 0 -23 -8q-14 -9 -14 -19q0 -9 13 -18q21 -12 63 -50q21 -19 40 -35t36 -30z" />
    <glyph glyph-name="uacute" unicode="&#xfa;" horiz-adv-x="522" 
d="M443 476h-116v-8h12q17 0 23.5 -9t6.5 -26v-266q0 -27 -9.5 -49t-26 -38.5t-40 -25.5t-50.5 -9q-45 0 -70.5 30.5t-25.5 82.5l2 318h-109v-8h10q14 0 19.5 -9t5.5 -26v-285q0 -75 37.5 -116.5t106.5 -41.5q52 0 88 23.5t67 71.5l1 -87l9 -2l89 25v8h-9q-23 0 -23 28z
M192 532l43 -1q17 14 36 30.5t40 34.5q21 19 37 31t27 19q13 9 13 18q0 10 -14 19q-11 8 -23 8q-17 0 -35 -15q-11 -11 -27 -30t-37 -45q-42 -53 -60 -69z" />
    <glyph glyph-name="ucircumflex" unicode="&#xfb;" horiz-adv-x="522" 
d="M443 476h-116v-8h12q17 0 23.5 -9t6.5 -26v-266q0 -27 -9.5 -49t-26 -38.5t-40 -25.5t-50.5 -9q-45 0 -70.5 30.5t-25.5 82.5l2 318h-109v-8h10q14 0 19.5 -9t5.5 -26v-285q0 -75 37.5 -116.5t106.5 -41.5q52 0 88 23.5t67 71.5l1 -87l9 -2l89 25v8h-9q-23 0 -23 28z
M115 532l37 -1l108 103l108 -103l37 1l-111 155h-68z" />
    <glyph glyph-name="udieresis" unicode="&#xfc;" horiz-adv-x="522" 
d="M443 476h-116v-8h12q17 0 23.5 -9t6.5 -26v-266q0 -27 -9.5 -49t-26 -38.5t-40 -25.5t-50.5 -9q-45 0 -70.5 30.5t-25.5 82.5l2 318h-109v-8h10q14 0 19.5 -9t5.5 -26v-285q0 -75 37.5 -116.5t106.5 -41.5q52 0 88 23.5t67 71.5l1 -87l9 -2l89 25v8h-9q-23 0 -23 28z
M156 635q-18 0 -30.5 -13.5t-12.5 -31.5t12.5 -31.5t30.5 -13.5t30 13.5t13 31.5q1 23 -12 34t-31 11zM343 635q-18 0 -30.5 -13.5t-12.5 -31.5t12.5 -31.5t30.5 -13.5t30.5 13.5t12.5 31.5q0 20 -12.5 32.5t-30.5 12.5z" />
    <glyph glyph-name="yacute" unicode="&#xfd;" horiz-adv-x="475" 
d="M354 468q12 0 20 -4q6 -3 6 -11l-123 -354l-133 342q-2 8 -2 11q0 8 6 11q12 5 27 5v8h-143v-8q10 -1 17.5 -4t11.5 -13l179 -440l-15 -48q-34 -107 -84 -107l-21 6l-40 4q-10 -3 -19.5 -17.5t-9.5 -29.5q4 -13 23 -24t48 -11q52 0 88 48q35 45 58 110l186 505
q5 13 11 16.5t14 4.5v8h-105v-8zM170 532l43 -1q17 14 36 30.5t40 34.5q21 19 37 31t27 19q13 9 13 18q0 10 -14 19q-11 8 -23 8q-17 0 -35 -15q-11 -11 -27 -30t-37 -45q-42 -53 -60 -69z" />
    <glyph glyph-name="thorn" unicode="&#xfe;" horiz-adv-x="522" 
d="M146 56q20 -36 54 -51t69 -15q94 0 154 73t60 185q0 54 -12.5 98.5t-36.5 75.5t-58.5 48t-77.5 17q-42 0 -80.5 -19.5t-71.5 -70.5v315l-19 1l-98 -27v-5l20 -3l10 1q11 0 13 -7.5t2 -23.5v-811q0 -24 -6 -33t-22 -9h-12v-8h162v8h-14q-22 0 -29 9t-7 33v219zM146 162
v131q0 30 9.5 55t26.5 43.5t39 28.5t48 10q66 0 102.5 -56t36.5 -150q0 -90 -36 -142.5t-102 -52.5q-55 0 -89 39q-35 39 -35 94z" />
    <glyph glyph-name="ydieresis" unicode="&#xff;" horiz-adv-x="475" 
d="M354 468q12 0 20 -4q6 -3 6 -11l-123 -354l-133 342q-2 8 -2 11q0 8 6 11q12 5 27 5v8h-143v-8q10 -1 17.5 -4t11.5 -13l179 -440l-15 -48q-34 -107 -84 -107l-21 6l-40 4q-10 -3 -19.5 -17.5t-9.5 -29.5q4 -13 23 -24t48 -11q52 0 88 48q35 45 58 110l186 505
q5 13 11 16.5t14 4.5v8h-105v-8zM156 635q-18 0 -30.5 -13.5t-12.5 -31.5t12.5 -31.5t30.5 -13.5t30 13.5t13 31.5q1 23 -12 34t-31 11zM343 635q-18 0 -30.5 -13.5t-12.5 -31.5t12.5 -31.5t30.5 -13.5t30.5 13.5t12.5 31.5q0 20 -12.5 32.5t-30.5 12.5z" />
    <glyph glyph-name="OE" unicode="&#x152;" horiz-adv-x="883" 
d="M339 636q22 0 42 -4t35 -10.5t24 -16t9 -21.5v-488q0 -27 -31 -40.5t-79 -13.5q-106 0 -157 76.5t-51 219.5q0 139 53 218.5t155 79.5zM467 0h363l25 119h-16q-10 -23 -21 -36.5t-24.5 -21.5t-31.5 -10.5t-42 -2.5h-138q-29 0 -39 2.5t-10 16.5v261h176q19 0 31.5 -2.5
t19 -8.5t9.5 -16t5 -25h13v151h-13q-3 -30 -14.5 -40t-50.5 -10h-176v229q0 15 2 19t20 4h175q34 0 52 -7q19 -7 25 -48h14l-1 103h-340l-136 6q-72 3 -128.5 -20.5t-95.5 -70t-59.5 -113t-20.5 -149.5q0 -153 77 -245q38 -46 90 -70t118 -21z" />
    <glyph glyph-name="oe" unicode="&#x153;" horiz-adv-x="795" 
d="M387 238q1 -91 -34 -151q-33 -59 -95 -59q-63 0 -104 59q-42 60 -43 151q-1 90 33 151q33 59 96 59q61 0 102 -59q20 -29 31.5 -67t13.5 -84zM421 88q53 -98 161 -98q57 0 100.5 28.5t65.5 77.5l-8 33q-10 -20 -50 -50q-37 -28 -87 -28q-72 0 -112 60q-37 55 -40 150h297
l6 10q-3 100 -47 158t-129 58q-58 0 -94.5 -23.5t-61.5 -68.5q-23 41 -65 66.5t-113 25.5q-96 0 -153 -69t-57 -180t57 -180q57 -68 153 -68q66 0 108.5 26.5t68.5 71.5zM453 302q6 58 30 93q33 48 89 48q45 0 69 -37.5t23 -103.5h-211z" />
    <glyph glyph-name="Scaron" unicode="&#x160;" horiz-adv-x="531" 
d="M470 168q0 36 -11 65.5t-33 55t-53.5 47.5t-72.5 43l7 -3q-66 36 -114 73q-49 40 -49 85q0 46 32.5 76t83.5 30q70 0 111.5 -32.5t57.5 -80.5l-3 7l19 26l-14 119h-11q-1 -5 -4.5 -11.5t-14.5 -7.5q-10 2 -25 6.5l-35 10.5q-39 13 -82 13q-81 0 -136 -49
q-56 -50 -56 -118q0 -76 50 -123q25 -23 55.5 -43.5t67.5 -40.5q32 -17 57.5 -34.5t45.5 -34.5q41 -35 41 -92q0 -26 -10.5 -48t-28.5 -38.5t-42.5 -25.5t-53.5 -9q-35 0 -64 10t-53 27t-41.5 39.5t-28.5 47.5l4 -8l-15 -32l18 -117h12q0 4 3.5 10.5t13.5 7.5q11 -3 27 -7.5
t39 -11.5q45 -12 92 -12q90 0 151 52q63 52 63 128zM120 877l111 -155h68l111 155l-37 1l-108 -103l-108 103z" />
    <glyph glyph-name="scaron" unicode="&#x161;" horiz-adv-x="389" 
d="M349 125q0 27 -9 48.5t-26 39t-42 33t-57 31.5q-54 27 -80.5 48t-26.5 54q0 31 22.5 51.5t67.5 20.5q38 0 67.5 -22.5t44.5 -57.5l10 24l-3 77h-5l-8 -6q-5 1 -16 3.5t-28 7.5q-33 10 -64 10q-32 0 -59 -9t-46.5 -25.5t-31 -40.5t-11.5 -54q0 -59 44 -94q43 -33 81 -51
q22 -11 42 -21.5t34.5 -23.5t23 -28t8.5 -35q0 -36 -28 -58.5t-68 -22.5q-48 0 -83 25.5t-45 68.5l-11 -27v-88h7q4 6 12 6q17 -4 52.5 -12t71.5 -8q69 0 115 38q45 39 45 98zM50 687l111 -155h68l111 155l-37 1l-108 -103l-108 103z" />
    <glyph glyph-name="Ydieresis" unicode="&#x178;" horiz-adv-x="673" 
d="M501 667q32 0 35 -12l1 -8q0 -6 -5 -16l-177 -279l-179 275q-5 8 -7 14t-2 11t3 8q10 7 37 7v10h-189v-10q9 0 15.5 -1.5t12.5 -5.5t13.5 -12.5t17.5 -23.5l221 -327v-238q0 -28 -7.5 -38.5t-33.5 -10.5h-16v-10h200v10h-17q-26 0 -33.5 10.5t-7.5 38.5v241l212 327
q14 21 28.5 29.5t33.5 10.5v10h-156v-10zM266 805q-18 0 -30.5 -13.5t-12.5 -31.5t12.5 -31.5t30.5 -13.5t30 13.5t13 31.5q1 23 -12 34t-31 11zM453 805q-18 0 -30.5 -13.5t-12.5 -31.5t12.5 -31.5t30.5 -13.5t30.5 13.5t12.5 31.5q0 20 -12.5 32.5t-30.5 12.5z" />
    <glyph glyph-name="florin" unicode="&#x192;" 
d="M436 687q-72 0 -115 -60.5t-63 -169.5l-8 -45h-113l-7 -41h113q-8 -44 -15 -85t-13 -81q-6 -39 -12.5 -83t-12.5 -94q-11 -94 -34 -143.5t-66 -49.5q-8 0 -18.5 3t-13.5 7l9 24q-1 10 -11 10q-7 0 -14 -3q-24 -8 -27 -37q4 -16 24 -28.5t44 -12.5q62 0 102 46
q20 23 37.5 65.5t31.5 105.5q11 51 19 96t15 87t14 85t14 88h124l5 41h-122l8 30q13 119 36 163q22 43 63 43q11 0 22 -3.5t15 -7.5l-8 -20q1 -12 13 -12q2 0 12 2q25 7 26 37q-4 17 -26.5 30t-47.5 13z" />
    <glyph glyph-name="circumflex" unicode="&#x2c6;" horiz-adv-x="284" 
d="M-2 532l36 -1l108 103l108 -103l37 1l-111 155h-68z" />
    <glyph glyph-name="tilde" unicode="&#x2dc;" horiz-adv-x="284" 
d="M291 654h-31q-17 -41 -46 -41q-13 0 -28 4t-34 14q-38 19 -70 19q-35 0 -59.5 -26t-32.5 -68h31q17 41 46 41q23 0 61 -19q19 -10 36 -14t34 -4q36 0 60.5 26t32.5 68z" />
    <glyph glyph-name="endash" unicode="&#x2013;" horiz-adv-x="500" 
d="M0 272v-56h500v56h-500z" />
    <glyph glyph-name="emdash" unicode="&#x2014;" horiz-adv-x="1000" 
d="M0 272v-56h1000v56h-1000z" />
    <glyph glyph-name="quoteleft" unicode="&#x2018;" horiz-adv-x="309" 
d="M174 457q28 0 28 31q0 14 -8.5 20.5t-20.5 6.5q-3 0 -3 10q0 13 4 36q6 31 6 42l-1 6q-2 2 -2 6q0 6 5 19q11 21 39 40l-29 11q-17 -20 -33 -44.5t-31 -53.5q-30 -57 -30 -77q0 -28 23.5 -40.5t52.5 -12.5z" />
    <glyph glyph-name="quoteright" unicode="&#x2019;" horiz-adv-x="309" 
d="M135 685q-33 0 -33 -31q0 -14 9.5 -20.5t24.5 -6.5q2 0 2 -8q0 -5 -1.5 -15t-3.5 -24q-2 -16 -3.5 -26.5t-1.5 -15.5l1 -5q2 -2 2 -7q0 -6 -5 -19q-9 -19 -38 -39l29 -11q34 40 64 97q30 58 30 78q0 28 -23.5 40.5t-52.5 12.5z" />
    <glyph glyph-name="quotesinglbase" unicode="&#x201a;" horiz-adv-x="309" 
d="M135 92q-33 0 -33 -31q0 -14 9.5 -20.5t24.5 -6.5q2 0 2 -8q0 -5 -1.5 -14.5t-3.5 -23.5q-2 -16 -3.5 -26.5t-1.5 -15.5l1 -5q2 -2 2 -7q0 -6 -5 -19q-9 -19 -38 -39l29 -11q34 40 64 97t30 77q0 28 -23.5 40.5t-52.5 12.5z" />
    <glyph glyph-name="quotedblleft" unicode="&#x201c;" horiz-adv-x="490" 
d="M361 457q28 0 28 31q0 14 -8.5 20.5t-20.5 6.5q-3 0 -3 10q0 13 4 36q6 31 6 42l-1 6q-2 2 -2 6q0 6 5 19q11 21 39 40l-29 11q-17 -20 -33 -44.5t-31 -53.5q-30 -57 -30 -77q0 -28 23.5 -40.5t52.5 -12.5zM155 457q28 0 28 31q0 14 -8.5 20.5t-20.5 6.5q-3 0 -3 10
q0 13 4 36q6 31 6 42l-1 6q-2 2 -2 6q0 6 5 19q11 21 39 40l-29 11q-17 -20 -33 -44.5t-31 -53.5q-30 -57 -30 -77q0 -28 23.5 -40.5t52.5 -12.5z" />
    <glyph glyph-name="quotedblright" unicode="&#x201d;" horiz-adv-x="490" 
d="M337 685q-33 0 -33 -31q0 -14 9.5 -20.5t24.5 -6.5q2 0 2 -8q0 -5 -1.5 -15t-3.5 -24q-2 -16 -3.5 -26.5t-1.5 -15.5l1 -5q2 -2 2 -7q0 -6 -5 -19q-9 -19 -38 -39l29 -11q34 40 64 97q30 58 30 78q0 28 -23.5 40.5t-52.5 12.5zM131 685q-33 0 -33 -31q0 -14 9.5 -20.5
t24.5 -6.5q2 0 2 -8q0 -5 -1.5 -15t-3.5 -24q-2 -16 -3.5 -26.5t-1.5 -15.5l1 -5q2 -2 2 -7q0 -6 -5 -19q-9 -19 -38 -39l29 -11q34 40 64 97q30 58 30 78q0 28 -23.5 40.5t-52.5 12.5z" />
    <glyph glyph-name="quotedblbase" unicode="&#x201e;" horiz-adv-x="490" 
d="M345 92q-33 0 -33 -31q0 -14 9.5 -20.5t24.5 -6.5q2 0 2 -8q0 -5 -1.5 -14.5t-3.5 -23.5q-2 -16 -3.5 -26.5t-1.5 -15.5l1 -5q2 -2 2 -7q0 -6 -5 -19q-9 -19 -38 -39l29 -11q34 40 64 97t30 77q0 28 -23.5 40.5t-52.5 12.5zM139 92q-33 0 -33 -31q0 -14 9.5 -20.5
t24.5 -6.5q2 0 2 -8q0 -5 -1.5 -14.5t-3.5 -23.5q-2 -16 -3.5 -26.5t-1.5 -15.5l1 -5q2 -2 2 -7q0 -6 -5 -19q-9 -19 -38 -39l29 -11q34 40 64 97t30 77q0 28 -23.5 40.5t-52.5 12.5z" />
    <glyph glyph-name="dagger" unicode="&#x2020;" 
d="M304 658q-11 26 -41 26t-41 -26q0 -15 3.5 -33t7 -39.5t6.5 -48t3 -58.5q-46 1 -84 10t-71 9q-22 -6 -22 -37q0 -30 22 -36q33 0 71 9t84 10q0 -48 -4.5 -87.5t-17.5 -72.5q16 -91 19.5 -182t3.5 -185h40q0 94 3.5 185t19.5 182q-12 33 -17 72.5t-5 87.5q48 -1 85 -10
t69 -9q22 6 22 36q0 31 -22 37q-32 0 -69 -9t-85 -10q0 32 3 58.5t6.5 48t7 39.5t3.5 33z" />
    <glyph glyph-name="daggerdbl" unicode="&#x2021;" 
d="M303 658q-11 26 -41 26t-39 -26q0 -31 8 -71q4 -19 6.5 -46t4.5 -62q-46 1 -84 10t-70 9q-22 -6 -22 -37q0 -30 22 -36q32 0 70 9t84 10q0 -45 -4.5 -83t-16.5 -66q12 -27 16 -61.5t5 -79.5q-46 1 -84 10t-70 9q-22 -6 -22 -37q0 -30 22 -36q32 0 70 9t84 10
q0 -60 -10 -104.5t-10 -73.5q8 -26 41 -26t41 26q0 29 -10 73.5t-10 104.5q46 -1 83.5 -10t69.5 -9q22 6 22 36q0 31 -22 37q-32 0 -69.5 -9t-83.5 -10q0 45 4 79.5t17 61.5q-12 28 -16.5 66t-4.5 83q46 -1 83.5 -10t69.5 -9q22 6 22 36q0 31 -22 37q-32 0 -69.5 -9
t-83.5 -10q2 35 4.5 62t6.5 46q8 40 8 71z" />
    <glyph glyph-name="bullet" unicode="&#x2022;" horiz-adv-x="345" 
d="M172 439q-42 0 -71 -29q-29 -31 -29 -71q0 -42 29 -71q28 -29 71 -29t71 29q29 29 29 71q0 40 -29 71q-29 29 -71 29z" />
    <glyph glyph-name="ellipsis" unicode="&#x2026;" horiz-adv-x="1000" 
d="M500 89q-20 0 -34 -14t-14 -34t14 -33.5t34 -13.5t34 13.5t14 33.5t-14 34t-34 14zM833 89q-20 0 -34 -14t-14 -34t14 -33.5t34 -13.5t34 13.5t14 33.5t-14 34t-34 14zM167 89q-20 0 -34 -14t-14 -34t14 -33.5t34 -13.5t34 13.5t14 33.5t-14 34t-34 14z" />
    <glyph glyph-name="perthousand" unicode="&#x2030;" horiz-adv-x="1000" 
d="M192 689q-68 0 -119 -61q-51 -62 -51 -144q0 -145 116 -145q65 0 112 63q48 64 48 153q0 63 -28 99q20 -4 43 -6.5t44 -4t38 -2t25 -0.5h10q42 0 64 22l-396 -681h52l423 730h-47q-26 -34 -72 -49q-11 -4 -23 -4h-20t-32.5 0.5t-39.5 2t-39.5 3.5t-32.5 5.5t-19 8.5
l-7 -1q-22 11 -49 11zM198 654q28 0 43.5 -27.5t15.5 -75.5q0 -68 -35 -123q-35 -53 -76 -53q-59 0 -59 91q0 72 35 130q36 58 76 58zM532 335q-67 0 -119 -61q-51 -62 -51 -143q0 -144 116 -144q66 0 113 63q47 64 47 152q0 63 -27.5 98t-78.5 35zM538 301q29 0 44 -27.5
t15 -75.5q0 -68 -35 -123q-35 -53 -75 -53q-60 0 -60 91q0 72 35 130q36 58 76 58zM873 335q-67 0 -119 -61q-51 -62 -51 -143q0 -144 116 -144q66 0 113 63q47 64 47 152q0 63 -27.5 98t-78.5 35zM879 301q29 0 44 -27.5t15 -75.5q0 -68 -35 -123q-35 -53 -75 -53
q-60 0 -60 91q0 72 35 130q36 58 76 58z" />
    <glyph glyph-name="guilsinglleft" unicode="&#x2039;" horiz-adv-x="309" 
d="M133 245q33 45 66.5 92t63.5 95q-5 7 -15 8l-8 1q-7 0 -14 -3q-42 -51 -84 -97t-87 -94v-4q45 -48 87 -94t84 -97q11 -5 17 -4h5q11 3 15 10q-30 48 -63.5 95t-66.5 92z" />
    <glyph glyph-name="guilsinglright" unicode="&#x203a;" horiz-adv-x="309" 
d="M177 245q-34 -45 -67 -92t-63 -95q3 -7 13 -10l6 -1l8 2t9 3l172 191v4l-172 191q-8 3 -15 3l-8 -1q-10 -1 -13 -8q30 -48 63 -95t67 -92z" />
    <glyph glyph-name="trademark" unicode="&#x2122;" horiz-adv-x="983" 
d="M380 606v71h-335v-71h17q4 16 16.5 27.5t31.5 11.5h69v-327q0 -13 -7.5 -22t-19.5 -9v-18h121v18q-12 0 -19.5 9t-7.5 22v327h69q19 0 31 -11.5t16 -27.5h18zM935 677h-99l-142 -315l-139 315h-102v-18q13 0 21 -9t8 -22v-310q0 -13 -8 -22t-21 -9v-18h101v18
q-13 0 -21.5 9t-8.5 22v282l144 -331h27l146 331v-282q0 -13 -7.5 -22t-19.5 -9v-18h121v18q-12 0 -19.5 9t-7.5 22v310q0 13 7.5 22t19.5 9v18z" />
    <glyph glyph-name="minus" unicode="&#xe001;" horiz-adv-x="579" 
d="M37 220h504v66h-504v-66z" />
    <glyph glyph-name="notequal" unicode="&#xe002;" horiz-adv-x="579" 
d="M37 120h165l-45 -111h66l45 111h273v66h-246l54 134h192v66h-165l45 111h-66l-45 -111h-273v-66h246l-54 -134h-192v-66z" />
    <glyph glyph-name="infinity" unicode="&#xe003;" horiz-adv-x="713" 
d="M76 264q0 31 24 60q26 29 67 29q45 0 82 -26.5t70 -62.5q-33 -36 -70 -62.5t-82 -26.5q-42 0 -66.5 23.5t-24.5 65.5zM357 229q74 -69 115 -87q42 -18 75 -18q53 0 97 39q45 40 45 101q0 59 -45 100q-45 40 -97 40q-43 0 -81 -19q-19 -10 -46.5 -31t-62.5 -55
q-35 34 -62.5 55t-47.5 31q-37 19 -80 19q-54 0 -98 -40q-44 -39 -44 -100q0 -62 44 -101q43 -39 98 -39q33 0 75 18q41 18 115 87zM638 264q0 -42 -24.5 -65.5t-66.5 -23.5q-45 0 -82 26.5t-70 62.5q33 36 70 62.5t82 26.5q42 0 66 -29q25 -28 25 -60z" />
    <glyph glyph-name="lessequal" unicode="&#xe004;" horiz-adv-x="579" 
d="M36 57v-57h509v57h-509zM115 315l430 195l1 66l-510 -231v-60l510 -231l-1 66z" />
    <glyph glyph-name="greaterequal" unicode="&#xe005;" horiz-adv-x="579" 
d="M545 57h-509v-57h509v57zM36 120l-1 -66l510 231v60l-510 231l1 -66l430 -195z" />
    <glyph glyph-name="partialdiff" unicode="&#xe006;" horiz-adv-x="494" 
d="M104 667q26 13 52.5 23t61.5 10q79 0 123 -71t44 -184q0 -24 -2.5 -52.5t-8.5 -58.5q-21 18 -39.5 31t-36 21.5t-35.5 12t-39 3.5q-82 0 -140 -67q-58 -65 -58 -159q0 -97 61 -146q62 -50 128 -50q124 2 185 132q62 133 62 281q0 158 -78 257t-188 99q-42 0 -74.5 -10.5
t-56.5 -21.5zM366 299q-18 -149 -58 -219.5t-106 -70.5q-24 0 -41 11t-28 30t-16 44t-5 54q0 98 46 156q47 59 100 59q40 0 65.5 -19.5t42.5 -44.5z" />
    <glyph glyph-name="summation" unicode="&#xe007;" horiz-adv-x="713" 
d="M617 745h-497l-104 7l347 -454l-349 -397l58 3h503q18 0 38.5 -4t38.5 -7q3 29 7.5 55t9.5 52.5t11.5 54.5t14.5 61h-23q-29 -71 -54 -92q-26 -21 -81 -21h-371l294 339l-273 358h263q87 0 113 -30q27 -30 40 -84h20z" />
    <glyph glyph-name="product" unicode="&#xe008;" horiz-adv-x="823" 
d="M706 629q0 52 24 75.5t70 23.5v23h-773v-23q46 0 70.5 -23.5t24.5 -75.5v-626q0 -21 -4 -36t-14.5 -24.5t-29.5 -14.5t-49 -5v-23h307v23q-30 1 -48.5 6t-29.5 14.5t-15 24t-4 35.5v693h358v-693q0 -42 -19 -61t-77 -19v-23h306v23q-59 0 -78 19.5t-19 60.5v626z" />
    <glyph glyph-name="pi" unicode="&#xe009;" horiz-adv-x="549" 
d="M335 401q-5 -45 -8.5 -80.5t-6 -65t-4 -54.5t-1.5 -49q0 -81 28 -124t68 -43q24 0 45 11.5t37 33t26 52t11 69.5h-22q0 -35 -17.5 -55t-41.5 -20q-11 0 -22 5t-21 16t-16 28t-6 41q0 37 3 111q3 75 9 124h126v86h-373q-56 0 -88 -44t-51 -105h17q20 36 41 49.5t46 13.5
h47l-29 -229q-3 -22 -16 -42.5t-34 -43.5q-11 -11 -18 -23.5t-7 -27.5q0 -21 16 -37t38 -16q29 0 44 20.5t21 47.5l46 351h113z" />
    <glyph glyph-name="integral" unicode="&#xe00a;" horiz-adv-x="274" 
d="M192 399q0 70 -3 135.5t-8 126.5t-7.5 100.5t-2.5 56.5q0 8 4 15t14 7q6 0 11.5 -4t11.5 -8.5t12.5 -8t15.5 -3.5q24 0 37.5 14.5t13.5 29.5q0 28 -21.5 42t-44.5 14q-69 0 -87 -110t-18 -323q0 -253 3 -314q3 -62 3 -95q0 -60 -7.5 -84.5t-18.5 -24.5q-9 0 -23 17
q-13 16 -31 16q-16 0 -30 -13t-14 -31q0 -14 6 -25t15 -18.5t19.5 -12t19.5 -4.5q78 0 104 120q13 61 19.5 156.5t6.5 228.5z" />
    <glyph glyph-name="Omega" unicode="&#xe00b;" horiz-adv-x="768" 
d="M313 152q-30 9 -56 28t-45 50t-30 73.5t-11 98.5q0 127 58.5 190.5t155.5 63.5q99 0 156.5 -64.5t57.5 -189.5q0 -111 -43 -172q-44 -60 -99 -78l-16 -152h295v162h-15q-5 -18 -9 -30t-11 -18.5t-17.5 -9.5t-28.5 -3h-158l2 28q104 24 160 101q57 78 57 169
q0 136 -99 213q-97 76 -232 76t-233 -77t-98 -212q0 -52 15.5 -96.5t43.5 -79t68 -58.5t90 -36l2 -28h-158q-17 0 -27.5 2.5t-17.5 9.5t-12 19t-9 30h-15v-162h295z" />
    <glyph glyph-name="radical" unicode="&#xe00c;" horiz-adv-x="549" 
d="M26 417l96 47l243 -501l150 949l-35 5l-127 -798l-197 403l-146 -72z" />
    <glyph glyph-name="approxequal" unicode="&#xe00d;" horiz-adv-x="579" 
d="M494 412q-17 -26 -41.5 -40t-51.5 -14q-18 0 -104 26q-84 26 -116 26q-40 0 -75 -18t-67 -61l47 -38q24 34 44 47t48 13q26 0 110 -28q85 -27 116 -27q38 0 77 20.5t60 58.5zM494 212q-17 -26 -41.5 -40t-51.5 -14q-18 0 -104 26q-84 26 -116 26q-40 0 -75 -18t-67 -61
l47 -38q24 34 44 47t48 13q26 0 110 -28q85 -27 116 -27q38 0 77 20.5t60 58.5z" />
    <glyph glyph-name="lozenge" unicode="&#xe00e;" horiz-adv-x="494" 
d="M272 0l194 377l-194 368h-60l-194 -368l194 -377h60zM406 377l-164 -323l-164 323l164 314z" />
    <glyph glyph-name="apple" unicode="&#xe00f;" horiz-adv-x="799" 
d="M457 -69l-139 153h250q31 0 49.5 -3.5t25.5 -7.5l2 -2q8 -8 -14 -30l5 -5l117 116l-6 6q-20 -18 -56 -17l-354 5l2 298q0 20 4.5 30t16.5 25l-5 6l-103 -103l6 -5l4 4q17 17 27 8q8 -9 8 -41l-5 -273l-141 140q-16 16 -18.5 25t11.5 23l7 7h97v6h-9q-14 0 -18 6.5
t-4 24.5v213q8 39 33.5 64.5t66.5 25.5q35 0 52 -24t17 -67v-210q0 -19 -4 -26t-18 -7h-9v-6h119v6h-9q-15 0 -19 6.5t-4 24.5v213q5 39 30.5 64.5t65.5 25.5q35 0 53.5 -24t18.5 -67v-210q0 -19 -4 -26t-18 -7h-9v-6h117v6h-9q-14 0 -17.5 6.5t-3.5 24.5v214
q0 62 -27.5 96.5t-78.5 34.5q-48 0 -81.5 -23t-47.5 -53q-7 34 -32.5 55t-59.5 21q-40 0 -69.5 -18.5t-54.5 -54.5v69l-15 -3l-68 -20v-4l13 -2l6 1q7 0 8.5 -6.5t1.5 -17.5v-287q0 -19 -5 -26t-17 -7h-10v-6h11l-97 -97l6 -5l8 8q13 13 22 10.5t25 -18.5l310 -310
q15 -15 17.5 -24t-10.5 -23l-8 -7l6 -6l102 103l-5 5l-8 -8q-5 -5 -12.5 -4t-15.5 4.5t-14.5 7.5t-8.5 5z" />
    <glyph glyph-name="Delta" unicode="&#xe010;" horiz-adv-x="612" 
d="M326 688l-320 -688h602zM290 517l194 -468h-412z" />
    <glyph glyph-name="FLFB01h" unicode="&#xe011;" horiz-adv-x="556" 
d="M383 645q0 -26 5.5 -32t29.5 -6t29.5 6t5.5 32t-5.5 32t-29.5 6t-30 -6q0 -2 -1 -3v6q-3 13 -27 25.5t-70 12.5q-82 0 -130.5 -53.5t-48.5 -153.5v-35h-85v-41h85v-385q0 -24 -5.5 -33t-21.5 -9h-11v-8h135v8h-7q-12 0 -15 8t-3 31v388h82v41h-82v83q0 57 24.5 89.5
t67.5 32.5q22 0 36.5 -7.5t25.5 -21.5l1 2q7 -10 19 -10q4 0 10 2q10 4 17 17q-1 -2 -1 -18zM458 47v435l-17 -1q-23 -2 -40 -3.5t-28 -2.5h-28t-40 1v-9q0 -3 9 -4t27 -4l31 -1q12 -1 13 -12t1 -36v-360q0 -24 -6 -33t-22 -9h-12v-8h135v8h-7q-10 0 -13 8t-3 31z" />
    <glyph glyph-name="FLFB02h" unicode="&#xe012;" horiz-adv-x="556" 
d="M354 687q-2 11 -29 20q-31 11 -51 11q-83 0 -123 -54.5t-40 -146.5v-41h-84v-41h84v-385q0 -24 -5.5 -33t-21.5 -9h-11v-8h136v8h-8q-12 0 -15 8t-3 31v388h161v41h-161v82q0 57 17 89t53 32q20 0 31.5 -8t23.5 -17q6 -8 17 -8q3 0 11 2q21 6 21 30v2l11 -1l7 1
q0 -1 5 -8q7 -7 7 -24v-598q0 -24 -5.5 -33t-20.5 -9h-11v-8h131v8h-6q-11 0 -13.5 8t-2.5 31v665h-19z" />
    <glyph glyph-name="periodcentered" unicode="&#xe013;" horiz-adv-x="262" 
d="M132 322q-17 0 -26.5 -1.5t-14 -6t-6 -14.5t-1.5 -26q0 -17 1.5 -26.5t6 -14t14 -6t26.5 -1.5q16 0 26 1.5t14.5 6t6 14t1.5 26.5q0 16 -1.5 26t-6 14.5t-14.5 6t-26 1.5z" />
    <glyph glyph-name="FLF8FFh" unicode="&#xe014;" horiz-adv-x="253" 
d="M161 47v435l-19 1l-98 -34v-5l20 -3l10 1q11 0 13 -7.5t2 -23.5v-361q0 -24 -6.5 -33t-24.5 -9h-13v-8h145v8h-8q-14 0 -17.5 8t-3.5 31z" />
    <glyph glyph-name="macron" unicode="&#xe015;" horiz-adv-x="284" 
d="M1 625v-52h281v52h-281z" />
    <glyph glyph-name="Dhacek" unicode="&#xe016;" horiz-adv-x="698" 
d="M562 340q0 -147 -82 -220t-241 -73q-26 0 -40 4.5t-19 20.5v540q11 9 27 13.5t44 4.5q151 0 231 -74t80 -216zM95 618v-559q0 -28 -6.5 -38.5t-28.5 -10.5h-14v-10h224q176 0 277 88q103 88 103 249q0 163 -96 251.5t-276 88.5h-232v-10h14q22 0 28.5 -10.5t6.5 -38.5z
M141 877l111 -155h68l111 155l-37 1l-108 -103l-108 103z" />
    <glyph glyph-name="Ehacek" unicode="&#xe017;" horiz-adv-x="559" 
d="M502 0l25 119h-16q-10 -23 -21 -36.5t-25 -21.5t-31.5 -10.5t-41.5 -2.5h-165q-29 0 -39 2.5t-10 16.5v261h203q19 0 31.5 -2.5t19 -8.5t9.5 -16t5 -25h13v151h-13q-3 -30 -14.5 -40t-50.5 -10h-203v229q0 15 2 19t20 4h202q33 0 51 -7q20 -8 26 -48h14l-1 103h-446v-10
h14q20 0 26.5 -10.5t6.5 -38.5v-559q0 -28 -6.5 -38.5t-26.5 -10.5h-14v-10h456zM138 877l111 -155h68l111 155l-37 1l-108 -103l-108 103z" />
    <glyph glyph-name="dhacek" unicode="&#xe018;" horiz-adv-x="652" 
d="M377 68v-73l110 30v8q-23 0 -30.5 3.5t-7.5 21.5v654l-19 1l-90 -27v-5l16 -3l9 1q9 0 10.5 -7.5t1.5 -23.5v-230q-28 42 -62 55.5t-69 13.5q-93 0 -151 -72q-58 -71 -58 -184q0 -112 52.5 -176.5t148.5 -64.5q39 0 74.5 16.5t64.5 61.5zM376 172q0 -27 -9 -51t-24.5 -42
t-37 -28t-45.5 -10q-70 0 -109 57t-39 156q0 90 35.5 142.5t101.5 52.5q28 0 51.5 -12t40 -33t26 -50.5t9.5 -63.5v-118zM576 707q-33 0 -33 -31q0 -14 9.5 -20.5t24.5 -6.5q2 0 2 -8q0 -5 -1.5 -15t-3.5 -24q-2 -16 -3.5 -26.5t-1.5 -15.5l1 -5q2 -2 2 -7q0 -6 -5 -19
q-9 -19 -38 -39l29 -11q34 40 64 97q30 58 30 78q0 28 -23.5 40.5t-52.5 12.5z" />
    <glyph glyph-name="ehacek" unicode="&#xe019;" horiz-adv-x="469" 
d="M421 96l-8 33q-13 -21 -55 -50q-40 -28 -95 -28q-78 0 -123 60q-41 56 -44 150h332l-1 10q-10 99 -53.5 157.5t-131.5 58.5q-94 0 -152 -73q-58 -71 -58 -186q0 -112 52.5 -175t148.5 -63q63 0 112.5 28.5t75.5 77.5zM98 302q8 59 34 93q37 48 99 48q51 0 78 -37.5
t32 -103.5h-243zM94 687l111 -155h68l111 155l-37 1l-108 -103l-108 103z" />
    <glyph glyph-name="lhacek" unicode="&#xe01a;" horiz-adv-x="359" 
d="M46 681l20 -3l10 1q11 0 13 -7.5t2 -23.5v-598q0 -24 -6.5 -33t-24.5 -9h-13v-8h145v8h-8q-14 0 -17.5 8t-3.5 31v665l-19 1l-98 -27v-5zM289 707q-33 0 -33 -31q0 -14 9.5 -20.5t24.5 -6.5q2 0 2 -8q0 -5 -1.5 -15t-3.5 -24q-2 -16 -3.5 -26.5t-1.5 -15.5l1 -5
q2 -2 2 -7q0 -6 -5 -19q-9 -19 -38 -39l29 -11q34 40 64 97q30 58 30 78q0 28 -23.5 40.5t-52.5 12.5z" />
    <glyph glyph-name="Nhacek" unicode="&#xe01b;" horiz-adv-x="698" 
d="M547 131q-94 141 -187 273t-187 273h-132v-10h12q9 0 14.5 -1.5t10.5 -9.5l17 -31v-543q0 -40 -7 -56t-31 -16h-16v-10h161v10h-15q-23 0 -30 16t-7 56v487l401 -574h51v598q0 42 7 58t30 16h16v10h-162v-10h17q24 0 30.5 -16t6.5 -58v-462zM207 877l111 -155h68l111 155
l-37 1l-108 -103l-108 103z" />
    <glyph glyph-name="odoubleacute" unicode="&#xe01c;" 
d="M489 238q0 111 -63 180q-62 69 -165 69q-102 0 -165 -69q-62 -70 -62 -180t62 -180q62 -68 165 -68q102 0 165 68q63 69 63 180zM412 238q1 -91 -37 -151q-38 -59 -105 -59t-112 59q-22 29 -34 67t-13 84q-1 90 36 151q38 59 105 59q68 0 112 -59q22 -29 34 -67t14 -84z
M112 531h43l137 115q10 9 10 18q0 8 -12 19q-10 8 -21 8q-17 0 -36 -16zM272 531h43l136 115q10 9 10 18q0 8 -11 19q-10 8 -21 8q-17 0 -36 -16z" />
    <glyph glyph-name="Odoubleacute" unicode="&#xe01d;" horiz-adv-x="719" 
d="M587 338q0 -134 -62 -220q-62 -84 -165 -84q-105 0 -166 84q-61 85 -61 220q0 137 61 220q61 85 166 85q104 0 165 -85q62 -85 62 -220zM677 338q0 157 -88 254q-87 98 -229 98q-143 0 -230 -98t-87 -254t87 -253t230 -97q142 0 229 97q88 97 88 253zM209 721h43l137 115
q10 9 10 18q0 8 -12 19q-10 8 -21 8q-17 0 -36 -16zM369 721h43l136 115q10 9 10 18q0 8 -11 19q-10 8 -21 8q-17 0 -36 -16z" />
    <glyph glyph-name="rhacek" unicode="&#xe01e;" horiz-adv-x="327" 
d="M150 47v242q0 26 7.5 50t21.5 44q27 41 63 41q13 0 21.5 -2.5t18.5 -9.5l6 -1q8 0 19 8q15 10 15 35q-4 15 -15.5 24t-31.5 9q-38 0 -70 -25.5t-58 -80.5v101l-19 1l-89 -30v-5l17 -3l9 1q9 0 11 -8t2 -23v-365q0 -24 -6 -33t-22 -9h-12v-8h160v8h-14q-22 0 -28 8t-6 31z
M38 687l111 -155h68l111 155l-37 1l-108 -103l-108 103z" />
    <glyph glyph-name="Udoubleacute" unicode="&#xe01f;" horiz-adv-x="698" 
d="M545 225q0 -88 -49 -137.5t-136 -49.5q-181 0 -181 199v381q0 28 6.5 38.5t29.5 10.5h14v10h-186v-10h15q22 0 29 -10.5t7 -38.5v-379q0 -121 66 -186t187 -65t187 64.5t66 184.5v350q0 45 7 62.5t30 17.5h15v10h-159v-10h15q23 0 30 -17.5t7 -62.5v-362zM198 721h43
l137 115q10 9 10 18q0 8 -12 19q-10 8 -21 8q-17 0 -36 -16zM358 721h43l136 115q10 9 10 18q0 8 -11 19q-10 8 -21 8q-17 0 -36 -16z" />
    <glyph glyph-name="thacek" unicode="&#xe020;" horiz-adv-x="436" 
d="M163 125v310h109v41h-109v127q0 6 -0.5 6.5t-2.5 0.5l-28 -10q-15 -37 -28 -67t-28 -55l-60 -13v-30h75v-310q0 -70 23.5 -102.5t77.5 -32.5q34 0 61.5 15.5t36.5 30.5l-8 29q-9 -6 -23.5 -15t-36.5 -9q-59 0 -59 84zM356 685q-33 0 -33 -31q0 -14 9.5 -20.5t24.5 -6.5
q2 0 2 -8q0 -5 -1.5 -15t-3.5 -24q-2 -16 -3.5 -26.5t-1.5 -15.5l1 -5q2 -2 2 -7q0 -6 -5 -19q-9 -19 -38 -39l29 -11q34 40 64 97q30 58 30 78q0 28 -23.5 40.5t-52.5 12.5z" />
    <glyph glyph-name="dcroat" unicode="&#xe021;" horiz-adv-x="540" 
d="M266 588v-46h111v-124q-28 42 -62 55.5t-69 13.5q-93 0 -151 -72q-58 -71 -58 -184q0 -112 52.5 -176.5t148.5 -64.5q39 0 74.5 16.5t64.5 61.5v-73l110 30v8q-23 0 -30.5 3.5t-7.5 21.5v484h68v46h-68v124l-19 1l-90 -27v-5l16 -3l9 1q9 0 10.5 -7.5t1.5 -23.5v-60h-111
zM376 172q0 -27 -9 -51t-24.5 -42t-37 -28t-45.5 -10q-70 0 -109 57t-39 156q0 90 35.5 142.5t101.5 52.5q28 0 51.5 -12t40 -33t26 -50.5t9.5 -63.5v-118z" />
    <glyph glyph-name="nhacek" unicode="&#xe022;" horiz-adv-x="522" 
d="M443 47v273q0 78 -36.5 122.5t-102.5 44.5q-51 0 -87.5 -23.5t-68.5 -69.5v88l-19 1l-86 -30v-5l16 -3l8 1q8 0 10 -8t2 -23v-365q0 -24 -5 -33t-19 -9h-10v-8h128v8h-6q-11 0 -13.5 8t-2.5 31v272q10 49 42.5 82t83.5 33q45 0 69.5 -31t24.5 -85v-268q0 -24 -5 -33
t-21 -9h-10v-8h127v8h-5q-9 0 -11.5 8t-2.5 31zM119 687l111 -155h68l111 155l-37 1l-108 -103l-108 103z" />
    <glyph glyph-name="Lhacek" unicode="&#xe023;" horiz-adv-x="535" 
d="M176 618q0 28 7 38.5t29 10.5h15v10h-184v-10h14q21 0 27.5 -10.5t6.5 -38.5v-559q0 -28 -6.5 -38.5t-27.5 -10.5h-14v-10h451l28 121l-13 3q-22 -51 -52 -64q-29 -12 -86 -12h-146q-29 0 -39 2.5t-10 16.5v551zM401 685q-33 0 -33 -31q0 -14 9.5 -20.5t24.5 -6.5
q2 0 2 -8q0 -5 -1.5 -15t-3.5 -24q-2 -16 -3.5 -26.5t-1.5 -15.5l1 -5q2 -2 2 -7q0 -6 -5 -19q-9 -19 -38 -39l29 -11q34 40 64 97q30 58 30 78q0 28 -23.5 40.5t-52.5 12.5z" />
    <glyph glyph-name="lmiddledot" unicode="&#xe024;" horiz-adv-x="302" 
d="M46 681l20 -3l10 1q11 0 13 -7.5t2 -23.5v-598q0 -24 -6.5 -33t-24.5 -9h-13v-8h145v8h-8q-14 0 -17.5 8t-3.5 31v665l-19 1l-98 -27v-5zM272 417q-15 0 -23.5 -1.5t-13 -6t-5.5 -13.5t-1 -24t1 -24t5.5 -13.5t13 -6t23.5 -1.5t23.5 1.5t13 6t5.5 13.5t1 24t-1 24
t-5.5 13.5t-13 6t-23.5 1.5z" />
    <glyph glyph-name="Lmiddledot" unicode="&#xe025;" horiz-adv-x="535" 
d="M176 618q0 28 7 38.5t29 10.5h15v10h-184v-10h14q21 0 27.5 -10.5t6.5 -38.5v-559q0 -28 -6.5 -38.5t-27.5 -10.5h-14v-10h451l28 121l-13 3q-22 -51 -52 -64q-29 -12 -86 -12h-146q-29 0 -39 2.5t-10 16.5v551zM388 417q-15 0 -23.5 -1.5t-13 -6t-5.5 -13.5t-1 -24
t1 -24t5.5 -13.5t13 -6t23.5 -1.5t23.5 1.5t13 6t5.5 13.5t1 24t-1 24t-5.5 13.5t-13 6t-23.5 1.5z" />
    <glyph glyph-name="Thacek" unicode="&#xe026;" horiz-adv-x="559" 
d="M323 59v567h130q32 0 50 -9q19 -8 30 -60h13l-3 120h-526l-4 -120h14q10 52 30 60q19 9 49 9h132v-567q0 -28 -7 -38.5t-31 -10.5h-16v-10h193v10h-16q-24 0 -31 10.5t-7 38.5zM138 877l111 -155h68l111 155l-37 1l-108 -103l-108 103z" />
    <glyph glyph-name="Rhacek" unicode="&#xe027;" horiz-adv-x="615" 
d="M180 316l62 1q67 -50 96 -85q15 -18 38 -48.5t55 -75.5l47 -108h122v10q-22 13 -46 48.5t-59 102.5q-20 26 -37 48t-31 39t-36.5 39t-51.5 48q87 12 129.5 56t42.5 107q0 88 -59 133.5t-165 45.5h-239v-10h14q20 0 26.5 -10.5t6.5 -38.5v-559q0 -28 -6.5 -38.5
t-26.5 -10.5h-14v-10h182v10h-14q-23 0 -29.5 10.5t-6.5 38.5v257zM180 364v249q10 12 27.5 14.5t49.5 2.5q82 0 124 -29.5t42 -92.5q0 -72 -52 -108t-143 -36h-48zM75 877l111 -155h68l111 155l-37 1l-108 -103l-108 103z" />
    <glyph glyph-name="Dbar" unicode="&#xe028;" horiz-adv-x="698" 
d="M180 372v240q11 9 27 13.5t44 4.5q151 0 231 -74t80 -216q0 -147 -82 -220t-241 -73q-26 0 -40 4.5t-19 20.5v249h177v51h-177zM19 372v-51h76v-262q0 -28 -6.5 -38.5t-28.5 -10.5h-14v-10h224q176 0 277 88q103 88 103 249q0 163 -96 251.5t-276 88.5h-232v-8h14
q22 0 28.5 -10t6.5 -37v-250h-76z" />
    <glyph glyph-name="zdot" unicode="&#xe029;" horiz-adv-x="444" 
d="M52 476l-2 -89h10q3 34 14.5 41t28.5 7h212l-285 -403v-32h377l8 98l-10 2q-8 -44 -22 -51q-16 -8 -45 -8h-219l286 402v33h-353zM219 648q-15 0 -23.5 -1.5t-13 -6t-5.5 -13.5t-1 -24t1 -24t5.5 -13.5t13 -6t23.5 -1.5t23.5 1.5t13 6t5.5 13.5t1 24t-1 24t-5.5 13.5
t-13 6t-23.5 1.5z" />
    <glyph glyph-name="Zdot" unicode="&#xe02a;" horiz-adv-x="559" 
d="M438 48h-319l404 593v36h-483l-11 -121h14q7 48 31 61q24 12 58 12h289l-408 -594v-35h512l13 122h-12q-11 -42 -31.5 -58t-56.5 -16zM275 838q-15 0 -23.5 -1.5t-13 -6t-5.5 -13.5t-1 -24t1 -24t5.5 -13.5t13 -6t23.5 -1.5t23.5 1.5t13 6t5.5 13.5t1 24t-1 24t-5.5 13.5
t-13 6t-23.5 1.5z" />
    <glyph glyph-name="zacute" unicode="&#xe02b;" horiz-adv-x="444" 
d="M52 476l-2 -89h10q3 34 14.5 41t28.5 7h212l-285 -403v-32h377l8 98l-10 2q-8 -44 -22 -51q-16 -8 -45 -8h-219l286 402v33h-353zM150 532l43 -1q17 14 36 30.5t40 34.5q21 19 37 31t27 19q13 9 13 18q0 10 -14 19q-11 8 -23 8q-17 0 -35 -15q-11 -11 -27 -30t-37 -45
q-42 -53 -60 -69z" />
    <glyph glyph-name="Zacute" unicode="&#xe02c;" horiz-adv-x="559" 
d="M438 48h-319l404 593v36h-483l-11 -121h14q7 48 31 61q24 12 58 12h289l-408 -594v-35h512l13 122h-12q-11 -42 -31.5 -58t-56.5 -16zM206 722l43 -1q17 14 36 30.5t40 34.5q21 19 37 31t27 19q13 9 13 18q0 10 -14 19q-11 8 -23 8q-17 0 -35 -15q-11 -11 -27 -30
t-37 -45q-42 -53 -60 -69z" />
    <glyph glyph-name="uogonek" unicode="&#xe02d;" horiz-adv-x="522" 
d="M443 476h-116v-8h12q17 0 23.5 -9t6.5 -26v-266q0 -27 -9.5 -49t-26 -38.5t-40 -25.5t-50.5 -9q-45 0 -70.5 30.5t-25.5 82.5l2 318h-109v-8h10q14 0 19.5 -9t5.5 -26v-285q0 -75 37.5 -116.5t106.5 -41.5q52 0 88 23.5t67 71.5l1 -87l9 -2l89 25v8h-9q-23 0 -23 28z
M388 5q-31 -15 -61 -46q-29 -32 -29 -64q0 -36 23 -57t56 -21q30 0 56.5 17.5t47.5 53.5l-17 12q-18 -21 -35.5 -29t-33.5 -8t-28 10.5t-12 32.5q0 26 21 55q11 14 21 25t21 19h-30z" />
    <glyph glyph-name="Uogonek" unicode="&#xe02e;" horiz-adv-x="698" 
d="M545 225q0 -88 -49 -137.5t-136 -49.5q-181 0 -181 199v381q0 28 6.5 38.5t29.5 10.5h14v10h-186v-10h15q22 0 29 -10.5t7 -38.5v-379q0 -121 66 -186t187 -65t187 64.5t66 184.5v350q0 45 7 62.5t30 17.5h15v10h-159v-10h15q23 0 30 -17.5t7 -62.5v-362zM406 5
q-31 -15 -61 -46q-29 -32 -29 -64q0 -36 23 -57t56 -21q30 0 56.5 17.5t47.5 53.5l-17 12q-18 -21 -35.5 -29t-33.5 -8t-28 10.5t-12 32.5q0 26 21 55q11 14 21 25t21 19h-30z" />
    <glyph glyph-name="uring" unicode="&#xe02f;" horiz-adv-x="522" 
d="M443 476h-116v-8h12q17 0 23.5 -9t6.5 -26v-266q0 -27 -9.5 -49t-26 -38.5t-40 -25.5t-50.5 -9q-45 0 -70.5 30.5t-25.5 82.5l2 318h-109v-8h10q14 0 19.5 -9t5.5 -26v-285q0 -75 37.5 -116.5t106.5 -41.5q52 0 88 23.5t67 71.5l1 -87l9 -2l89 25v8h-9q-23 0 -23 28z
M255 726q-20 0 -37.5 -8t-31 -21.5t-21.5 -31t-8 -37.5t8 -37.5t21.5 -31t31 -21.5t37.5 -8t37.5 8t31 21.5t21 31t7.5 37.5t-7.5 37.5t-21 31t-31 21.5t-37.5 8zM255 692q27 0 45 -18.5t18 -45.5t-18 -45.5t-45 -18.5t-45.5 18.5t-18.5 45.5t18.5 45.5t45.5 18.5z" />
    <glyph glyph-name="Uring" unicode="&#xe030;" horiz-adv-x="698" 
d="M545 225q0 -88 -49 -137.5t-136 -49.5q-181 0 -181 199v381q0 28 6.5 38.5t29.5 10.5h14v10h-186v-10h15q22 0 29 -10.5t7 -38.5v-379q0 -121 66 -186t187 -65t187 64.5t66 184.5v350q0 45 7 62.5t30 17.5h15v10h-159v-10h15q23 0 30 -17.5t7 -62.5v-362zM344 916
q-20 0 -37.5 -8t-31 -21.5t-21.5 -31t-8 -37.5t8 -37.5t21.5 -31t31 -21.5t37.5 -8t37.5 8t31 21.5t21 31t7.5 37.5t-7.5 37.5t-21 31t-31 21.5t-37.5 8zM344 882q27 0 45 -18.5t18 -45.5t-18 -45.5t-45 -18.5t-45.5 18.5t-18.5 45.5t18.5 45.5t45.5 18.5z" />
    <glyph glyph-name="umacron" unicode="&#xe031;" horiz-adv-x="522" 
d="M443 476h-116v-8h12q17 0 23.5 -9t6.5 -26v-266q0 -27 -9.5 -49t-26 -38.5t-40 -25.5t-50.5 -9q-45 0 -70.5 30.5t-25.5 82.5l2 318h-109v-8h10q14 0 19.5 -9t5.5 -26v-285q0 -75 37.5 -116.5t106.5 -41.5q52 0 88 23.5t67 71.5l1 -87l9 -2l89 25v8h-9q-23 0 -23 28z
M119 625v-52h281v52h-281z" />
    <glyph glyph-name="Umacron" unicode="&#xe032;" horiz-adv-x="698" 
d="M545 225q0 -88 -49 -137.5t-136 -49.5q-181 0 -181 199v381q0 28 6.5 38.5t29.5 10.5h14v10h-186v-10h15q22 0 29 -10.5t7 -38.5v-379q0 -121 66 -186t187 -65t187 64.5t66 184.5v350q0 45 7 62.5t30 17.5h15v10h-159v-10h15q23 0 30 -17.5t7 -62.5v-362zM208 815v-52
h281v52h-281z" />
    <glyph glyph-name="tcedilla" unicode="&#xe033;" horiz-adv-x="299" 
d="M163 125v310h109v41h-109v127q0 6 -0.5 6.5t-2.5 0.5l-28 -10q-15 -37 -28 -67t-28 -55l-60 -13v-30h75v-310q0 -70 23.5 -102.5t77.5 -32.5q34 0 61.5 15.5t36.5 30.5l-8 29q-9 -6 -23.5 -15t-36.5 -9q-59 0 -59 84zM81 -182q14 -6 39 -12.5t56 -6.5q54 0 84 20t30 58
q0 30 -21.5 48.5t-55.5 18.5l-32 -4l24 65h-31l-37 -97l4 -3l35 4q45 0 45 -35q0 -20 -14 -31t-38 -11q-29 0 -50 8t-27 11z" />
    <glyph glyph-name="Tcedilla" unicode="&#xe034;" horiz-adv-x="559" 
d="M323 59v567h130q32 0 50 -9q19 -8 30 -60h13l-3 120h-526l-4 -120h14q10 52 30 60q19 9 49 9h132v-567q0 -28 -7 -38.5t-31 -10.5h-16v-10h193v10h-16q-24 0 -31 10.5t-7 38.5zM175 -182q14 -6 39 -12.5t56 -6.5q54 0 84 20t30 58q0 30 -21.5 48.5t-55.5 18.5l-32 -4
l24 65h-31l-37 -97l4 -3l35 4q45 0 45 -35q0 -20 -14 -31t-38 -11q-29 0 -50 8t-27 11z" />
    <glyph glyph-name="sacute" unicode="&#xe035;" horiz-adv-x="389" 
d="M349 125q0 27 -9 48.5t-26 39t-42 33t-57 31.5q-54 27 -80.5 48t-26.5 54q0 31 22.5 51.5t67.5 20.5q38 0 67.5 -22.5t44.5 -57.5l10 24l-3 77h-5l-8 -6q-5 1 -16 3.5t-28 7.5q-33 10 -64 10q-32 0 -59 -9t-46.5 -25.5t-31 -40.5t-11.5 -54q0 -59 44 -94q43 -33 81 -51
q22 -11 42 -21.5t34.5 -23.5t23 -28t8.5 -35q0 -36 -28 -58.5t-68 -22.5q-48 0 -83 25.5t-45 68.5l-11 -27v-88h7q4 6 12 6q17 -4 52.5 -12t71.5 -8q69 0 115 38q45 39 45 98zM123 532l43 -1q17 14 36 30.5t40 34.5q21 19 37 31t27 19q13 9 13 18q0 10 -14 19q-11 8 -23 8
q-17 0 -35 -15q-11 -11 -27 -30t-37 -45q-42 -53 -60 -69z" />
    <glyph glyph-name="Sacute" unicode="&#xe036;" horiz-adv-x="531" 
d="M470 168q0 36 -11 65.5t-33 55t-53.5 47.5t-72.5 43l7 -3q-66 36 -114 73q-49 40 -49 85q0 46 32.5 76t83.5 30q70 0 111.5 -32.5t57.5 -80.5l-3 7l19 26l-14 119h-11q-1 -5 -4.5 -11.5t-14.5 -7.5q-10 2 -25 6.5l-35 10.5q-39 13 -82 13q-81 0 -136 -49
q-56 -50 -56 -118q0 -76 50 -123q25 -23 55.5 -43.5t67.5 -40.5q32 -17 57.5 -34.5t45.5 -34.5q41 -35 41 -92q0 -26 -10.5 -48t-28.5 -38.5t-42.5 -25.5t-53.5 -9q-35 0 -64 10t-53 27t-41.5 39.5t-28.5 47.5l4 -8l-15 -32l18 -117h12q0 4 3.5 10.5t13.5 7.5q11 -3 27 -7.5
t39 -11.5q45 -12 92 -12q90 0 151 52q63 52 63 128zM193 722l43 -1q17 14 36 30.5t40 34.5q21 19 37 31t27 19q13 9 13 18q0 10 -14 19q-11 8 -23 8q-17 0 -35 -15q-11 -11 -27 -30t-37 -45q-42 -53 -60 -69z" />
    <glyph glyph-name="rcedilla" unicode="&#xe037;" horiz-adv-x="327" 
d="M150 47v242q0 26 7.5 50t21.5 44q27 41 63 41q13 0 21.5 -2.5t18.5 -9.5l6 -1q8 0 19 8q15 10 15 35q-4 15 -15.5 24t-31.5 9q-38 0 -70 -25.5t-58 -80.5v101l-19 1l-89 -30v-5l17 -3l9 1q9 0 11 -8t2 -23v-365q0 -24 -6 -33t-22 -9h-12v-8h160v8h-14q-22 0 -28 8t-6 31z
M5 -182q14 -6 39 -12.5t56 -6.5q54 0 84 20t30 58q0 30 -21.5 48.5t-55.5 18.5l-32 -4l24 65h-31l-37 -97l4 -3l35 4q45 0 45 -35q0 -20 -14 -31t-38 -11q-29 0 -50 8t-27 11z" />
    <glyph glyph-name="Rcedilla" unicode="&#xe038;" horiz-adv-x="615" 
d="M180 316l62 1q67 -50 96 -85q15 -18 38 -48.5t55 -75.5l47 -108h122v10q-22 13 -46 48.5t-59 102.5q-20 26 -37 48t-31 39t-36.5 39t-51.5 48q87 12 129.5 56t42.5 107q0 88 -59 133.5t-165 45.5h-239v-10h14q20 0 26.5 -10.5t6.5 -38.5v-559q0 -28 -6.5 -38.5
t-26.5 -10.5h-14v-10h182v10h-14q-23 0 -29.5 10.5t-6.5 38.5v257zM180 364v249q10 12 27.5 14.5t49.5 2.5q82 0 124 -29.5t42 -92.5q0 -72 -52 -108t-143 -36h-48zM34 -182q14 -6 39 -12.5t56 -6.5q54 0 84 20t30 58q0 30 -21.5 48.5t-55.5 18.5l-32 -4l24 65h-31l-37 -97
l4 -3l35 4q45 0 45 -35q0 -20 -14 -31t-38 -11q-29 0 -50 8t-27 11z" />
    <glyph glyph-name="racute" unicode="&#xe039;" horiz-adv-x="327" 
d="M150 47v242q0 26 7.5 50t21.5 44q27 41 63 41q13 0 21.5 -2.5t18.5 -9.5l6 -1q8 0 19 8q15 10 15 35q-4 15 -15.5 24t-31.5 9q-38 0 -70 -25.5t-58 -80.5v101l-19 1l-89 -30v-5l17 -3l9 1q9 0 11 -8t2 -23v-365q0 -24 -6 -33t-22 -9h-12v-8h160v8h-14q-22 0 -28 8t-6 31z
M111 532l43 -1q17 14 36 30.5t40 34.5q21 19 37 31t27 19q13 9 13 18q0 10 -14 19q-11 8 -23 8q-17 0 -35 -15q-11 -11 -27 -30t-37 -45q-42 -53 -60 -69z" />
    <glyph glyph-name="Racute" unicode="&#xe03a;" horiz-adv-x="615" 
d="M180 316l62 1q67 -50 96 -85q15 -18 38 -48.5t55 -75.5l47 -108h122v10q-22 13 -46 48.5t-59 102.5q-20 26 -37 48t-31 39t-36.5 39t-51.5 48q87 12 129.5 56t42.5 107q0 88 -59 133.5t-165 45.5h-239v-10h14q20 0 26.5 -10.5t6.5 -38.5v-559q0 -28 -6.5 -38.5
t-26.5 -10.5h-14v-10h182v10h-14q-23 0 -29.5 10.5t-6.5 38.5v257zM180 364v249q10 12 27.5 14.5t49.5 2.5q82 0 124 -29.5t42 -92.5q0 -72 -52 -108t-143 -36h-48zM148 722l43 -1q17 14 36 30.5t40 34.5q21 19 37 31t27 19q13 9 13 18q0 10 -14 19q-11 8 -23 8
q-17 0 -35 -15q-11 -11 -27 -30t-37 -45q-42 -53 -60 -69z" />
    <glyph glyph-name="omacron" unicode="&#xe03b;" 
d="M489 238q0 111 -63 180q-62 69 -165 69q-102 0 -165 -69q-62 -70 -62 -180t62 -180q62 -68 165 -68q102 0 165 68q63 69 63 180zM412 238q1 -91 -37 -151q-38 -59 -105 -59t-112 59q-22 29 -34 67t-13 84q-1 90 36 151q38 59 105 59q68 0 112 -59q22 -29 34 -67t14 -84z
M122 625v-52h281v52h-281z" />
    <glyph glyph-name="Omacron" unicode="&#xe03c;" horiz-adv-x="719" 
d="M587 338q0 -134 -62 -220q-62 -84 -165 -84q-105 0 -166 84q-61 85 -61 220q0 137 61 220q61 85 166 85q104 0 165 -85q62 -85 62 -220zM677 338q0 157 -88 254q-87 98 -229 98q-143 0 -230 -98t-87 -254t87 -253t230 -97q142 0 229 97q88 97 88 253zM219 815v-52h281v52
h-281z" />
    <glyph glyph-name="ncedilla" unicode="&#xe03d;" horiz-adv-x="522" 
d="M443 47v273q0 78 -36.5 122.5t-102.5 44.5q-51 0 -87.5 -23.5t-68.5 -69.5v88l-19 1l-86 -30v-5l16 -3l8 1q8 0 10 -8t2 -23v-365q0 -24 -5 -33t-19 -9h-10v-8h128v8h-6q-11 0 -13.5 8t-2.5 31v272q10 49 42.5 82t83.5 33q45 0 69.5 -31t24.5 -85v-268q0 -24 -5 -33
t-21 -9h-10v-8h127v8h-5q-9 0 -11.5 8t-2.5 31zM13 -182q14 -6 39 -12.5t56 -6.5q54 0 84 20t30 58q0 30 -21.5 48.5t-55.5 18.5l-32 -4l24 65h-31l-37 -97l4 -3l35 4q45 0 45 -35q0 -20 -14 -31t-38 -11q-29 0 -50 8t-27 11z" />
    <glyph glyph-name="Ncedilla" unicode="&#xe03e;" horiz-adv-x="698" 
d="M547 131q-94 141 -187 273t-187 273h-132v-10h12q9 0 14.5 -1.5t10.5 -9.5l17 -31v-543q0 -40 -7 -56t-31 -16h-16v-10h161v10h-15q-23 0 -30 16t-7 56v487l401 -574h51v598q0 42 7 58t30 16h16v10h-162v-10h17q24 0 30.5 -16t6.5 -58v-462zM18 -182q14 -6 39 -12.5
t56 -6.5q54 0 84 20t30 58q0 30 -21.5 48.5t-55.5 18.5l-32 -4l24 65h-31l-37 -97l4 -3l35 4q45 0 45 -35q0 -20 -14 -31t-38 -11q-29 0 -50 8t-27 11z" />
    <glyph glyph-name="nacute" unicode="&#xe03f;" horiz-adv-x="522" 
d="M443 47v273q0 78 -36.5 122.5t-102.5 44.5q-51 0 -87.5 -23.5t-68.5 -69.5v88l-19 1l-86 -30v-5l16 -3l8 1q8 0 10 -8t2 -23v-365q0 -24 -5 -33t-19 -9h-10v-8h128v8h-6q-11 0 -13.5 8t-2.5 31v272q10 49 42.5 82t83.5 33q45 0 69.5 -31t24.5 -85v-268q0 -24 -5 -33
t-21 -9h-10v-8h127v8h-5q-9 0 -11.5 8t-2.5 31zM192 532l43 -1q17 14 36 30.5t40 34.5q21 19 37 31t27 19q13 9 13 18q0 10 -14 19q-11 8 -23 8q-17 0 -35 -15q-11 -11 -27 -30t-37 -45q-42 -53 -60 -69z" />
    <glyph glyph-name="Nacute" unicode="&#xe040;" horiz-adv-x="698" 
d="M547 131q-94 141 -187 273t-187 273h-132v-10h12q9 0 14.5 -1.5t10.5 -9.5l17 -31v-543q0 -40 -7 -56t-31 -16h-16v-10h161v10h-15q-23 0 -30 16t-7 56v487l401 -574h51v598q0 42 7 58t30 16h16v10h-162v-10h17q24 0 30.5 -16t6.5 -58v-462zM280 722l43 -1q17 14 36 30.5
t40 34.5q21 19 37 31t27 19q13 9 13 18q0 10 -14 19q-11 8 -23 8q-17 0 -35 -15q-11 -11 -27 -30t-37 -45q-42 -53 -60 -69z" />
    <glyph glyph-name="lcedilla" unicode="&#xe041;" horiz-adv-x="253" 
d="M46 681l20 -3l10 1q11 0 13 -7.5t2 -23.5v-598q0 -24 -6.5 -33t-24.5 -9h-13v-8h145v8h-8q-14 0 -17.5 8t-3.5 31v665l-19 1l-98 -27v-5zM21 -182q14 -6 39 -12.5t56 -6.5q54 0 84 20t30 58q0 30 -21.5 48.5t-55.5 18.5l-32 -4l24 65h-31l-37 -97l4 -3l35 4q45 0 45 -35
q0 -20 -14 -31t-38 -11q-29 0 -50 8t-27 11z" />
    <glyph glyph-name="Lcedilla" unicode="&#xe042;" horiz-adv-x="535" 
d="M176 618q0 28 7 38.5t29 10.5h15v10h-184v-10h14q21 0 27.5 -10.5t6.5 -38.5v-559q0 -28 -6.5 -38.5t-27.5 -10.5h-14v-10h451l28 121l-13 3q-22 -51 -52 -64q-29 -12 -86 -12h-146q-29 0 -39 2.5t-10 16.5v551zM184 -182q14 -6 39 -12.5t56 -6.5q54 0 84 20t30 58
q0 30 -21.5 48.5t-55.5 18.5l-32 -4l24 65h-31l-37 -97l4 -3l35 4q45 0 45 -35q0 -20 -14 -31t-38 -11q-29 0 -50 8t-27 11z" />
    <glyph glyph-name="lacute" unicode="&#xe043;" horiz-adv-x="253" 
d="M46 681l20 -3l10 1q11 0 13 -7.5t2 -23.5v-598q0 -24 -6.5 -33t-24.5 -9h-13v-8h145v8h-8q-14 0 -17.5 8t-3.5 31v665l-19 1l-98 -27v-5zM54 740l43 -1q17 14 36 30.5t40 34.5q21 19 37 31t27 19q13 9 13 18q0 10 -14 19q-11 8 -23 8q-17 0 -35 -15q-11 -11 -27 -30
t-37 -45q-42 -53 -60 -69z" />
    <glyph glyph-name="Lacute" unicode="&#xe044;" horiz-adv-x="535" 
d="M176 618q0 28 7 38.5t29 10.5h15v10h-184v-10h14q21 0 27.5 -10.5t6.5 -38.5v-559q0 -28 -6.5 -38.5t-27.5 -10.5h-14v-10h451l28 121l-13 3q-22 -51 -52 -64q-29 -12 -86 -12h-146q-29 0 -39 2.5t-10 16.5v551zM80 722l43 -1q17 14 36 30.5t40 34.5q21 19 37 31t27 19
q13 9 13 18q0 10 -14 19q-11 8 -23 8q-17 0 -35 -15q-11 -11 -27 -30t-37 -45q-42 -53 -60 -69z" />
    <glyph glyph-name="kcedilla" unicode="&#xe045;" horiz-adv-x="497" 
d="M35 681l20 -3l10 1q11 0 13 -7.5t2 -23.5v-598q0 -24 -6.5 -33t-24.5 -9h-13v-8h145v8h-8q-14 0 -17.5 8t-3.5 31v211l197 -232q6 -8 6 -14q0 -4 -10 -4v-8h145v8q-15 1 -31.5 10t-37.5 32l-206 232l163 146q15 13 26.5 21t21 12.5t19 5.5t20.5 1v8h-149v-7q25 0 26 -10
q0 -10 -19 -26l-171 -152v431l-19 1l-98 -27v-5zM8 -182q14 -6 39 -12.5t56 -6.5q54 0 84 20t30 58q0 30 -21.5 48.5t-55.5 18.5l-32 -4l24 65h-31l-37 -97l4 -3l35 4q45 0 45 -35q0 -20 -14 -31t-38 -11q-29 0 -50 8t-27 11z" />
    <glyph glyph-name="Kcedilla" unicode="&#xe046;" horiz-adv-x="670" 
d="M196 59v260l14 11l225 -225q28 -28 42 -47.5t16 -29.5l1 -4q0 -14 -40 -14v-10h210v10q-19 1 -34 9.5t-32 25.5l-315 325l271 267q18 18 31 23t38 7v10h-185v-10h7q32 0 32 -17q-1 -9 -8.5 -19.5t-21.5 -24.5l-251 -242v254q0 28 6.5 38.5t29.5 10.5h14v10h-185v-10h14
q23 0 29.5 -10.5t6.5 -38.5v-559q0 -28 -6.5 -38.5t-29.5 -10.5h-14v-10h185v10h-14q-23 0 -29.5 10.5t-6.5 38.5zM47 -182q14 -6 39 -12.5t56 -6.5q54 0 84 20t30 58q0 30 -21.5 48.5t-55.5 18.5l-32 -4l24 65h-31l-37 -97l4 -3l35 4q45 0 45 -35q0 -20 -14 -31t-38 -11
q-29 0 -50 8t-27 11z" />
    <glyph glyph-name="iogonek" unicode="&#xe047;" horiz-adv-x="253" 
d="M78 657q0 -31 7 -38.5t35 -7.5t35 7.5t7 38.5t-7 38.5t-35 7.5t-35 -7.5t-7 -38.5zM161 47v435l-19 1l-98 -34v-5l20 -3l10 1q11 0 13 -7.5t2 -23.5v-361q0 -24 -6.5 -33t-24.5 -9h-13v-8h145v8h-8q-14 0 -17.5 8t-3.5 31zM136 5q-31 -15 -61 -46q-29 -32 -29 -64
q0 -36 23 -57t56 -21q30 0 56.5 17.5t47.5 53.5l-17 12q-18 -21 -35.5 -29t-33.5 -8t-28 10.5t-12 32.5q0 26 21 55q11 14 21 25t21 19h-30z" />
    <glyph glyph-name="Iogonek" unicode="&#xe048;" horiz-adv-x="281" 
d="M183 59v559q0 28 6.5 38.5t31.5 10.5h16v10h-194v-10h16q25 0 31.5 -10.5t6.5 -38.5v-559q0 -28 -6.5 -38.5t-31.5 -10.5h-16v-10h194v10h-16q-25 0 -31.5 10.5t-6.5 38.5zM161 5q-31 -15 -61 -46q-29 -32 -29 -64q0 -36 23 -57t56 -21q30 0 56.5 17.5t47.5 53.5l-17 12
q-18 -21 -35.5 -29t-33.5 -8t-28 10.5t-12 32.5q0 26 21 55q11 14 21 25t21 19h-30z" />
    <glyph glyph-name="imacron" unicode="&#xe049;" horiz-adv-x="253" 
d="M161 47v435l-19 1l-98 -34v-5l20 -3l10 1q11 0 13 -7.5t2 -23.5v-361q0 -24 -6.5 -33t-24.5 -9h-13v-8h145v8h-8q-14 0 -17.5 8t-3.5 31zM-12 625v-52h280v52h-280z" />
    <glyph glyph-name="Imacron" unicode="&#xe04a;" horiz-adv-x="281" 
d="M183 59v559q0 28 6.5 38.5t31.5 10.5h16v10h-194v-10h16q25 0 31.5 -10.5t6.5 -38.5v-559q0 -28 -6.5 -38.5t-31.5 -10.5h-16v-10h194v10h-16q-25 0 -31.5 10.5t-6.5 38.5zM0 815v-52h281v52h-281z" />
    <glyph glyph-name="gcedilla" unicode="&#xe04b;" 
d="M245 450q48 0 81 -45q16 -22 24.5 -50t8.5 -62q0 -51 -25.5 -80.5t-70.5 -29.5q-55 0 -86.5 42.5t-31.5 114.5q0 51 27 80.5t73 29.5zM72 311q0 -72 53 -120q6 -5 13.5 -11t17.5 -11q-14 -11 -27 -23t-24 -23q-25 -26 -25 -50q0 -34 51 -59q-20 -12 -37 -24.5t-31 -25.5
q-31 -28 -31 -69q0 -51 54.5 -81t147.5 -30q100 0 173 43q74 44 74 113q0 58 -52 86q-26 14 -56.5 21t-67.5 9q-36 1 -66.5 3.5t-52.5 6.5t-34.5 10.5t-12.5 17.5q0 19 24 39q18 15 33 19q27 -8 62 -8q72 0 121 49q50 50 50 122q0 59 -26 97l15 6h70v39q0 5 -3 8t-6 3
q-16 0 -32.5 -1.5t-33.5 -3.5q-14 -2 -28 -3t-29 -2q-41 29 -105 29q-78 0 -128 -49q-51 -50 -51 -127zM175 4q32 -5 59 -7.5t50 -3.5q75 -2 114.5 -17t39.5 -45q0 -46 -56 -69q-57 -23 -125 -23q-82 0 -120 22t-38 54q0 25 21 48t55 41zM178 532l43 -1q17 14 36 30.5
t40 34.5q21 19 37 31t27 19q13 9 13 18q0 10 -14 19q-11 8 -23 8q-17 0 -35 -15q-11 -11 -27 -30t-37 -45q-42 -53 -60 -69z" />
    <glyph glyph-name="Gcedilla" unicode="&#xe04c;" horiz-adv-x="719" 
d="M137 331q0 142 72 226t197 84q27 0 54.5 -6t54 -19.5t49.5 -35.5t41 -55l-4 7l16 27l-5 117h-12q0 -5 -6.5 -11t-15.5 -7q-26 6 -75 19t-114 13q-150 0 -247 -99q-96 -98 -96 -250q0 -165 96 -259q97 -94 264 -94q66 0 140 20q73 21 90 42v270q0 38 37 38v10h-239v-37h70
q29 0 39 -7.5t10 -30.5v-215q-5 -9 -18 -16.5t-32 -13.5t-43 -9t-49 -3q-127 0 -200 81q-74 82 -74 214zM284 -182q14 -6 39 -12.5t56 -6.5q54 0 84 20t30 58q0 30 -21.5 48.5t-55.5 18.5l-32 -4l24 65h-31l-37 -97l4 -3l35 4q45 0 45 -35q0 -20 -14 -31t-38 -11
q-29 0 -50 8t-27 11z" />
    <glyph glyph-name="eogonek" unicode="&#xe04d;" horiz-adv-x="469" 
d="M421 96l-8 33q-13 -21 -55 -50q-40 -28 -95 -28q-78 0 -123 60q-41 56 -44 150h332l-1 10q-10 99 -53.5 157.5t-131.5 58.5q-94 0 -152 -73q-58 -71 -58 -186q0 -112 52.5 -175t148.5 -63q63 0 112.5 28.5t75.5 77.5zM98 302q8 59 34 93q37 48 99 48q51 0 78 -37.5
t32 -103.5h-243zM273 5q-31 -15 -61 -46q-29 -32 -29 -64q0 -36 23 -57t56 -21q30 0 56.5 17.5t47.5 53.5l-17 12q-18 -21 -35.5 -29t-33.5 -8t-28 10.5t-12 32.5q0 26 21 55q11 14 21 25t21 19h-30z" />
    <glyph glyph-name="Eogonek" unicode="&#xe04e;" horiz-adv-x="559" 
d="M502 0l25 119h-16q-10 -23 -21 -36.5t-25 -21.5t-31.5 -10.5t-41.5 -2.5h-165q-29 0 -39 2.5t-10 16.5v261h203q19 0 31.5 -2.5t19 -8.5t9.5 -16t5 -25h13v151h-13q-3 -30 -14.5 -40t-50.5 -10h-203v229q0 15 2 19t20 4h202q33 0 51 -7q20 -8 26 -48h14l-1 103h-446v-10
h14q20 0 26.5 -10.5t6.5 -38.5v-559q0 -28 -6.5 -38.5t-26.5 -10.5h-14v-10h456zM422 5q-31 -15 -61 -46q-29 -32 -29 -64q0 -36 23 -57t56 -21q30 0 56.5 17.5t47.5 53.5l-17 12q-18 -21 -35.5 -29t-33.5 -8t-28 10.5t-12 32.5q0 26 21 55q11 14 21 25t21 19h-30z" />
    <glyph glyph-name="edot" unicode="&#xe04f;" horiz-adv-x="469" 
d="M421 96l-8 33q-13 -21 -55 -50q-40 -28 -95 -28q-78 0 -123 60q-41 56 -44 150h332l-1 10q-10 99 -53.5 157.5t-131.5 58.5q-94 0 -152 -73q-58 -71 -58 -186q0 -112 52.5 -175t148.5 -63q63 0 112.5 28.5t75.5 77.5zM98 302q8 59 34 93q37 48 99 48q51 0 78 -37.5
t32 -103.5h-243zM236 648q-15 0 -23.5 -1.5t-13 -6t-5.5 -13.5t-1 -24t1 -24t5.5 -13.5t13 -6t23.5 -1.5t23.5 1.5t13 6t5.5 13.5t1 24t-1 24t-5.5 13.5t-13 6t-23.5 1.5z" />
    <glyph glyph-name="Edot" unicode="&#xe050;" horiz-adv-x="559" 
d="M502 0l25 119h-16q-10 -23 -21 -36.5t-25 -21.5t-31.5 -10.5t-41.5 -2.5h-165q-29 0 -39 2.5t-10 16.5v261h203q19 0 31.5 -2.5t19 -8.5t9.5 -16t5 -25h13v151h-13q-3 -30 -14.5 -40t-50.5 -10h-203v229q0 15 2 19t20 4h202q33 0 51 -7q20 -8 26 -48h14l-1 103h-446v-10
h14q20 0 26.5 -10.5t6.5 -38.5v-559q0 -28 -6.5 -38.5t-26.5 -10.5h-14v-10h456zM280 838q-15 0 -23.5 -1.5t-13 -6t-5.5 -13.5t-1 -24t1 -24t5.5 -13.5t13 -6t23.5 -1.5t23.5 1.5t13 6t5.5 13.5t1 24t-1 24t-5.5 13.5t-13 6t-23.5 1.5z" />
    <glyph glyph-name="emacron" unicode="&#xe051;" horiz-adv-x="469" 
d="M421 96l-8 33q-13 -21 -55 -50q-40 -28 -95 -28q-78 0 -123 60q-41 56 -44 150h332l-1 10q-10 99 -53.5 157.5t-131.5 58.5q-94 0 -152 -73q-58 -71 -58 -186q0 -112 52.5 -175t148.5 -63q63 0 112.5 28.5t75.5 77.5zM98 302q8 59 34 93q37 48 99 48q51 0 78 -37.5
t32 -103.5h-243zM94 625v-52h281v52h-281z" />
    <glyph glyph-name="Emacron" unicode="&#xe052;" horiz-adv-x="559" 
d="M502 0l25 119h-16q-10 -23 -21 -36.5t-25 -21.5t-31.5 -10.5t-41.5 -2.5h-165q-29 0 -39 2.5t-10 16.5v261h203q19 0 31.5 -2.5t19 -8.5t9.5 -16t5 -25h13v151h-13q-3 -30 -14.5 -40t-50.5 -10h-203v229q0 15 2 19t20 4h202q33 0 51 -7q20 -8 26 -48h14l-1 103h-446v-10
h14q20 0 26.5 -10.5t6.5 -38.5v-559q0 -28 -6.5 -38.5t-26.5 -10.5h-14v-10h456zM138 815v-52h281v52h-281z" />
    <glyph glyph-name="aogonek" unicode="&#xe053;" horiz-adv-x="466" 
d="M322 150q0 -21 -9.5 -40.5t-26 -33.5t-38.5 -22.5t-48 -8.5q-43 0 -64.5 24t-21.5 62q0 24 10 42.5t29 32t46 23.5t61 19l62 16v-114zM325 72q1 -34 9.5 -55.5t25.5 -21.5q23 0 42 8.5t35 18.5l1 15q-2 -3 -11 -7t-15 -4q-10 0 -15 17.5t-5 45.5v245q0 153 -155 153
q-67 0 -111 -25q-45 -24 -51 -53q0 -30 22 -37q8 -2 11 -2q12 0 14 12l-2 21q13 21 43.5 34t64.5 13q45 0 69.5 -23.5t24.5 -75.5v-49l-99 -33q-85 -12 -135 -50t-50 -105q0 -27 9.5 -49.5t26.5 -39.5t42 -26.5t55 -9.5q38 0 78.5 19t75.5 64zM357 5q-31 -15 -61 -46
q-29 -32 -29 -64q0 -36 23 -57t56 -21q30 0 56.5 17.5t47.5 53.5l-17 12q-18 -21 -35.5 -29t-33.5 -8t-28 10.5t-12 32.5q0 26 21 55q11 14 21 25t21 19h-30z" />
    <glyph glyph-name="Aogonek" unicode="&#xe054;" horiz-adv-x="698" 
d="M465 253h-264l132 326zM680 10q-12 2 -21.5 7t-21.5 26l-266 641h-45l-256 -615q-11 -25 -22 -41t-33 -18v-10h140v10q-24 0 -34 10q-4 4 -4 13q0 10 8 31l56 140h301l62 -152q6 -13 4 -22q0 -8 -4 -12q-10 -8 -34 -8v-10h170v10zM599 5q-31 -15 -61 -46q-29 -32 -29 -64
q0 -36 23 -57t56 -21q30 0 56.5 17.5t47.5 53.5l-17 12q-18 -21 -35.5 -29t-33.5 -8t-28 10.5t-12 32.5q0 26 21 55q11 14 21 25t21 19h-30z" />
    <glyph glyph-name="abreve" unicode="&#xe055;" horiz-adv-x="466" 
d="M322 150q0 -21 -9.5 -40.5t-26 -33.5t-38.5 -22.5t-48 -8.5q-43 0 -64.5 24t-21.5 62q0 24 10 42.5t29 32t46 23.5t61 19l62 16v-114zM325 72q1 -34 9.5 -55.5t25.5 -21.5q23 0 42 8.5t35 18.5l1 15q-2 -3 -11 -7t-15 -4q-10 0 -15 17.5t-5 45.5v245q0 153 -155 153
q-67 0 -111 -25q-45 -24 -51 -53q0 -30 22 -37q8 -2 11 -2q12 0 14 12l-2 21q13 21 43.5 34t64.5 13q45 0 69.5 -23.5t24.5 -75.5v-49l-99 -33q-85 -12 -135 -50t-50 -105q0 -27 9.5 -49.5t26.5 -39.5t42 -26.5t55 -9.5q38 0 78.5 19t75.5 64zM234 537q26 0 49 7.5t40.5 24
t28.5 43t14 63.5h-29q-11 -43 -39 -60.5t-64 -17.5q-37 0 -65 17.5t-39 60.5h-29q5 -74 42.5 -106t90.5 -32z" />
    <glyph glyph-name="Abreve" unicode="&#xe056;" horiz-adv-x="698" 
d="M465 253h-264l132 326zM680 10q-12 2 -21.5 7t-21.5 26l-266 641h-45l-256 -615q-11 -25 -22 -41t-33 -18v-10h140v10q-24 0 -34 10q-4 4 -4 13q0 10 8 31l56 140h301l62 -152q6 -13 4 -22q0 -8 -4 -12q-10 -8 -34 -8v-10h170v10zM350 727q26 0 49 7.5t40.5 24t28.5 43
t14 63.5h-29q-11 -43 -39 -60.5t-64 -17.5q-37 0 -65 17.5t-39 60.5h-29q5 -74 42.5 -106t90.5 -32z" />
    <glyph glyph-name="amacron" unicode="&#xe057;" horiz-adv-x="466" 
d="M322 150q0 -21 -9.5 -40.5t-26 -33.5t-38.5 -22.5t-48 -8.5q-43 0 -64.5 24t-21.5 62q0 24 10 42.5t29 32t46 23.5t61 19l62 16v-114zM325 72q1 -34 9.5 -55.5t25.5 -21.5q23 0 42 8.5t35 18.5l1 15q-2 -3 -11 -7t-15 -4q-10 0 -15 17.5t-5 45.5v245q0 153 -155 153
q-67 0 -111 -25q-45 -24 -51 -53q0 -30 22 -37q8 -2 11 -2q12 0 14 12l-2 21q13 21 43.5 34t64.5 13q45 0 69.5 -23.5t24.5 -75.5v-49l-99 -33q-85 -12 -135 -50t-50 -105q0 -27 9.5 -49.5t26.5 -39.5t42 -26.5t55 -9.5q38 0 78.5 19t75.5 64zM93 625v-52h281v52h-281z" />
    <glyph glyph-name="Amacron" unicode="&#xe058;" horiz-adv-x="698" 
d="M465 253h-264l132 326zM680 10q-12 2 -21.5 7t-21.5 26l-266 641h-45l-256 -615q-11 -25 -22 -41t-33 -18v-10h140v10q-24 0 -34 10q-4 4 -4 13q0 10 8 31l56 140h301l62 -152q6 -13 4 -22q0 -8 -4 -12q-10 -8 -34 -8v-10h170v10zM209 815v-52h281v52h-281z" />
    <glyph glyph-name="sfthyphen" unicode="&#xe059;" horiz-adv-x="333" 
d="M39 272v-55h248v55h-248z" />
    <glyph glyph-name="ccaron" unicode="&#xe05a;" horiz-adv-x="444" 
d="M400 119q-8 -15 -45 -41q-35 -25 -85 -25q-74 0 -122 57q-47 58 -47 143q0 43 11.5 79t33 61.5t51.5 39.5t67 14q27 0 49.5 -9.5t31.5 -25.5q7 -28 24 -28l7 1q24 7 27 36q-10 27 -49 46q-42 20 -89 20q-102 0 -168 -72t-66 -183q0 -108 58 -175t155 -67q60 0 100.5 26.5
t65.5 71.5zM117 687l111 -155h68l111 155l-37 1l-108 -103l-108 103z" />
    <glyph glyph-name="Ccaron" unicode="&#xe05b;" horiz-adv-x="664" 
d="M132 339q0 137 69 220q70 82 190 82q28 0 55.5 -7t53.5 -20q54 -27 85 -96l-4 7l14 28l-6 126h-11q-5 -18 -24 -18q-10 3 -27 7.5t-42 9.5q-50 12 -106 12q-148 0 -244 -99q-95 -100 -95 -253q0 -160 92 -255t247 -95q66 0 122 19t104 61l-14 37q-37 -33 -89 -50
t-106 -17q-124 0 -194 81q-70 80 -70 220zM234 877l111 -155h68l111 155l-37 1l-108 -103l-108 103z" />
    <glyph glyph-name="cacute" unicode="&#xe05c;" horiz-adv-x="444" 
d="M400 119q-8 -15 -45 -41q-35 -25 -85 -25q-74 0 -122 57q-47 58 -47 143q0 43 11.5 79t33 61.5t51.5 39.5t67 14q27 0 49.5 -9.5t31.5 -25.5q7 -28 24 -28l7 1q24 7 27 36q-10 27 -49 46q-42 20 -89 20q-102 0 -168 -72t-66 -183q0 -108 58 -175t155 -67q60 0 100.5 26.5
t65.5 71.5zM190 532l43 -1q17 14 36 30.5t40 34.5q21 19 37 31t27 19q13 9 13 18q0 10 -14 19q-11 8 -23 8q-17 0 -35 -15q-11 -11 -27 -30t-37 -45q-42 -53 -60 -69z" />
    <glyph glyph-name="Cacute" unicode="&#xe05d;" horiz-adv-x="664" 
d="M132 339q0 137 69 220q70 82 190 82q28 0 55.5 -7t53.5 -20q54 -27 85 -96l-4 7l14 28l-6 126h-11q-5 -18 -24 -18q-10 3 -27 7.5t-42 9.5q-50 12 -106 12q-148 0 -244 -99q-95 -100 -95 -253q0 -160 92 -255t247 -95q66 0 122 19t104 61l-14 37q-37 -33 -89 -50
t-106 -17q-124 0 -194 81q-70 80 -70 220zM307 722l43 -1q17 14 36 30.5t40 34.5q21 19 37 31t27 19q13 9 13 18q0 10 -14 19q-11 8 -23 8q-17 0 -35 -15q-11 -11 -27 -30t-37 -45q-42 -53 -60 -69z" />
    <glyph glyph-name="scedilla" unicode="&#xe05e;" horiz-adv-x="389" 
d="M349 125q0 27 -9 48.5t-26 39t-42 33t-57 31.5q-54 27 -80.5 48t-26.5 54q0 31 22.5 51.5t67.5 20.5q38 0 67.5 -22.5t44.5 -57.5l10 24l-3 77h-5l-8 -6q-5 1 -16 3.5t-28 7.5q-33 10 -64 10q-32 0 -59 -9t-46.5 -25.5t-31 -40.5t-11.5 -54q0 -59 44 -94q43 -33 81 -51
q22 -11 42 -21.5t34.5 -23.5t23 -28t8.5 -35q0 -36 -28 -58.5t-68 -22.5q-48 0 -83 25.5t-45 68.5l-11 -27v-88h7q4 6 12 6q17 -4 52.5 -12t71.5 -8q69 0 115 38q45 39 45 98zM76 -182q14 -6 39 -12.5t56 -6.5q54 0 84 20t30 58q0 30 -21.5 48.5t-55.5 18.5l-32 -4l24 65
h-31l-37 -97l4 -3l35 4q45 0 45 -35q0 -20 -14 -31t-38 -11q-29 0 -50 8t-27 11z" />
    <glyph glyph-name="Scedilla" unicode="&#xe05f;" horiz-adv-x="531" 
d="M470 168q0 36 -11 65.5t-33 55t-53.5 47.5t-72.5 43l7 -3q-66 36 -114 73q-49 40 -49 85q0 46 32.5 76t83.5 30q70 0 111.5 -32.5t57.5 -80.5l-3 7l19 26l-14 119h-11q-1 -5 -4.5 -11.5t-14.5 -7.5q-10 2 -25 6.5l-35 10.5q-39 13 -82 13q-81 0 -136 -49
q-56 -50 -56 -118q0 -76 50 -123q25 -23 55.5 -43.5t67.5 -40.5q32 -17 57.5 -34.5t45.5 -34.5q41 -35 41 -92q0 -26 -10.5 -48t-28.5 -38.5t-42.5 -25.5t-53.5 -9q-35 0 -64 10t-53 27t-41.5 39.5t-28.5 47.5l4 -8l-15 -32l18 -117h12q0 4 3.5 10.5t13.5 7.5q11 -3 27 -7.5
t39 -11.5q45 -12 92 -12q90 0 151 52q63 52 63 128zM132 -182q14 -6 39 -12.5t56 -6.5q54 0 84 20t30 58q0 30 -21.5 48.5t-55.5 18.5l-32 -4l24 65h-31l-37 -97l4 -3l35 4q45 0 45 -35q0 -20 -14 -31t-38 -11q-29 0 -50 8t-27 11z" />
    <glyph glyph-name="Idotaccent" unicode="&#xe060;" horiz-adv-x="281" 
d="M183 59v559q0 28 6.5 38.5t31.5 10.5h16v10h-194v-10h16q25 0 31.5 -10.5t6.5 -38.5v-559q0 -28 -6.5 -38.5t-31.5 -10.5h-16v-10h194v10h-16q-25 0 -31.5 10.5t-6.5 38.5zM142 838q-15 0 -23.5 -1.5t-13 -6t-5.5 -13.5t-1 -24t1 -24t5.5 -13.5t13 -6t23.5 -1.5t23.5 1.5
t13 6t5.5 13.5t1 24t-1 24t-5.5 13.5t-13 6t-23.5 1.5z" />
    <glyph glyph-name="gbreve" unicode="&#xe061;" 
d="M245 450q48 0 81 -45q16 -22 24.5 -50t8.5 -62q0 -51 -25.5 -80.5t-70.5 -29.5q-55 0 -86.5 42.5t-31.5 114.5q0 51 27 80.5t73 29.5zM72 311q0 -72 53 -120q6 -5 13.5 -11t17.5 -11q-14 -11 -27 -23t-24 -23q-25 -26 -25 -50q0 -34 51 -59q-20 -12 -37 -24.5t-31 -25.5
q-31 -28 -31 -69q0 -51 54.5 -81t147.5 -30q100 0 173 43q74 44 74 113q0 58 -52 86q-26 14 -56.5 21t-67.5 9q-36 1 -66.5 3.5t-52.5 6.5t-34.5 10.5t-12.5 17.5q0 19 24 39q18 15 33 19q27 -8 62 -8q72 0 121 49q50 50 50 122q0 59 -26 97l15 6h70v39q0 5 -3 8t-6 3
q-16 0 -32.5 -1.5t-33.5 -3.5q-14 -2 -28 -3t-29 -2q-41 29 -105 29q-78 0 -128 -49q-51 -50 -51 -127zM175 4q32 -5 59 -7.5t50 -3.5q75 -2 114.5 -17t39.5 -45q0 -46 -56 -69q-57 -23 -125 -23q-82 0 -120 22t-38 54q0 25 21 48t55 41zM246 537q26 0 49 7.5t40.5 24
t28.5 43t14 63.5h-29q-11 -43 -39 -60.5t-64 -17.5q-37 0 -65 17.5t-39 60.5h-29q5 -74 42.5 -106t90.5 -32z" />
    <glyph glyph-name="Gbreve" unicode="&#xe062;" horiz-adv-x="719" 
d="M137 331q0 142 72 226t197 84q27 0 54.5 -6t54 -19.5t49.5 -35.5t41 -55l-4 7l16 27l-5 117h-12q0 -5 -6.5 -11t-15.5 -7q-26 6 -75 19t-114 13q-150 0 -247 -99q-96 -98 -96 -250q0 -165 96 -259q97 -94 264 -94q66 0 140 20q73 21 90 42v270q0 38 37 38v10h-239v-37h70
q29 0 39 -7.5t10 -30.5v-215q-5 -9 -18 -16.5t-32 -13.5t-43 -9t-49 -3q-127 0 -200 81q-74 82 -74 214zM390 727q26 0 49 7.5t40.5 24t28.5 43t14 63.5h-29q-11 -43 -39 -60.5t-64 -17.5q-37 0 -65 17.5t-39 60.5h-29q5 -74 42.5 -106t90.5 -32z" />
    <glyph glyph-name="franc" unicode="&#xe063;" horiz-adv-x="504" 
d="M29 194v-49h59v-86q0 -28 -6 -38.5t-28 -10.5h-14v-10h183v10h-14q-23 0 -29 10.5t-6 38.5v86h59v49h-59l-1 134h192q39 0 51 -10.5t15 -41.5h13v151h-13q-3 -30 -15 -40t-51 -10h-191v229q0 15 2 19t20 4h196q33 0 51 -7q20 -8 26 -48h14l-1 103h-441v-10h14
q22 0 27.5 -10.5t5.5 -38.5v-424h-59z" />
    </font>
</defs>
</svg>
